<?xml version="1.0" encoding="UTF-8" standalone="no"?>
<svg xmlns="http://www.w3.org/2000/svg" version="1.0" width="580" height="580">
  <path d="m 84,124 c -16,1 -27,18 -24,33 0,93 -0,186 0,279 1,17 19,26 35,24 132,-0 265,0 397,-0 16,-1 27,-17 24,-33 -0,-93 0,-186 -0,-279 -1,-13 -14,-24 -27,-24" />
  <path fill="#B3B3B3" d="m 84,176 v 89 c 0,8 7,15 16,15 h 89 c 8,0 15,-7 15,-15 v -89 c 0,-9 -7,-16 -15,-16 h -89 c -9,0 -16,7 -16,16 z m 144,0 v 89 c 0,9 7,16 16,15 h 89 c 8,0 15,-7 15,-15 v -89 c 0,-9 -7,-16 -16,-16 h -89 c -8,0 -15,7 -15,16 z m 144,0 v 89 c 0,8 7,15 16,15 h 89 c 8,0 15,-7 15,-15 v -89 c 0,-9 -7,-16 -15,-16 h -89 c -9,0 -16,7 -16,16 z" />
  <path d="m 276,4 h 24 v 132 h -24 z" />
</svg>