<?xml version="1.0" encoding="UTF-8" standalone="no"?>
<svg xmlns="http://www.w3.org/2000/svg" width="580" height="580" version="1.0">
  <path d="m 156,183 30,170 c 6,31 27,57 58,66 8,2 16,4 24,4 l 59,0 c 27,0 27,-36 0,-36 l -56,-0 c -5,-0 -11,-1 -17,-2 -18,-6 -31,-21 -34,-38 L 191,178 c -8,-29 -40,-20 -35,6 z M 270,160 c -23,0 -42,-19 -42,-42 0,-23 19,-42 42,-42 23,0 42,19 42,42 0,23 -19,42 -42,42 z M 420,5 318,235 310,194 C 309,186 294,173 276,172 256,172 240,188 240,208 c 5,38 13,79 17,104 4,25 19,38 37,38 h 90 l 0,111 c 1,22 35,21 36,0 l 0,-137 c 0,-15 -12,-26 -27,-26 H 328 L 324,274 444,5 Z" />
</svg>