<?xml version="1.0" encoding="UTF-8" standalone="no"?>
<svg xmlns="http://www.w3.org/2000/svg" width="580" height="580" version="1.0">
  <metadata id="metadata3003" />
  <path d="M 276,4 276,125 237,125 c -52,0 -93,40 -93,90 l 0,155 c 0,50 41,90 93,89 l 102,0 c 52,0 93,-40 93,-90 l 0,-155 c 0,-50 -41,-90 -93,-90 l -39,0 0,-121 z" />
  <path opacity="0.7" fill="#ffffff" d="m 339,148 c 38,0 69,31 69,69 l 0,54 c 0,38 -31,69 -69,69 l -102,0 c -38,0 -69,-31 -69,-69 l 0,-54 c 0,-38 31,-69 69,-69 z" />
</svg>