<?xml version="1.0" encoding="UTF-8" standalone="no"?>
<svg xmlns="http://www.w3.org/2000/svg" xmlns:xlink="http://www.w3.org/1999/xlink" width="600" height="600" version="1.0">
  <defs>
    <g id="icon">
      <path fill="#000000" fill-opacity="0.1" d="m 197.1,132.6 c 0,3.9 -1.9,5.8 -5.7,5.8 h -20.1 c -3.8,0 -5.7,-1.9 -5.7,-5.8 v -9.6 c 0,-3.8 1.9,-5.6 5.7,-5.6 h 20.1 c 3.8,0 5.7,1.9 5.7,5.6 z M 140,132.7 c 0,3.8 -1.9,5.6 -5.8,5.6 H 90.9 c -3.8,0 -5.6,-1.9 -5.6,-5.6 v -9.7 c 0,-3.8 1.9,-5.6 5.6,-5.6 h 43.3 c 3.9,0 5.8,1.9 5.8,5.6 z m 88.8,45.5 h -14.6 v -50.5 c 0,-7.8 -2.7,-14.4 -8.2,-19.8 -5.5,-5.3 -12.1,-8.2 -19.8,-8.2 H 91.7 c -7.8,0 -14.4,2.7 -19.8,8.2 -5.3,5.3 -8.2,11.9 -8.2,19.8 v 35.8 c 0,5.6 2,10.5 6.1,14.6 4.1,4.1 8.9,6.1 14.6,6.1 h 32.6 c 0.5,-5.8 2.7,-10.7 6.9,-14.7 4.2,-4.1 9.3,-6.1 15.2,-6.1 5.8,0 10.8,2 15,6.1 4.2,4.1 6.6,8.9 6.7,14.6 h 73.6 c 0,-3.8 -1.9,-5.6 -5.6,-5.6 z m -89.7,14.1 c -1.9,0 -3.4,-0.6 -4.9,-2 -1.4,-1.4 -2,-3 -2,-4.9 0,-2 0.6,-3.6 2,-5 1.4,-1.3 3,-1.9 4.9,-1.9 1.9,0 3.4,0.6 4.9,1.9 1.4,1.2 2,3 2,5 0,1.9 -0.6,3.4 -2,4.9 -1.4,1.4 -3,2 -4.9,2 z m 0,-22.9 c -4.4,0 -8.2,1.6 -11.3,4.7 -3.1,3.1 -4.7,6.9 -4.7,11.3 0,4.4 1.6,8 4.7,11.1 3.1,3.1 6.9,4.7 11.3,4.7 4.2,0 8,-1.6 11.1,-4.7 3.1,-3.1 4.7,-6.8 4.7,-11.1 0,-4.4 -1.6,-8.2 -4.7,-11.3 -3.1,-3.1 -6.7,-4.7 -11.1,-4.7 z" />
    </g>
  </defs>
  <use xlink:href="#icon" />
  <use xlink:href="#icon" transform="translate(300,300)" />
</svg>