<?xml version="1.0" encoding="UTF-8" standalone="no"?>
<svg xmlns="http://www.w3.org/2000/svg" xmlns:xlink="http://www.w3.org/1999/xlink" width="600" height="600" version="1.0">
  <defs>
    <g id="icon" fill="#EBE292">
      <path d="m 120,83 c -7,8 -10,22 -3,31 5,6 11,12 17,18 9,-8 9,-22 3,-32 -5,-6 -11,-11 -16,-17 z" />
      <path d="m 120,127 c -8,9 -10,23 -2,32 5,6 11,11 16,17 9,-8 9,-22 3,-32 -5,-6 -11,-11 -16,-17 z" />
      <path d="m 120,171 c -7,8 -10,22 -3,31 5,6 11,12 17,18 9,-8 9,-22 3,-32 -5,-6 -11,-11 -16,-17 z" />
      <path d="m 166,220 c -7,-8 -10,-22 -3,-31 5,-6 11,-12 17,-18 9,8 9,22 3,32 -5,6 -11,11 -16,17 z" />
      <path d="m 166,176 c -8,-9 -10,-23 -2,-32 5,-6 11,-11 16,-17 9,8 9,22 3,32 -5,6 -11,11 -16,17 z" />
      <path d="m 166,132 c -7,-8 -10,-22 -3,-31 5,-6 11,-12 17,-18 9,8 9,22 3,32 -5,6 -11,11 -16,17 z" />
      <path d="m 150,50 c -11,6 -15,15 -15,24 -0,10 4,19 15,26 11,-6 15,-16 15,-26 -0,-9 -5,-19 -15,-24 z" />
      <path stroke="#EBE292" stroke-width="7" stroke-linecap="round" d="m 150,114 0,150" />
    </g>
  </defs>
  <use xlink:href="#icon" />
  <use xlink:href="#icon" transform="translate(300,300)" />
</svg>