<?xml version="1.0" encoding="UTF-8" standalone="no"?>
<svg xmlns="http://www.w3.org/2000/svg" width="580" height="580" version="1.0" fill="#B7D886">
  <path d="m 69,54 c -27,6 -37,48 -15,66 12,14 22,2 26,-9 C 95,94 100,76 80,59 77,57 73,54 69,54 Z" />
  <path d="m 147,63 c 6,40 56,-14 16,-19 C 153,44 145,53 147,63 Z" />
  <path d="M 22,188 C 6,202 25,251 47,233 69,208 51,185 22,188 Z" />
  <path d="m 154,157 c 1,-29 50,-44 47,-5 8,24 -16,64 -38,35 -6,-8 -10,-19 -10,-30 z" />
  <path d="m 273,70 c -20,22 11,45 27,19 C 326,69 288,55 273,70 Z" />
  <path d="m 363,47 c -20,26 29,36 27,7 C 387,44 370,39 363,47 Z" />
  <path d="m 389,107 c 6,-32 43,-28 48,2 13,27 -39,55 -46,19 -2,-7 -3,-14 -1,-21 z" />
  <path d="m 508,81 c -0,-32 44,-36 43,-2 2,28 -44,32 -43,2 z" />
  <path d="m 494,209 c 18,-36 53,21 14,25 -12,1 -16,-16 -14,-25 z" />
  <path d="m 316,194 c 4,-30 52,-22 46,7 -4,31 -45,18 -46,-7 z" />
  <path d="m 132,242 c -32,3 -26,62 8,41 C 160,273 155,242 132,242 Z" />
  <path d="m 273,241 c -18,34 49,36 36,2 -8,-12 -27,-11 -36,-2 z" />
  <path d="m 393,261 c -21,24 30,56 28,17 1,-16 -15,-27 -28,-17 z" />
  <path d="m 77,315 c -37,6 -20,47 10,48 C 110,371 97,348 92,339 89,327 94,312 77,315 Z" />
  <path d="m 157,387 c -2,-41 67,-27 46,8 C 191,413 162,407 157,387 Z" />
  <path d="m 288,343 c -12,32 40,14 49,-1 7,-31 -44,-36 -47,-3 z" />
  <path d="M 47,452 C 34,478 69,494 83,469 108,445 59,436 47,452 Z" />
  <path d="m 263,447 c -12,-32 54,-45 41,-8 -7,13 -31,22 -41,8 z" />
  <path d="m 167,489 c -20,22 22,56 33,23 C 209,492 183,472 167,489 Z" />
  <path d="m 46,547 c 7,-33 58,-12 37,13 C 70,571 31,574 46,547 Z" />
  <path d="m 306,541 c 1,28 33,18 29,-7 -0,-20 -31,-9 -29,7 z" />
  <path d="m 415,507 c 2,-34 54,-19 35,9 -9,17 -34,8 -35,-9 z" />
  <path d="m 528,539 c 5,-26 52,-20 35,8 -9,20 -37,13 -35,-8 z" />
  <path d="m 527,342 c -16,-25 44,-45 27,-8 -4,10 -19,15 -27,8 z" />
  <path d="m 416,381 c -6,22 28,53 39,21 C 470,375 432,362 416,381 Z" />
</svg>