<?xml version="1.0" encoding="UTF-8" standalone="no"?>
<svg xmlns="http://www.w3.org/2000/svg" width="580" height="580" version="1.0" fill="#c3fafa">
  <path d="m 371,63 1,19 89,16 -5,-16 z" />
  <path d="m 200,152 0,15 58,16 1,-17 z" />
  <path d="m 57,99 4,17 85,19 -6,-19 z" />
  <path d="m 100,423 4,15 64,-13 -8,-15 z" />
  <path d="m 253,408 4,20 17,-11 73,-5 -1,-21 -70,8 z" />
  <path d="m 438,378 10,17 100,-16 -11,-20 z" />
  <path d="M 580 82 L 511 72 L 511 72 L 512 90 L 580 100 " />
  <path d="M 0,100 20,102 19,84 9e-4,82" />
</svg>