<?xml version="1.0" encoding="UTF-8" standalone="no"?>
<svg xmlns="http://www.w3.org/2000/svg" xmlns:xlink="http://www.w3.org/1999/xlink" width="600" height="600" version="1.0">
  <defs>
    <g id="icon">
      <path fill="#000000" fill-opacity="0.1" d="m 145.7,85 c -1.5,2.1 -1.2,3.8 0.9,5.4 2.1,1.4 3.8,0.9 5.4,-0.9 l 3.5,-5.1 53.1,35.2 -43.6,7.8 c -1.5,0.4 -2.9,1.2 -3.8,2.4 -0.9,1.4 -1.2,2.7 -0.8,4.2 l 9.4,36.8 -30.9,45.9 c -0.6,0.9 -0.8,2.1 -0.8,3.3 0,1.8 0.6,3.5 2,4.8 1.4,1.4 2.9,2 4.8,2 2.3,0 4.4,-1.2 5.7,-3.5 l 32,-48.6 1.8,6.6 -4.8,36.1 c -0.2,1.8 0.2,3.5 1.2,4.8 0.9,1.5 2.4,2.3 4.2,2.7 1.8,0.4 3.5,0 5,-1.2 1.5,-1.2 2.6,-2.4 2.7,-4.4 l 5,-37.1 c 0.2,-1.4 0,-2.6 -0.3,-4.1 l -10.9,-43.6 28.7,-5.1 c 1.5,-0.2 2.7,-0.9 3.6,-2.3 0.9,-1.4 1.4,-2.7 0.9,-4.2 -0.5,-1.5 -1.2,-2.7 -2.6,-3.8 L 151.7,76.4 Z M 79.1,223.4 h 9.7 V 120.5 L 136.2,101.3 88.8,83.5 V 79.9 H 79.1 c -0.2,48 0,95.8 0,143.8 z m 76.2,-118.6 c -2.1,2.1 -3.3,4.8 -3.3,7.8 0,3 1.2,5.7 3.3,7.7 2.1,2.1 4.8,3.3 7.8,3.3 3,0 5.7,-1.2 7.8,-3.3 2.3,-2.1 3.3,-4.8 3.3,-7.7 0,-3 -1.2,-5.7 -3.3,-7.8 -2.3,-2.1 -4.8,-3.3 -7.8,-3.3 -3,0 -5.7,1.2 -7.8,3.3 z" />
    </g>
  </defs>
  <use xlink:href="#icon" />
  <use xlink:href="#icon" transform="translate(300,300)" />
</svg>