<?xml version="1.0" encoding="UTF-8" standalone="no"?>
<svg xmlns="http://www.w3.org/2000/svg" width="580" height="580" version="1.0" fill="#B3D584">
  <path d="m 498,43 c 10,-1 27,-9 27,-20 C 524,13 513,11 505,7 496,3 483,-2 477,5 c -6,7 -1,17 4,26 4,9 7,14 17,13 z" />
  <path d="M 65,78 C 46,86 43,93 40,102 c -3,9 -5,5 3,18 8,13 31,28 49,31 18,3 32,6 44,-2 12,-8 16,-20 19,-34 3,-14 7,-19 -11,-34 C 126,67 84,70 65,78 Z" />
  <path d="m 246,73 c -6,6 -3,24 1,32 4,8 6,10 16,9 10,-1 25,-9 24,-20 -1,-11 -16,-19 -24,-22 -8,-3 -11,-5 -17,1 z" />
  <path d="m 180,193 c -8,3 -20,13 -24,21 -4,8 -5,13 1,23 6,10 30,22 41,20 11,-2 14,-6 16,-18 2,-12 -8,-41 -17,-47 -9,-6 -9,-2 -17,1 z" />
  <path d="m 40,281 c -4,4 -5,13 -2,21 3,8 12,22 22,22 10,-0 20,-10 20,-21 C 79,292 61,282 53,279 45,277 44,277 40,281 Z" />
  <path d="m 321,240 c -4,5 -6,18 -2,25 4,7 13,13 21,12 8,-1 18,-7 18,-17 0,-10 -15,-22 -23,-24 -8,-2 -10,-1 -14,4 z" />
  <path d="m 377,162 c 1,17 33,55 48,54 15,-1 6,-14 13,-18 7,-4 16,0 26,-4 10,-4 18,-8 23,-22 5,-14 5,-31 -7,-47 -12,-16 -30,-31 -48,-32 -18,-1 -29,5 -36,16 -7,11 0,17 -3,28 -3,11 -17,8 -16,25 z" />
  <path d="m 326,315 c -6,4 -18,10 -22,19 -4,9 -7,22 -2,31 5,8 16,10 27,11 11,1 23,-0 30,-11 7,-11 7,-29 2,-38 -5,-9 -13,-16 -20,-17 -7,-1 -8,1 -15,5 z" />
  <path d="m 462,311 c -4,-21 6,-35 20,-40 13,-5 23,-10 31,-5 8,5 15,15 19,25 4,10 10,19 7,31 -3,12 -11,32 -30,33 -19,1 -43,-23 -47,-44 z" />
  <path d="m 164,376 c 10,5 16,7 15,21 -1,14 -20,43 -40,44 -20,1 -40,-26 -40,-42 0,-16 12,-15 24,-20 12,-5 30,-8 41,-3 z" />
  <path d="m 55,444 c -6,5 -5,22 0,31 5,9 16,18 25,15 9,-3 13,-14 11,-23 -2,-9 -13,-17 -20,-20 -7,-3 -10,-8 -16,-3 z" />
  <path d="m 212,416 c -0,10 18,30 27,29 9,-1 7,-6 9,-13 2,-7 3,-22 -2,-28 -5,-6 -14,-5 -20,-3 -6,2 -14,5 -14,15 z" />
  <path d="m 280,480 c -11,11 -26,30 -24,44 2,14 13,18 25,26 12,8 30,19 45,16 15,-3 25,-14 31,-27 6,-13 4,-32 -4,-47 -8,-15 -23,-30 -38,-31 -15,-1 -24,8 -35,19 z" />
  <path d="m 498,445 c -12,6 -24,21 -21,33 3,12 5,22 16,25 11,3 27,9 37,-4 10,-13 8,-43 -2,-52 -10,-9 -18,-8 -30,-2 z" />
</svg>