<?xml version="1.0" encoding="UTF-8" standalone="no"?>
<svg xmlns="http://www.w3.org/2000/svg" xmlns:xlink="http://www.w3.org/1999/xlink" width="600" height="600" version="1.0" fill="#C2E68E">
  <path d="m 188,133 c 12,9 15,27 7,40 -7,13 -24,20 -38,14 -3,0 -0,9 -1,12 1,10 2,19 5,29 -7,0 -13,0 -20,0 0,-12 0,-25 1,-37 -15,6 -35,-1 -40,-17 -3,-9 1,-19 9,-25 -5,-13 -1,-29 11,-36 -0,-14 5,-30 19,-37 10,-5 21,1 27,9 2,5 5,7 11,8 14,7 16,26 10,39 z" />
  <path d="m 518,510 c -19,-3 -39,-9 -56,-10 v 27 h -22 v -27 c -19,1 -37,7 -56,10 18,-15 38,-34 46,-54 -4,-7 -23,3 -26,-2 13,-12 27,-27 36,-43 -2,-6 -12,2 -20,-1 11,-11 23,-26 31,-39 10,14 23,29 34,40 -2,4 -16,-6 -21,-3 -1,8 28,39 36,46 -6,3 -16,-3 -23,-2 -10,0 0,12 2,16 10,16 24,29 39,41 z" />
</svg>
