<?xml version="1.0" encoding="UTF-8" standalone="no"?>
<svg xmlns="http://www.w3.org/2000/svg" xmlns:xlink="http://www.w3.org/1999/xlink" width="600" height="600" version="1.0">
  <defs>
    <g id="icon" >
      <path fill="#C2E68E" d="m 160,228 c 7,-25 12,-52 9,-78 -1,-10 -5,-21 -11,-29 -2,7 -10,-1 -11,5 -7,10 -14,21 -20,31 -5,-10 -6,-23 2,-33 3,-6 12,-7 12,-12 -2,-1 -5,1 -7,1 -12,2 -24,5 -36,7 3,-12 13,-22 26,-22 9,-1 18,2 25,7 1,-3 -1,-8 0,-12 1,-12 8,-23 20,-27 3,0 13,-4 12,0 -7,12 -14,23 -21,35 13,-3 29,-2 37,10 3,4 6,12 5,15 -10,-4 -20,-8 -29,-12 -1,4 -8,4 -2,8 12,20 14,44 15,67 0,13 0,27 -3,40 -8,10 -21,2 -23,-1 z" />
    </g>
  </defs>
  <use xlink:href="#icon" />
  <use xlink:href="#icon" transform="translate(300,300)" />
</svg>