<?xml version="1.0" encoding="UTF-8" standalone="no"?>
<svg xmlns="http://www.w3.org/2000/svg" xmlns:xlink="http://www.w3.org/1999/xlink" width="600" height="600" version="1.0">
  <defs>
    <g id="icon" >
      <path fill="#C2E68E" d="m 188,133 c 12,9 15,27 7,40 -7,13 -24,20 -38,14 -3,0 -0,9 -1,12 1,10 2,19 5,29 -7,0 -13,0 -20,0 0,-12 0,-25 1,-37 -15,6 -35,-1 -40,-17 -3,-9 1,-19 9,-25 -5,-13 -1,-29 11,-36 -0,-14 5,-30 19,-37 10,-5 21,1 27,9 2,5 5,7 11,8 14,7 16,26 10,39 z" />
    </g>
  </defs>
  <use xlink:href="#icon" />
  <use xlink:href="#icon" transform="translate(300,300)" />
</svg>
