<?xml version="1.0" encoding="UTF-8" standalone="no"?>
<svg xmlns="http://www.w3.org/2000/svg" xmlns:xlink="http://www.w3.org/1999/xlink" width="600" height="600" version="1.0">
  <defs>
    <g id="icon" >
      <path fill="#C2E68E" d="m 218,211 c -19,-3 -39,-9 -56,-10 v 27 H 140 V 201 c -19,1 -37,7 -56,10 18,-15 38,-34 46,-54 -4,-7 -23,3 -26,-2 13,-12 27,-27 36,-43 -2,-6 -12,2 -20,-1 11,-11 23,-26 31,-39 10,14 23,29 34,40 -2,4 -16,-6 -21,-3 -1,8 28,39 36,46 -6,3 -16,-3 -23,-2 -10,0 0,12 2,16 10,16 24,29 39,41 z" />
    </g>
  </defs>
  <use xlink:href="#icon" />
  <use xlink:href="#icon" transform="translate(300,300)" />
</svg>
