<?xml version="1.0" encoding="UTF-8" standalone="no"?>
<svg xmlns="http://www.w3.org/2000/svg" xmlns:xlink="http://www.w3.org/1999/xlink" width="600" height="600" version="1.0">
  <defs>
    <g id="icon" fill="#000000" opacity="0.1">
      <path d="m 140,81 c -15,9 -13,14 -24,17 -15,8 -20,29 -14,44 -9,7 -14,19 -11,30 6,19 30,28 48,20 -1,15 -1,30 -1,45 h 24 c -3,-12 -5,-23 -6,-35 1,-4 -3,-15 1,-15 17,7 37,-1 46,-16 10,-16 6,-38 -9,-50 8,-15 -7,-25 -14,-31 -5,-6 -8,-9 -15,-10 -10,0 -17,-2 -25,1 z m 31,17 c 5,0 9,4 9,9 0,5 -4,9 -9,9 -5,0 -9,-4 -9,-9 0,-5 4,-9 9,-9 z m -44,16 c 5,0 9,4 9,9 0,5 -4,9 -9,9 -5,0 -9,-4 -9,-9 0,-5 4,-9 9,-9 z m 32,14 c 5,0 9,4 9,9 0,5 -4,9 -9,9 -5,0 -9,-4 -9,-9 0,-5 4,-9 9,-9 z m 21,26 c 5,0 9,4 9,9 0,5 -4,9 -9,9 -5,0 -9,-4 -9,-9 0,-5 4,-9 9,-9 z m -57,4 c 5,0 9,4 9,9 0,5 -4,9 -9,9 -5,0 -9,-4 -9,-9 0,-5 4,-9 9,-9 z" />
    </g>
  </defs>
  <use xlink:href="#icon" />
  <use xlink:href="#icon" transform="translate(300,300)" />
</svg>