<?xml version="1.0" encoding="UTF-8" standalone="no"?>
<svg xmlns="http://www.w3.org/2000/svg" xmlns:xlink="http://www.w3.org/1999/xlink" width="600" height="600" version="1.0">
  <defs>
    <g id="icon" fill="#FFFFFF" opacity="0.3" stroke="#FFFFFF" stroke-width="1" stroke-linejoin="round">
      <path d="m 178.8,76.6 c -0.7,0 -1.6,0.3 -2.2,0.7 l -16.2,14.3 c -1.3,1.2 -1.5,3.2 -0.2,4.6 L 180,115.8 c -7.5,8.1 -15,16.2 -22.7,24.3 -1.2,1.3 -1.2,3.2 0.2,4.4 1.9,1.8 3.8,3.5 5.6,5.3 1.3,1.2 3.4,1.2 4.6,-0.2 7.7,-8.5 15.3,-17.1 23,-25.6 0.9,0.6 2.1,1.5 3.4,2.6 1.3,1.2 2.7,2.4 3.7,3.4 1,1 1.9,2.1 1.8,1.9 0.3,0.4 0.6,0.9 1.2,1 L 227.3,147 c 3.2,1.6 6.2,-2.5 3.7,-5 0,0 0,0.1 0,0 -0.2,-0.2 -0.3,-0.4 -0.4,-0.9 -0.4,-0.9 -1,-2.1 -1.6,-3.4 -1.3,-3 -3.1,-6.6 -4.7,-10.5 -1.8,-3.8 -3.4,-7.6 -4.9,-10.8 -0.7,-1.5 -1.3,-2.8 -1.9,-3.8 -0.3,-0.6 -0.6,-1 -0.9,-1.5 -0.3,-0.4 -0.3,-0.8 -1,-1.3 v 0 c -2.2,-1.9 -4.7,-4.3 -7.4,-6.6 l 3.2,-3.1 c 1.3,-1.3 1.2,-3.5 -0.1,-4.7 l -4.4,-3.7 c -1.2,-1 -3.1,-0.9 -4.3,0.1 l -3.2,3.2 c -6.9,-6.3 -13.8,-13 -18.3,-17.8 -0.6,-0.6 -1.5,-0.9 -2.2,-1 z m -42.7,87.8 c -0.9,0 -1.6,0.4 -2.2,1 -1.3,1.5 -2.6,2.8 -4,4.3 l -38.9,41.6 c -1.2,1.3 -1.2,3.2 0.1,4.4 l 7.5,6.8 c 1.3,1.2 3.2,1 4.4,-0.3 l 37.7,-42.4 v 0 c 1.3,-1.5 2.5,-2.8 3.7,-4.1 1.2,-1.3 1,-3.2 -0.2,-4.4 -2.1,-2.1 -4.1,-4 -6.2,-6 -0.6,-0.6 -1.5,-0.9 -2.4,-0.9 z" />
      <path d="m 126.7,76.1 c -0.6,0 -1.3,0.1 -1.9,0.6 -11,7.8 -22.6,15.2 -32.6,25 0,0 0,0 0,0 -9.4,9.6 -15.5,21.4 -22.8,31.4 -1,1.5 -0.7,3.4 0.7,4.4 l 16.6,12.1 c 1.5,1 3.4,0.7 4.4,-0.7 l 16.8,-24.2 c 0.3,0.4 0.7,0.9 1.5,1.5 v 0 c 18.1,18 36,36.2 54.1,54.4 v 0 l 40.1,40.4 c 1.2,1.2 3.2,1.2 4.4,0 l 7.1,-7.2 c 1.2,-1.2 1.2,-3.2 0,-4.4 l -41.1,-39.3 v 0 c -18.3,-18 -36.8,-35.5 -55.2,-53.3 h 0.1 c -0.6,-0.6 -1.2,-1 -1.6,-1.3 L 141,98.1 c 1.5,-1 1.8,-3.1 0.7,-4.4 L 129.2,77.3 c -0.6,-0.7 -1.5,-1.2 -2.5,-1.2 z" />
    </g>
  </defs>
  <use xlink:href="#icon" />
  <use xlink:href="#icon" transform="translate(300,300)" />
</svg>