<?xml version="1.0" encoding="UTF-8" standalone="no"?>
<svg xmlns="http://www.w3.org/2000/svg" width="580" height="580" version="1.0" fill="#D7D2B2">
  <path d="m 188,580 -85,-23 -30,0 0,0 L 104,580" />
  <path d="M 104 0 L 104 0 L 159 11 L 188 22 L 204 50 L 222 53 L 241 34 L 234 23 L 208 25 L 188 0 L 188 0 " />
  <path d="m 318,21 12,11 14,-9 7,15 L 371,12 358,0 Z" />
  <path d="M 464,47 514,0 536,0 496,36 Z" />
  <path d="M 28,53 19,79 51,90 49,62 Z" />
  <path d="m 270,121 63,-48 14,0 -46,46 -29,10 z" />
  <path d="m 405,59 23,30 16,0 56,59 17,-18 -54,-34 -2,-13 -31,-28 z" />
  <path d="M 580 372 L 499 458 L 473 498 L 461 481 L 463 463 L 463 463 L 523 412 L 580 358 " />
  <path d="m 0,336 0,0 25,0 12,12 -33,19 -4,5" />
  <path d="M 580 358 L 580 358 L 580 336 " />
  <path d="M 580 543 L 562 543 L 551 526 L 542 539 L 542 539 L 580 580 " />
  <path d="M 580 528 L 580 543 L 580 543 " />
  <path d="m 0,580 0,0 13,-26 19,-2 L 14,527 0,528 l 0,0" />
  <path d="M 11,168 34,142 36,126 59,99 100,73 93,92 54,141 53,157 Z" />
  <path d="m 0,187 27,19 10,35 L 20,257 11,245 0,215 Z" />
  <path d="m 30,497 39,-31 36,-30 13,1 -3,18 -13,-1 -14,13 1,16 -54,24 z" />
  <path d="m 214,416 43,42 -2,12 -54,-54 z" />
  <path d="m 214,416 43,42 -2,12 -54,-54 z" />
  <path d="m 454,309 0,10 18,0 -1,-9 z" />
  <path d="m 455,416 1,17 9,0 0,-15 z" />
  <path d="m 529,504 12,-14 21,-1 -2,15 -14,11 z" />
  <path d="m 290,267 10,-21 43,-40 -27,46 10,20 z" />
  <path d="m 179,544 49,-23 7,-26 31,-15 23,0 -17,19 -3,16 -10,-12 -47,51 -22,1 -10,7 z" />
  <path d="m 189,350 57,-56 -1,-14 18,-10 1,20 12,5 -15,3 -9,14 1,15 -25,3 -14,29 -10,10 z" />
  <path d="m 289,385 50,52 11,0 65,62 21,-2 0,-20 -22,-1 -30,-27 -3,-18 -34,-5 -5,-18 -15,-2 z" />
  <path d="m 380,525 22,24 17,6 L 407,580 l 20,-14 2,-23 -24,-3 z" />
  <path d="m 170,127 48,49 -1,19 26,-4 -1,17 28,33 -38,-14 -37,20 -2,-21 15,-11 14,0 -58,-66 z" />
  <path d="m 343,177 10,18 16,2 28,34 8,-14 12,22 -2,-31 -21,-12 -33,-22 z" />
  <path d="m 44,268 3,26 16,17 35,15 1,17 32,16 -2,19 30,0 -18,-22 17,-8 -40,-16 -21,-35 -24,0 -13,-29 z" />
  <path d="m 463,274 19,-14 19,-28 30,3 -15,25 -24,4 -15,28 -14,-3 z" />
  <path d="m 381,367 31,-32 29,-2 -35,33 2,17 z" />
  <path d="m 399,422 15,-18 21,15 5,20 -22,-5 -2,-14 z" />
</svg>