<?xml version="1.0" encoding="UTF-8" standalone="no"?>
<svg xmlns="http://www.w3.org/2000/svg" width="580" height="580" version="1.0" fill="#D7D1B0">
  <path d="m 553,0 0,35 27,0 L 580,0 Z" />
  <path d="M 560,52 561,90 537,91 525,76 538,55 Z" />
  <path d="m 488,27 1,28 15,8 21,-12 -1,-24 z" />
  <path d="m 416,0 -1,22 14,17 17,-1 L 454,0 Z" />
  <path d="m 463,69 0,26 12,11 13,-1 1,-35 z" />
  <path d="M 555,99 535,119 556,144 580,122 Z" />
  <path d="m 524,146 c 0,8 -6,15 -14,15 -8,0 -14,-7 -14,-15 0,-8 6,-15 14,-15 8,0 14,7 14,15 z" />
  <path d="m 88,324 c -2e-6,9 -6,21 -17,21 -11,0 -20,-8 -20,-17 -5e-6,-9 9,-17 20,-17 11,0 17,4 17,13 z" />
  <path d="m 381,218 c 0,9 -8,17 -17,17 -9,0 -17,-8 -17,-17 0,-9 8,-17 17,-17 9,0 17,8 17,17 z" />
  <path d="m 45,481 c -1,9 -7,16 -15,16 -9,0 -15,-7 -15,-16 -3e-6,-9 7,-13 15,-16 12,-4 18,-3 15,16 z" />
  <path d="m 481,485 c -2,10 -8,19 -17,19 -9,0 -17,-8 -17,-19 0,-10 8,-15 17,-19 16,-7 21,2 17,19 z" />
  <path d="m 500,264 c 0,7 -8,13 -17,13 -9,0 -13,-7 -17,-13 -6,-10 -1,-20 13,-18 9,1 21,11 21,18 z" />
  <path d="m 284,65 c 0,10 -7,25 -16,25 -9,-2e-6 -18,-15 -18,-25 0,-10 8,-18 17,-18 9,2e-6 17,8 17,18 z" />
  <path d="m 316,69 32,0 0,27 -32,0 z" />
  <path d="m 365,18 19,0 0,26 -19,0 z" />
  <path d="m 552,195 28,0 0,24 -28,0 z" />
  <path d="m 491,553 37,0 0,27 -37,0 z" />
  <path d="m 118,487 31,0 0,20 -31,0 z" />
  <path d="m 237,197 26,0 0,43 -26,0 z" />
  <path d="m 22,97 21,0 0,31 -21,0 z" />
  <path d="m 199,17 36,0 0,25 -36,0 z" />
  <path d="m 0,551 25,0 0,29 -25,0 z" />
  <path d="m 93,70 0,40 24,-12 -2,-28 z" />
  <path d="m 480,188 c -1,9 -7,17 -16,17 -9,0 -16,-8 -16,-17 0,-9 7,-17 16,-17 9,0 19,-3 16,17 z" />
  <path d="m 235,533 0,29 22,-1 z" />
  <path d="m 536,434 -3,29 -14,-4 z" />
  <path d="m 552,524 -26,12 27,16 z" />
  <path d="m 462,525 15,18 13,-18 z" />
  <path d="m 406,506 3,26 20,3 z" />
  <path d="m 509,354 27,29 15,-21 1,-28 -34,1 z" />
  <path d="m 455,366 8,-25 26,-1 -1,41 z" />
  <path d="m 527,246 0,24 13,10 17,-9 0,-26 z" />
  <path d="m 407,96 4,30 19,10 11,-15 -12,-25 z" />
  <path d="m 290,20 2,22 11,12 20,-19 -10,-15 z" />
  <path d="m 145,0 0,21 L 163,36 170,0 Z" />
  <path d="m 169,67 19,13 9,-19 -4,-14 -21,-8 z" />
  <path d="m 99,18 2,29 14,7 17,-21 -10,-15 z" />
  <path d="M 73,26 72,50 57,63 33,43 49,24 Z" />
  <path d="M 28,172 26,198 10,194 Z" />
  <path d="m 72,163 0,24 23,0 L 107,175 94,161 Z" />
  <path d="m 119,144 25,0 0,17 -25,0 z" />
  <path d="m 65,570 33,-17 0,27 z" />
  <path d="m 29,530 24,22 24,-2 -8,-43 -20,-1 z" />
  <path d="m 54,436 12,35 23,-17 -1,-20 z" />
  <path d="m 44,363 -4,24 -20,12 0,-38 z" />
  <path d="m 0,284 0,42 27,-14 -2,-22 z" />
  <path d="m 52,233 -37,15 29,25 7,-14 z" />
  <path d="m 109,219 c 2,-4 13,-23 13,-23 l 20,1 0,35 -22,2 z" />
  <path d="m 104,246 23,2 -5,42 -20,-21 -2,-23 z" />
  <path d="m 187,244 0,35 -18,-13 -3,-20 z" />
  <path d="m 196,275 -2,26 19,4 12,-13 -13,-21 z" />
  <path d="m 192,190 0,24 11,13 14,-14 -2,-22 z" />
  <path d="m 237,127 -1,33 30,-2 -4,-12 z" />
  <path d="m 265,101 0,26 18,10 17,-17 -14,-21 z" />
  <path d="m 165,93 1,33 8,10 14,-12 2,-22 z" />
  <path d="m 125,315 -1,22 15,10 20,-8 3,-23 z" />
  <path d="m 284,271 -15,25 18,11 10,-12 z" />
  <path d="m 284,246 9,-13 21,4 -3,27 -17,-1 z" />
  <path d="m 317,145 7,34 18,-14 -2,-18 z" />
  <path d="m 344,123 14,27 25,-9 -6,-21 z" />
  <path d="m 418,200 -3,35 -12,-12 z" />
  <path d="m 359,273 -12,11 19,21 32,-9 -9,-25 z" />
  <path d="m 419,308 4,23 16,11 11,-16 -9,-17 z" />
  <path d="m 66,394 11,-13 20,1 -1,21 z" />
  <path d="m 126,384 14,13 21,-14 z" />
  <path d="m 194,338 -1,24 34,-13 z" />
  <path d="m 243,338 6,23 17,8 16,-23 -14,-11 z" />
  <path d="m 333,366 6,-22 20,-1 0,36 z" />
  <path d="m 389,346 0,17 28,10 -4,-27 z" />
  <path d="m 201,382 1,21 14,13 20,-12 -1,-22 z" />
  <path d="m 141,415 -16,24 19,13 7,-14 z" />
  <path d="m 174,418 -1,31 20,2 9,-9 -9,-25 z" />
  <path d="m 198,461 8,30 25,-7 -1,-19 z" />
  <path d="m 247,436 0,24 7,8 16,-12 0,-18 z" />
  <path d="m 310,434 0,37 13,1 11,-13 -1,-16 z" />
  <path d="m 261,480 1,23 14,11 19,-19 -10,-15 z" />
  <path d="m 290,388 0,37 13,-2 16,-11 -6,-20 z" />
  <path d="m 129,533 0,26 18,5 13,-8 -3,-20 z" />
  <path d="M 296,555 282,580 l 36,0 -4,-25 z" />
  <path d="M 355,580 369,555 389,557 379,580 Z" />
  <path d="m 317,511 5,17 19,14 9,-18 -11,-16 z" />
  <path d="m 382,454 0,20 13,14 20,-21 -15,-18 z" />
  <path d="m 360,407 1,19 30,-16 z" />
  <path d="m 431,420 10,-11 20,0 -4,20 -9,13 z" />
</svg>
