<?xml version="1.0" encoding="UTF-8" standalone="no"?>
<svg xmlns="http://www.w3.org/2000/svg" width="580" height="580" version="1.0" fill="#B3D584">
  <path d="M 44,85 C 32,122 56,168 95,175 125,172 155,143 157,112 157,84 127,71 127,43 106,26 77,25 61,51 53,61 47,72 44,85 Z" />
  <path d="m 334,45 c -11,23 5,58 -26,68 -20,25 -8,63 20,76 31,21 82,8 95,-28 7,-25 8,-65 -24,-73 -31,-1 -17,-43 -45,-45 -7,-2 -15,-4 -20,2 z" />
  <path d="m 99,279 c -12,31 -25,70 -6,101 20,23 53,20 81,18 52,-9 78,-69 72,-117 -4,-34 -50,1 -53,-38 -7,-27 -38,-56 -58,-22 -15,16 -27,36 -36,56 z" />
  <path d="m 481,210 c -20,23 -30,53 -41,80 -12,23 1,54 28,57 29,1 58,-21 72,-44 11,-30 -8,-54 -23,-77 -1,-21 -16,-37 -35,-17 z" />
  <path d="m 84,471 c -31,19 -39,64 -3,83 23,16 49,-6 55,-29 7,-27 -20,-58 -46,-60 l -2,2 z" />
  <path d="m 329,341 c -27,11 -38,42 -48,68 -17,36 -10,83 23,107 22,19 60,19 79,-6 33,-9 40,-41 27,-69 -9,-34 -30,-63 -57,-86 -7,-6 -13,-15 -23,-14 z" />
  <path d="m 494,559 c -14,-22 -32,-50 -23,-77 17,-25 60,-11 61,19 2,22 -0,63 -29,66 -4,-1 -7,-4 -10,-7 z" />
</svg>