<?xml version="1.0" encoding="UTF-8" standalone="no"?>
<svg xmlns="http://www.w3.org/2000/svg" xmlns:xlink="http://www.w3.org/1999/xlink" version="1.0" width="580" height="580">
  <defs>
    <g id="icon" transform="scale(1,-1) translate(0,-580)">
      <path d="m 361.8,91.8 -44.6,39 c -3.8,3.3 -3.9,9.1 -0.4,12.6 l 54.2,53.6 c -20.6,22.3 -41.2,44.5 -62,66.7 -3.3,3.5 -3.1,9 0.4,12.2 l 15.5,14.5 c 3.6,3.3 9.1,3 12.4,-0.6 20.9,-23.5 41.8,-46.9 62.8,-70.2 8.9,6.1 19,17.8 27.4,24.6 l 73,38.5 c 13.4,0.6 13.1,-9.2 8.9,-16 -6.3,-12.5 -12.4,-26.6 -17.6,-38.2 -7.4,-14.8 -12.7,-30.6 -20.8,-43.7 -6.2,-7.7 -15.8,-15.1 -23.1,-21.6 l 8.8,-8.6 c 3.7,-3.6 3.4,-9.5 -0.4,-12.8 l -11.9,-10.1 c -3.4,-2.9 -8.4,-2.7 -11.6,0.4 l -9.1,8.9 c -19,-17.5 -37.8,-35.5 -50,-48.7 -3.5,-3.3 -8.7,-3.5 -12,-0.6 z M 244.5,332.8 c -38.4,41.1 -78.3,83.8 -117.4,125.6 -3.3,3.5 -3.1,9 0.5,12.3 l 20.5,18.7 c 3.6,3.2 9.1,3 12.3,-0.6 37.7,-42.2 76.6,-86.3 113.8,-127.9 3.1,-3.5 2.9,-8.7 -0.4,-12 -5.6,-5.5 -11.3,-10.9 -17,-16.4 -3.9,-3 -9.1,-3 -12.3,0.3 z" />
      <path d="m 225.2,88.3 c -19.2,8.8 -35.8,23.9 -53.6,35.8 -32.1,22.6 -59.4,51.5 -79.6,85.1 -8.3,13.7 -33.8,32.8 -19.9,48.6 15.7,10.9 30.6,23.4 46.9,33.4 10.8,0.4 13.8,-12.6 20,-19.4 11.6,-16.7 23.2,-33.4 34.8,-50.2 86.8,87.4 174.6,175.6 261.9,263.4 10.3,7.8 17.2,-6.5 24.2,-12.2 8.2,-5.8 14.3,-17.4 3.2,-23.9 C 375.1,364.7 286.7,279.8 199,196 c 21.7,-15.7 43.4,-31.4 65.2,-47 9.3,-9.1 -3.9,-18 -8.5,-25.8 -9.1,-11.2 -16.7,-23.7 -26.8,-33.9 z" />
    </g>
  </defs>
  <use xlink:href="#icon" style="stroke:#ffffff;stroke-width:50;stroke-linejoin:round" />
  <use xlink:href="#icon" style="fill:#734a08" />
</svg>