<?xml version="1.0" encoding="UTF-8" standalone="no"?>
<svg xmlns="http://www.w3.org/2000/svg" xmlns:xlink="http://www.w3.org/1999/xlink" version="1.0" width="580" height="580">
  <defs>
    <g id="icon">
      <path d="m 450,58 c -15,-17 -29,8 -8,12 11,2 8,13 8,21 6,20 -21,-0 -23,-8 -2,-6 5,-22 -5,-20 -12,-4 -8,8 -9,16 -8,-12 -28,-6 -19,5 15,5 10,10 -2,15 4,18 15,7 25,2 9,-1 38,14 15,19 -10,11 -20,2 -29,-4 -12,-1 -11,19 4,19 -15,1 -19,21 -5,19 17,-17 8,5 15,9 12,3 13,-4 11,-14 -6,-13 22,-26 23,-20 -1,8 3,19 -2,24 -7,6 -26,8 -13,20 6,5 20,-12 16,6 -5,10 13,11 14,5 -2,-14 1,-20 14,-8 14,-12 -1,-16 -11,-22 -7,-5 -1,-16 -3,-24 -0,-9 29,7 23,19 -1,10 -1,18 11,14 9,0 -4,-26 11,-12 12,12 21,-14 3,-14 -9,-5 21,-9 5,-19 -5,-5 -15,7 -23,9 -13,-8 -33,-15 -9,-22 9,-10 18,2 28,6 11,-3 9,-18 -5,-20 15,-1 19,-21 5,-19 -17,17 -8,-5 -15,-9 -12,-3 -13,4 -11,14 6,13 -22,26 -23,20 1,-8 -3,-19 2,-24 7,-6 26,-8 13,-20 -6,-5 -20,12 -16,-6 5,-10 -13,-10 -14,-5 0,5 0,11 0,16 z" />
      <path d="m 70,230 c -16,22 24,39 37,26 V 486 c 2,15 20,8 30,10 26,-0 11,-36 15,-53 -0,-68 -0,-137 -0,-205 43,-8 90,-14 131,-17 40,5 80,9 120,15 9,16 1,43 3,64 0,63 -1,126 1,190 7,10 21,4 32,6 16,1 11,-17 12,-27 V 255 c 17,21 60,-10 36,-26 C 419,193 351,157 284,121 272,119 262,130 251,134 191,166 130,198 70,230 Z" />
      <path d="m 302,304 c 43,-1 21,-70 -14,-45 -20,12 -9,46 14,45 z" />
      <path d="m 192,358 c -4,10 18,23 24,14 13,-22 26,-44 38,-67 -6,-15 -28,-19 -32,-1 -10,18 -21,36 -31,53 z" />
      <path d="m 224,379 c -6,17 -2,35 -2,52 -1,13 2,27 -1,39 -8,19 -19,37 -25,57 -5,21 28,29 32,7 9,-20 19,-39 27,-58 1,-16 -0,-32 -0,-49 9,13 20,26 29,40 3,22 5,44 8,67 6,20 40,11 32,-10 -4,-26 -6,-52 -11,-78 -10,-15 -21,-30 -32,-45 8,-14 16,-29 24,-43 7,10 14,20 27,24 8,4 18,6 15,17 0,45 0,90 0,134 7,20 13,-6 10,-15 0,-43 0,-85 0,-128 20,-12 0,-27 -13,-32 -14,-7 -20,-22 -30,-32 -10,-16 -32,-25 -48,-13 -14,15 -22,35 -34,53 -3,5 -5,9 -8,14 z" />
    </g>
  </defs>
  <use xlink:href="#icon" style="stroke:#ffffff;stroke-width:50;stroke-linejoin:round" />
  <use xlink:href="#icon" style="fill:#0092da" />
</svg>