<?xml version="1.0" encoding="UTF-8" standalone="no"?>
<svg xmlns="http://www.w3.org/2000/svg" xmlns:xlink="http://www.w3.org/1999/xlink" version="1.0" width="580" height="580">
  <defs>
    <g id="icon">
      <path d="m 98,255 c -15,20 21,36 34,24 V 488 c 2,13 40,10 41,1 1,-21 -0,-159 -0,-227 39,-7 82,-13 119,-15 36,5 73,8 109,13 8,15 1,39 3,58 0,58 -1,115 1,173 7,9 20,4 30,5 14,0 10,-16 10,-25 V 277 c 15,19 54,-9 32,-24 C 416,221 355,188 294,156 c -11,-2 -21,8 -31,12 z" />
      <path d="m 311,323 c 39,-1 19,-64 -13,-41 -18,11 -8,42 13,41 z" />
      <path d="m 210,372 c -4,9 18,22 23,12 11,-20 24,-39 34,-60 -6,-15 -26,-17 -30,1 -9,16 -18,31 -27,47 z" />
      <path d="m 240,391 c -5,15 -1,31 -2,47 -1,12 2,24 -1,36 -8,17 -17,34 -23,51 -4,19 26,26 29,7 8,-18 17,-35 24,-53 1,-15 -0,-30 -0,-44 9,12 19,24 26,36 2,20 5,40 7,61 7,20 38,8 29,-11 -3,-23 -5,-46 -9,-68 -9,-14 -19,-27 -29,-41 7,-13 15,-26 22,-39 7,9 13,18 24,22 7,3 16,5 13,15 0,41 0,81 0,122 6,19 12,-6 10,-14 0,-39 0,-77 0,-116 18,-11 -0,-25 -13,-30 -12,-6 -18,-19 -27,-29 -8,-14 -26,-23 -41,-14 -13,10 -19,28 -28,41 -4,7 -8,15 -13,22 z" />
      <path d="m 163,114 c 7,36 48,61 83,47 24,-7 33,-36 61,-30 12,-11 23,-26 36,-7 10,-7 19,-17 29,-0 11,-1 22,-20 31,-0 18,-1 44,-31 20,-44 C 405,60 377,70 355,68 330,68 305,68 280,67 263,37 220,25 191,45 169,60 156,88 163,114 Z m 39,-30 c 33,7 0,53 -17,24 -6,-11 5,-26 17,-24 z" />
    </g>
  </defs>
  <use xlink:href="#icon" style="stroke:#ffffff;stroke-width:50;stroke-linejoin:round" />
  <use xlink:href="#icon" style="fill:#0092da" />
</svg>