<?xml version="1.0" encoding="UTF-8" standalone="no"?>
<svg xmlns="http://www.w3.org/2000/svg" xmlns:xlink="http://www.w3.org/1999/xlink" version="1.0" width="580" height="580">
  <defs>
    <g id="icon">
      <path d="m 40,167 c -17,19 20,50 40,31 9,-4 3,16 4,23 V 470 c 2,16 21,10 32,12 27,6 22,-27 22,-45 0,-87 -0,-174 -0,-262 50,-7 107,-14 155,-20 47,6 98,13 145,20 1,98 2,206 2,295 2,16 21,10 32,12 14,3 25,-7 22,-21 V 197 c 20,20 56,0 51,-25 C 526,159 506,151 487,140 422,105 358,70 292,36 280,36 269,46 258,51 185,90 112,128 40,167 Z" />
      <path d="m 317,255 c 17,-1 30,-14 30,-30 -1,-17 -14,-30 -30,-30 -17,1 -29,14 -30,30 1,18 14,30 30,30 z" />
      <path d="m 186,318 c -3,4 -1,10 4,12 5,3 10,6 15,9 4,2 9,-1 10,-5 15,-25 29,-51 44,-76 3,-5 -0,-10 -5,-11 -6,-3 -11,-7 -18,-9 -5,0 -6,5 -9,9 -14,24 -28,48 -42,72 z" />
      <path d="m 224,345 c -6,12 -3,25 -3,38 0,23 1,45 1,68 -10,22 -20,44 -31,66 -6,13 5,30 20,29 12,-0 15,-12 20,-21 10,-21 20,-41 29,-62 2,-12 0,-24 1,-36 -0,-8 -0,-16 -0,-24 11,15 23,31 34,46 3,27 7,54 10,81 5,14 26,19 36,7 7,-9 2,-21 1,-31 -3,-26 -6,-52 -10,-78 -5,-11 -14,-21 -21,-31 -6,-8 -12,-17 -18,-25 10,-17 19,-34 29,-51 6,7 11,16 18,22 10,5 20,10 31,15 0,57 0,114 0,171 -1,12 15,11 12,-1 0,-56 0,-113 0,-169 13,-6 13,-27 -2,-31 -8,-5 -17,-9 -25,-15 -13,-15 -25,-31 -38,-46 -16,-13 -45,-11 -55,10 -13,23 -26,46 -40,70 z" />
    </g>
  </defs>
  <use xlink:href="#icon" style="stroke:#ffffff;stroke-width:50;stroke-linejoin:round" />
  <use xlink:href="#icon" style="fill:#0092da" />
</svg>