<?xml version="1.0" encoding="UTF-8" standalone="no"?>
<svg xmlns="http://www.w3.org/2000/svg" xmlns:xlink="http://www.w3.org/1999/xlink" version="1.0" width="580" height="580">
  <defs>
    <g id="icon">
      <path d="m 96,229 c -26,26 -50,51 -76,77 11,-0 41,0 41,0 V 521 c 0,9 7,16 16,16 145,0 295,0 425,0 9,0 16,-7 16,-16 V 306 c 15,0 27,-0 41,0 -26,-26 -50,-51 -76,-77 -129,0 -258,0 -388,0 z m 6,89 h 62 v 62 h -62 z m 106,0 h 62 v 62 h -62 z m 106,0 h 62 v 62 h -62 z m 106,0 h 62 V 380 H 419 Z M 102,421 h 62 v 62 h -62 z m 106,0 h 62 v 62 h -62 z m 106,0 h 62 v 62 h -62 z m 106,0 h 62 v 62 h -62 z" />
      <path d="m 123,136 c 8,38 48,69 87,62 24,-3 46,-17 59,-38 13,-5 31,4 42,-9 6,-11 21,-23 29,-6 12,17 21,-18 33,-6 6,13 21,13 26,1 14,-13 19,18 33,8 11,-9 22,-20 29,-33 -1,-14 -14,-21 -23,-29 -14,-11 -33,-5 -49,-6 -40,-0 -79,1 -119,-1 -14,-22 -37,-39 -64,-39 -47,-4 -88,41 -84,87 0,4 1,7 2,11 z m 48,-37 c 18,2 25,29 9,38 -15,10 -39,-7 -30,-24 3,-9 12,-15 22,-14 z" />
    </g>
  </defs>
  <use xlink:href="#icon" style="stroke:#ffffff;stroke-width:50;stroke-linejoin:round" />
  <use xlink:href="#icon" style="fill:#0092da" />
</svg>