<?xml version="1.0" encoding="UTF-8" standalone="no"?>
<svg xmlns="http://www.w3.org/2000/svg" xmlns:xlink="http://www.w3.org/1999/xlink" version="1.0" width="580" height="580">
  <defs>
    <g id="icon">
      <path d="m 185,46 35,70 h 35 l -35,70 35,70 -35,70 35,70 -35,70 h 140 l -35,-70 35,-70 -35,-70 35,-70 -35,-70 h 35 L 395,46 Z M 290,150 a 35,35 0 0 1 35,35 A 35,35 0 0 1 290,220 35,35 0 0 1 255,185 35,35 0 0 1 290,150 Z M 290,290 A 35,35 0 0 1 325,325 35,35 0 0 1 290,360 35,35 0 0 1 255,325 35,35 0 0 1 290,290 Z M 150,499 v 35 h 279 v -35 z" />
    </g>
  </defs>
  <use xlink:href="#icon" style="stroke:#ffffff;stroke-width:50;stroke-linejoin:round" />
  <use xlink:href="#icon" style="fill:#734a08" />
</svg>