<?xml version="1.0" encoding="UTF-8" standalone="no"?>
<svg xmlns="http://www.w3.org/2000/svg" xmlns:xlink="http://www.w3.org/1999/xlink" version="1.0" width="580" height="580">
  <defs>
    <g id="icon">
      <path d="m 263,51 c -23,5 -37,26 -48,45 -12,21 -28,40 -47,55 -42,66 -48,137 -40,207 -16,6 -39,-17 -54,2 -14,23 5,47 18,66 11,22 30,28 53,24 109,7 260,17 317,-73 21,-25 57,-35 69,-67 8,-32 -16,-69 -49,-72 -1,-13 21,4 30,-5 32,-8 -8,-31 -17,-43 C 450,146 403,102 354,61 336,40 328,79 334,92 336,113 325,88 321,80 301,60 287,46 263,51 Z m 12,21 c 32,0 36,48 21,61 v 0 c -21,4 -43,-2 -63,-7 14,-19 22,-45 42,-54 z m 206,193 c 26,0 38,29 20,44 -10,8 -32,31 -40,23 -11,-30 -21,-67 20,-67 z M 192,481 c -51,-6 -103,-1 -154,7 l 6,40 c 51,-9 103,-13 155,-6 49,6 99,4 148,-4 59,-7 119,-13 178,-8 l 3,-40 c -66,-6 -137,1 -197,9 -36,13 -109,5 -139,2 z" />
    </g>
  </defs>
  <use xlink:href="#icon" style="stroke:#ffffff;stroke-width:50;stroke-linejoin:round" />
  <use xlink:href="#icon" style="fill:#734a08" />
</svg>