<?xml version="1.0" encoding="UTF-8" standalone="no"?>
<svg xmlns="http://www.w3.org/2000/svg" xmlns:xlink="http://www.w3.org/1999/xlink" version="1.0" width="580" height="580">
  <defs>
    <g id="icon">
      <path d="M 294,19 75,92 H 28 v 74 h 35 v 313 h -9 l -31,51 534,-1 -29,-50 h -9 V 166 h 34 V 92 H 509 Z M 124,166 H 459 V 479 H 124 Z" />
      <path d="m 236,296 c 11,24 -4,30 -19,24 -24,-10 -36,3 -36,23 10,44 48,80 92,86 43,4 87,0 118,-34 44,-65 -13,-145 -93,-156 -41,-11 -81,18 -62,57 z m 37,-41 c 12,0 22,10 22,22 0,12 -10,22 -22,22 -12,0 -22,-10 -22,-22 0,-12 10,-22 22,-22 z m 78,16 c 23,27 -20,56 -34,31 -4,-9 -3,-15 3,-22 7,-10 18,-25 31,-9 z m 25,49 c 42,10 -13,73 -24,29 -2,-14 14,-29 24,-29 z m -133,39 c -3,10 -14,21 -24,21 -11,-1 -17,-20 -15,-27 4,-13 21,-17 32,-10 4,3 7,14 7,16 z m 96,7 c 26,17 -23,52 -30,24 -4,-34 7,-31 30,-24 z m -59,-2 c 22,15 8,15 8,29 -8,17 -20,9 -29,4 -12,-6 -9,-29 -1,-31 10,-6 15,-6 22,-2 z" />
      <path d="m 239,179 c -2,9 -5,20 4,32 l 11,-3 c -1,-5 2,-9 -2,-15 -6,-8 -9,-10 -13,-15 z m 16,30 -12,4 78,239 c 1,4 10,2 9,-2 z" />
      <path d="m 266,181 c -3,8 -8,19 -1,32 l 11,-1 c 0,-5 3,-8 -0,-15 -5,-9 -7,-11 -10,-16 z m 11,32 -12,2 42,244 c 1,4 9,3 9,-1 z" />
    </g>
  </defs>
  <use xlink:href="#icon" style="stroke:#ffffff;stroke-width:50;stroke-linejoin:round" />
  <use xlink:href="#icon" style="fill:#734a08" />
</svg>