<?xml version="1.0" encoding="UTF-8" standalone="no"?>
<svg xmlns="http://www.w3.org/2000/svg" xmlns:xlink="http://www.w3.org/1999/xlink" version="1.0" width="580" height="580">
  <defs>
    <g id="icon">
      <path d="m 424,491 c -11,8 -120,-62 -134,-62 -13,0 -120,71 -130,64 -11,-8 21,-133 17,-146 C 173,335 72,255 76,243 81,230 210,222 221,214 c 11,-8 55,-128 68,-128 13,0 61,121 72,128 11,8 139,13 143,25 4,13 -96,95 -100,108 -4,12 31,136 20,144 z" />
    </g>
  </defs>
  <use xlink:href="#icon" style="stroke:#ffffff;stroke-width:50;stroke-linejoin:round" />
  <use xlink:href="#icon" style="fill:#734a08" />
</svg>