<?xml version="1.0" encoding="UTF-8" standalone="no"?>
<svg xmlns="http://www.w3.org/2000/svg" xmlns:xlink="http://www.w3.org/1999/xlink" version="1.0" width="580" height="580">
  <defs>
    <g id="icon">
      <path opacity="0.5" d="m 112,91 c -12,-0 -20,12 -18,23 0,27 -0,54 0,81 2,11 14,16 24,14 21,-0 42,0 63,-0 1,-20 2,-21 6,-50 55,-0 151,-1 206,-1 5,17 10,29 15,52 19,-0 44,0 63,-0 11,-2 16,-14 14,-24 -0,-26 0,-53 -0,-79 C 484,94 472,90 462,91 H 112" />
      <path d="m 393,146 c -69,1 -201,-1 -208,2 -8,2 -8,9 -14,29 -24,107 -50,213 -74,320 -0,10 10,13 18,12 120,-1 239,-2 359,-3 10,-1 12,-12 8,-20 -26,-111 -52,-222 -78,-333 -2,-4 -6,-7 -10,-7 m -9,23 74,314 -335,3 c 25,-105 49,-210 73,-316 l 188,-1" />
      <path opacity="0.2" d="m 187,159 c -1,8 -79,339 -79,339 l 364,-3 -79,-337 -206,1" />
      <path d="m 276,265 c -9,4 -22,9 -22,21 0,9 19,17 22,11 z m 29,121 c 12,-4 27,-10 29,-24 2,-13 -8,-24 -21,-26 -10,-1 -8,1 -8,8 z m 69,-24 c 1,21 -14,40 -33,49 -11,6 -24,10 -37,13 0,13 1,26 -1,39 -3,13 -25,13 -28,0 -2,-11 0,-23 -1,-35 -20,1 -42,1 -60,-11 -12,-8 -7,-29 8,-31 18,-4 34,10 52,7 v -59 c -20,-2 -43,-6 -56,-23 -11,-17 -3,-40 9,-54 12,-14 29,-24 47,-29 0,-10 -1,-21 1,-31 5,-11 29,-10 31,3 1,8 0,15 0,23 17,2 35,5 49,15 11,7 3,24 -8,27 -14,3 -28,-4 -42,-5 v 41 c 24,1 48,10 59,33 5,9 7,12 10,28 z" />
    </g>
  </defs>
  <use xlink:href="#icon" style="stroke:#ffffff;stroke-width:50;stroke-linejoin:round" />
  <use xlink:href="#icon" style="fill:#ac39ac" />
</svg>