<?xml version="1.0" encoding="UTF-8" standalone="no"?>
<svg xmlns="http://www.w3.org/2000/svg" xmlns:xlink="http://www.w3.org/1999/xlink" version="1.0" width="580" height="580">
  <defs>
    <g id="icon">
      <path fill="#ac39ac" d="M 107,156 C 48,206 38,300 78,365 c 40,73 125,113 206,113 74,-1 148,-29 196,-86 38,-44 58,-105 46,-162 -8,-65 -74,-114 -138,-109 -34,3 -66,16 -93,35 -25,-23 -60,-36 -94,-35 -34,0 -68,14 -94,35 z m 128,54 c -31,38 -55,81 -74,126 -11,29 28,58 52,37 18,-20 24,-48 40,-70 13,-18 26,-49 43,-55 28,32 51,69 66,109 16,27 62,14 61,-17 -3,-27 -18,-51 -31,-75 C 379,243 364,222 347,203 c 24,-13 54,-22 80,-7 20,10 34,30 34,53 8,60 -35,116 -86,142 C 306,424 214,414 158,359 124,327 110,272 134,230 c 13,-25 40,-42 68,-42 13,0 52,6 33,22 z" />
      <path fill="#ffffff" d="m 400,140 c 12,2 16,42 -0,25 0,-7 -11,-22 0,-25 m -160,13 c 20,13 -38,21 -22,1 C 225,152 233,154 240,153 m -103,10 c 9,-0 38,9 19,16 C 150,178 120,173 137,163 m 196,6 c 17,10 -31,37 -19,12 C 321,178 325,171 333,169 m 152,13 c 19,12 -34,22 -24,3 7,-3 16,-1 24,-3 m -382,43 c 19,10 -33,34 -18,11 7,-3 11,-9 18,-11 m 254,18 c 19,11 -36,27 -21,6 7,-1 14,-5 21,-6 m -102,3 c 22,14 -43,14 -18,1 C 243,247 249,246 255,246 m 233,2 c 8,3 35,18 16,22 C 498,267 472,254 488,248 m -116,57 c 9,0 38,8 19,15 C 384,319 354,315 372,305 m -176,5 c 8,2 35,18 16,21 C 207,328 180,316 196,310 m -92,1 c 19,14 -39,20 -22,2 7,-1 15,-1 22,-2 m 383,14 c 19,16 -42,31 -14,8 C 477,330 481,326 487,325 m -361,37 c 11,4 15,43 -1,24 C 125,380 113,363 126,362 m 305,12 c 12,3 9,46 -4,26 C 428,392 421,377 431,374 m -250,42 c 7,4 35,3 22,16 C 196,432 161,426 181,416 m 193,10 c 19,12 -34,22 -24,3 7,-3 16,-1 24,-3 m -111,5 c 8,3 34,18 16,22 C 273,450 246,437 263,431" />
    </g>
  </defs>
  <use xlink:href="#icon" style="stroke:#ffffff;stroke-width:50;stroke-linejoin:round" />
  <use xlink:href="#icon" />
</svg>