<?xml version="1.0" encoding="UTF-8" standalone="no"?>
<svg xmlns="http://www.w3.org/2000/svg" xmlns:xlink="http://www.w3.org/1999/xlink" version="1.0" width="580" height="580">
  <defs>
    <g id="icon">
      <path fill="#ac39ac" d="m 56,236 c -7,8 -1,16 12,16 h 31 c 0,94 -0,189 0,283 3,12 18,7 27,8 116,-0 231,0 347,-0 12,-3 7,-18 8,-27 v -263 c 13,-1 25,-0 40,-1 9,-5 5,-14 -3,-20 C 451,180 311,66 294,58 291,55 286,57 283,58 265,71 124,183 56,236" />
      <path opacity="0.8" fill="#ffffff" d="m 290,80 197,152 c -9,1 -24,-4 -26,9 -0,94 0,188 0,282 h -342 c -0,-94 0,-189 -0,-283 -3,-12 -17,-7 -26,-8 z" />
      <path fill="#ac39ac" d="m 292,135 c -14,0 -28,13 -26,35 -110,22 -106,134 1,159 v 105 c -26,-6 -39,-34 -42,-58 -13,0 -34,3 -44,6 -11,40 58,90 87,89 0,49 43,36 45,1 118,-17 118,-153 1,-173 v -94 c 25,-3 35,32 36,43 14,-2 29,-3 43,-6 -9,-38 -42,-71 -80,-73 2,-23 -10,-34 -21,-34 m -24,69 v 84 c -47,-16 -41,-73 0,-84 m 46,137 c 87,17 36,108 -3,96 l 3,-96" />
    </g>
  </defs>
  <use xlink:href="#icon" style="stroke:#ffffff;stroke-width:50;stroke-linejoin:round" />
  <use xlink:href="#icon" />
</svg>