<?xml version="1.0" encoding="UTF-8" standalone="no"?>
<svg xmlns="http://www.w3.org/2000/svg" xmlns:xlink="http://www.w3.org/1999/xlink" version="1.0" width="580" height="580">
  <defs>
    <g id="icon">
      <path d="m 468,97 c 0,-6 -81,-11 -181,-11 -100,0 -181,5 -181,11 52,51 107,100 160,150 l 0,168 c -34,25 -69,50 -104,75 0,4 56,7 125,7 69,0 125,-3 125,-7 C 376,464 338,437 307,415 l 0,-168 C 371,190 408,154 468,97 Z M 282,218 l -77,-72 c -3,-3 -2,-5 2,-5 l 162,0 c 4,0 5,2 2,5 L 293,218 c -4,3 -8,3 -11,0 z" />
    </g>
  </defs>
  <use xlink:href="#icon" style="stroke:#ffffff;stroke-width:50;stroke-linejoin:round" />
  <use xlink:href="#icon" style="fill:#734a08" />
</svg>