<?xml version="1.0" encoding="UTF-8" standalone="no"?>
<svg xmlns="http://www.w3.org/2000/svg" xmlns:xlink="http://www.w3.org/1999/xlink" version="1.0" width="580" height="580">
  <defs>
    <g id="icon">
      <path d="m 273,125 c 25,27 15,54 5,66 30,3 54,-36 41,-58 C 290,94 291,76 310,57 279,56 263,106 273,125 Z M 183,108 c 17,12 30,36 17,56 -10,17 -24,37 -12,56 12,22 34,20 51,20 -19,-14 -27,-37 -12,-58 C 237,167 247,147 237,130 217,108 206,108 183,108 Z m 163,0 c 17,12 30,36 17,56 -10,17 -24,37 -12,56 14,17 25,14 51,20 -19,-14 -27,-37 -12,-58 10,-15 20,-36 10,-53 -20,-22 -31,-22 -54,-22 z M 144,272 c -11,82 -1,107 77,116 l -72,114 34,21 71,-103 67,1 57,99 38,-18 -63,-111 c 76,-15 92,-29 86,-119 z" />
    </g>
  </defs>
  <use xlink:href="#icon" style="stroke:#ffffff;stroke-width:50;stroke-linejoin:round" />
  <use xlink:href="#icon" style="fill:#734a08" />
</svg>