<?xml version="1.0" encoding="UTF-8" standalone="no"?>
<svg xmlns="http://www.w3.org/2000/svg" version="1.0" width="580" height="580">
  <circle cx="290" cy="290" r="260" style="fill:#39ac39;stroke:#ffffff;stroke-width:25" />
  <g fill="#ffffff">
    <path d="m 131,360 c -11,4 -26,8 -34,9 v 24 c 19,4 36,-15 55,-7 14,7 30,10 44,1 14,-8 30,-6 44,1 20,8 40,-11 60,-4 15,5 32,12 47,3 16,-8 34,-6 50,1 16,7 32,0 47,-5 13,-5 24,10 37,7 5,-1 2,-10 3,-15 -1,-5 3,-15 -6,-11 -14,-1 -26,-14 -41,-5 -15,8 -33,7 -49,0 -16,-8 -33,-2 -49,5 -21,7 -41,-14 -62,-6 -14,5 -30,10 -44,2 -15,-8 -31,-4 -45,3 -4,1 -8,5 -12,5 C 161,371 144,356 131,360 Z" />
    <path d="m 132,402 c -11,4 -26,8 -34,9 v 24 c 19,4 36,-15 55,-7 14,7 30,10 44,2 14,-8 30,-6 44,1 20,8 40,-11 60,-4 15,5 32,12 47,3 16,-8 34,-6 50,1 16,7 32,0 47,-5 13,-5 24,10 37,7 5,-1 2,-10 3,-15 -1,-5 3,-15 -6,-11 -14,-1 -26,-14 -41,-5 -15,8 -33,7 -49,0 -16,-8 -33,-2 -49,5 -21,7 -41,-14 -62,-6 -14,5 -30,10 -44,2 -15,-8 -31,-4 -45,3 -4,1 -8,5 -12,5 -18,1 -31,-13 -45,-9 z" />
    <path d="m 221,75 c 36,6 73,15 106,32 9,6 23,14 31,5 12,-9 18,-13 30,-23 7,-18 -21,-20 -33,-25 -17,-5 -35,-8 -52,-8 -19,-1 -69,12 -82,19 z m -27,8 c -16,1 -8,15 -11,24 -6,35 -8,71 -3,107 1,7 7,26 15,22 21,-15 37,-28 57,-44 39,49 79,99 118,148 11,10 32,-8 19,-19 L 273,175 c 21,-16 41,-31 62,-47 -28,-21 -63,-29 -96,-36 -18,-4 -30,-8 -45,-9 z m -26,33 c -38,42 -56,102 -44,158 5,10 15,3 21,-2 l 30,-22 c -15,-34 -12,-73 -10,-109 1,-8 1,-16 3,-24 z" />
  </g>
</svg>