<?xml version="1.0" encoding="UTF-8" standalone="no"?>
<svg xmlns="http://www.w3.org/2000/svg" xmlns:xlink="http://www.w3.org/1999/xlink" version="1.0" width="580" height="580">
  <defs>
    <g id="icon">
      <path opacity="0.8" d="m 351,296 c 20,19 94,20 133,0 -48,-13 -102,-8 -133,-0 z" />
      <path d="m 146,141 c -21,9 -52,24 -51,49 v 323 c 3,31 55,33 77,33 26,-2 80,-2 80,-33 v -324 c -1,-22 -38,-40 -54,-47 v -99 c 0,-4 -3,-8 -8,-8 l -37,-0 c -4,-0 -8,3 -8,7 z" />
      <path d="m 405,501 c -30,2 -52,11 -52,22 0,12 28,23 63,23 35,0 63,-10 63,-23 0,-11 -21,-20 -51,-22 v -87 c 29,-12 58,-81 56,-118 -37,12 -76,20 -133,0 -3,40 21,105 54,117 z" />
    </g>
  </defs>
  <use xlink:href="#icon" style="stroke:#ffffff;stroke-width:50;stroke-linejoin:round" />
  <use xlink:href="#icon" style="fill:#734A08" />
</svg>