<?xml version="1.0" encoding="UTF-8" standalone="no"?>
<svg xmlns="http://www.w3.org/2000/svg" xmlns:xlink="http://www.w3.org/1999/xlink" version="1.0" width="580" height="580">
  <defs>
    <g id="icon">
      <path d="M 72 148 L 72 244 L 144 244 L 144 292 L 48 292 L 48 349 L 78 363 L 103 363 C 98 371 96 380 96 388 C 96 414 118 436 144 436 C 170 436 192 414 192 388 C 192 380 190 371 185 364 C 255 364 324 364 394 364 C 390 371 388 380 388 388 C 388 414 409 436 436 436 C 462 436 484 414 484 388 C 484 380 481 371 477 364 L 502 364 L 532 349 L 532 292 L 436 292 L 436 244 L 508 244 L 508 148 L 72 148 z M 169 244 L 412 244 L 412 292 C 330 292 249 292 168 292 L 169 244 z " />
    </g>
  </defs>
  <use xlink:href="#icon" style="stroke:#ffffff;stroke-width:50;stroke-linejoin:round" />
  <use xlink:href="#icon" style="fill:#734a08" />
</svg>