<?xml version="1.0" encoding="UTF-8" standalone="no"?>
<svg xmlns="http://www.w3.org/2000/svg" xmlns:xlink="http://www.w3.org/1999/xlink" version="1.0" width="580" height="580">
  <defs>
    <g id="icon">
      <path d="m 389,236 h -41 v 24 c 13,0 26,-1 38,0 8,8 -9,9 -11,15 -5,10 0,20 2,29 l -163,1 -10,-25 c 12,-4 30,-4 39,-11 4,-2 1,-9 -3,-9 -29,0 -58,-1 -87,-1 1,13 15,23 25,25 l 10,24 c 0,0 -20,37 -30,55 -10,-4 -22,-7 -34,-7 -49,0 -90,40 -90,90 0,49 40,90 90,90 46,0 85,-35 89,-80 h 19 c 2,6 6,11 12,14 l -7,17 h -15 c -8,0 -6,12 0,12 h 36 c 9,0 8,-12 0,-12 h -11 l 6,-15 c 14,3 38,-8 33,-33 l 109,-74 c 1,4 2,8 3,11 -20,16 -33,42 -33,70 0,49 40,90 90,90 49,0 90,-40 90,-90 0,-49 -40,-90 -90,-90 -12,0 -24,2 -34,7 -6,-19 -11,-39 -17,-58 -3,-8 -11,-19 -2,-24 13,-5 19,-25 9,-36 -5,-7 -14,-9 -22,-9 z m -6,88 6,21 -114,77 c 0,0 -1,0 -1,-1 l 8,-16 h 17 c 9,-1 7,-12 0,-12 h -36 c -9,0 -8,12 0,12 h 9 l -6,13 c -2,-1 -4,-1 -6,-1 l -38,-92 z m -185,7 39,96 c -2,2 -4,5 -5,8 h -19 c -3,-26 -17,-48 -38,-62 z m -51,55 -30,55 c -4,7 1,15 9,15 h 63 c -4,31 -31,56 -64,56 -36,0 -64,-29 -64,-64 0,-36 29,-64 64,-64 13,0 20,1 22,2 z m 308,-4 c 36,0 64,29 64,64 0,36 -29,64 -64,64 -36,0 -64,-29 -64,-64 0,-16 6,-31 16,-43 6,19 18,40 32,48 31,13 37,-8 9,-22 -6,-4 -10,-11 -13,-18 -2,-8 -5,-16 -7,-24 3,-1 12,-5 27,-5 z m -291,13 c 13,10 21,24 24,40 h -46 z" />
      <path d="m 220,33 c -3,0 -6,3 -6,6 V 221 c 0,3 2,5 4,6 l 26,0 c 3,0 6,-3 6,-6 v -69 h 41 c 42,0 73,-22 74,-61 0,-46 -40,-58 -76,-58 z m 30,33 h 41 c 21,0 38,6 38,26 0,23 -22,27 -38,28 h -41 z" />
    </g>
  </defs>
  <use xlink:href="#icon" style="stroke:#ffffff;stroke-width:50;stroke-linejoin:round" />
  <use xlink:href="#icon" style="fill:#0092da" />
</svg>