<?xml version="1.0" encoding="UTF-8" standalone="no"?>
<svg xmlns="http://www.w3.org/2000/svg" xmlns:xlink="http://www.w3.org/1999/xlink" version="1.0" width="580" height="580">
  <defs>
    <g id="icon">
      <path fill="#734a08" d="m 258,42 c -7,-0 -15,0 -22,0 -44,1 -89,3 -130,20 -11,11 -5,27 -6,41 l 4,316 c -12,15 -26,33 -23,53 7,35 45,51 76,60 56,14 116,13 172,1 33,-9 72,-23 83,-58 1,-28 -8,-32 -19,-53 0,-35 -2,-41 14,-40 20,-3 41,-3 60,-8 16,-6 21,-24 22,-40 L 510,144 c -1,-23 -25,-39 -47,-33 -23,0 -46,1 -69,2 -1,-15 2,-32 -2,-46 C 359,47 296,43 258,42 Z M 466,146 c 18,4 7,33 6,46 -6,49 -12,98 -17,146 -19,8 -41,9 -63,12 l 1,-201 z" />
      <path opacity="0.9" fill="#ffffff" d="M 350,121 C 258,121 206,171 136,131 l 3,299 c 23,20 54,27 83,29 46,1 96,-3 135,-31 l 2,-306 c -3,-0 -6,-0 -9,-1 z M 373,454 c -23,18 -51,26 -80,31 -57,8 -123,9 -171,-30 -18,24 22,36 39,42 51,15 107,14 159,2 21,-6 49,-11 58,-33 0,-4 -2,-8 -5,-12 z" />
      <path opacity="0.5" fill="#ffffff" d="m 135,90 0,42 c 73,41 126,-13 223,-10 L 359,89 C 341,85 323,82 305,80 284,79 262,78 241,78 205,78 169,81 135,90 Z" />
    </g>
  </defs>
  <use xlink:href="#icon" style="stroke:#ffffff;stroke-width:50;stroke-linejoin:round" />
  <use xlink:href="#icon" />
</svg>