<?xml version="1.0" encoding="UTF-8" standalone="no"?>
<svg xmlns="http://www.w3.org/2000/svg" version="1.0" width="580" height="580">
  <circle cx="290" cy="290" r="260" style="fill:#ac39ac;stroke:#ffffff;stroke-width:25" />
  <path fill="#ffffff" d="m 341,158 v 21 c 11,0 23,-1 33,0 7,7 -8,8 -10,13 -4,9 0,18 2,25 l -142,2 -9,-22 c 11,-4 26,-4 34,-10 4,-2 1,-8 -3,-8 -25,0 -51,-1 -76,-1 1,11 13,20 22,22 l 9,21 c 0,0 -18,32 -26,48 -9,-4 -19,-6 -30,-6 -43,0 -79,35 -79,79 0,43 35,79 79,79 40,0 75,-31 78,-70 h 17 c 2,5 5,10 11,12 l -6,15 h -14 c -7,0 -5,11 0,11 h 32 c 8,0 7,-11 0,-11 h -10 l 5,-13 c 12,3 33,-7 29,-29 l 96,-65 c 1,4 2,7 3,10 -18,14 -29,37 -29,61 0,43 35,79 79,79 43,0 79,-35 79,-79 0,-43 -35,-79 -79,-79 -11,0 -21,2 -30,6 l -15,-51 c -3,-7 -10,-17 -2,-21 11,-4 17,-22 8,-32 -4,-6 -12,-8 -19,-8 -10,0 -25,1 -37,1 z m 31,77 5,18 -100,68 c 0,0 -1,0 -1,-1 l 7,-14 h 15 c 8,-1 6,-11 0,-11 h -32 c -8,0 -7,11 0,11 h 8 l -5,11 c -2,-1 -4,-1 -5,-1 l -33,-80 z m -162,6 34,84 c -2,2 -4,4 -4,7 h -17 c -3,-23 -15,-42 -33,-54 z m -45,49 -26,48 c -4,6 1,13 8,13 h 55 c -4,27 -27,49 -56,49 -32,0 -56,-25 -56,-56 0,-32 25,-56 56,-56 11,0 18,1 19,2 z m 270,-4 c 32,0 56,25 56,56 0,32 -25,56 -56,56 -32,0 -56,-25 -56,-56 0,-14 5,-27 14,-38 5,17 16,35 28,42 27,11 32,-7 8,-19 -5,-4 -9,-10 -11,-16 l -6,-21 c 3,-1 11,-4 24,-4 z m -255,12 c 11,9 18,21 21,35 h -40 z" />
</svg>