<?xml version="1.0" encoding="UTF-8" standalone="no"?>
<svg xmlns="http://www.w3.org/2000/svg" xmlns:xlink="http://www.w3.org/1999/xlink" version="1.0" width="580" height="580">
  <defs>
    <g id="icon">
      <path d="m 54,38 v 300 c 5,7 20,4 16,-7 V 209 c 18,15 44,21 66,12 20,-6 42,-18 63,-7 24,12 51,15 76,4 13,-1 16,-11 14,-22 V 43 C 274,38 252,59 233,52 209,47 185,29 160,40 138,47 114,59 91,48 80,46 60,27 54,38 Z m 131,223 c -13,1 -30,12 -30,26 v 229 c 1,17 14,30 30,30 h 33 c 17,-1 30,-14 30,-30 V 382 c 87,-19 176,-38 251,-55 30,-11 21,-56 -15,-50 -77,19 -162,37 -236,53 V 287 c -3,-15 -17,-26 -30,-26 z m 275,108 c -12,2 -20,14 -20,25 v 125 c 1,14 11,24 24,24 h 38 c 11,-1 24,-9 24,-21 V 390 c -2,-12 -13,-21 -24,-21 z" />
    </g>
  </defs>
  <use xlink:href="#icon" style="stroke:#ffffff;stroke-width:50;stroke-linejoin:round" />
  <use xlink:href="#icon" style="fill:#666666" />
</svg>