<?xml version="1.0" encoding="UTF-8" standalone="no"?>
<svg xmlns="http://www.w3.org/2000/svg" xmlns:xlink="http://www.w3.org/1999/xlink" version="1.0" width="580" height="580">
  <defs>
    <g id="icon">
      <path d="M 310,97 C 258,162 205,228 153,294 H 40 c -2,0 -3,1 -3,3 v 38 c 0,2 1,3 3,3 13,-1 130,3 134,-1 57,-71 114,-142 171,-212 1,-1 1,-3 0,-4 L 314,96 c -1,-1 -2,-1 -4,1 z m 99,196 v 39 c 0,2 1,3 3,3 h 127 c 2,0 3,-1 3,-3 v -39 c 0,-1 -1,-3 -3,-3 H 412 c -2,0 -3,2 -3,3 z M 37,481 c 0,2 2,3 4,3 h 95 c 2,0 3,-1 3,-3 V 350 c 0,-2 -1,-3 -3,-3 H 40 c -2,0 -3,1 -3,3 1,40 0,90 0,131 z M 441,350 v 131 c 0,2 1,3 3,3 h 95 c 2,0 3,-1 3,-3 V 350 c 0,-2 -1,-3 -3,-3 h -95 c -2,0 -3,1 -3,3 z" />
    </g>
  </defs>
  <use xlink:href="#icon" style="stroke:#ffffff;stroke-width:50;stroke-linejoin:round" />
  <use xlink:href="#icon" style="fill:#0092da" />
</svg>