<?xml version="1.0" encoding="UTF-8" standalone="no"?>
<svg xmlns="http://www.w3.org/2000/svg" xmlns:xlink="http://www.w3.org/1999/xlink" version="1.0" width="580" height="580">
  <defs>
    <g id="icon">
      <path d="m 290,102 c -65,-0 -135,27 -171,84 -16,24 -20,53 -19,81 0,54 0,107 0,161 127,0 253,0 380,0 -0,-62 0,-124 -0,-186 -3,-56 -48,-101 -97,-122 C 353,108 322,102 290,102 Z M 150,219 c 40,0 80,0 120,0 0,18 0,37 0,55 -40,0 -80,0 -120,0 0,-18 0,-37 0,-55 z m 160,0 c 40,0 80,0 120,0 0,18 0,37 0,55 -40,0 -80,0 -120,0 0,-18 0,-37 0,-55 z" />
    </g>
  </defs>
  <use xlink:href="#icon" style="stroke:#ffffff;stroke-width:50;stroke-linejoin:round" />
  <use xlink:href="#icon" />
</svg>