<?xml version="1.0" encoding="UTF-8" standalone="no"?>
<svg xmlns="http://www.w3.org/2000/svg" xmlns:xlink="http://www.w3.org/1999/xlink" version="1.0" width="580" height="580">
  <defs>
    <g id="icon">
      <path d="m 458,130 c -12,21 -35,25 -57,30 -66,7 -125,45 -191,47 -35,1 -70,10 -98,32 -26,18 -59,35 -65,69 -12,54 18,107 58,141 49,42 115,70 180,59 39,-13 59,-52 73,-87 13,-32 7,-71 31,-98 22,-25 45,-50 62,-78 9,-12 2,-31 19,-35 11,-9 25,-10 39,-12 21,-2 41,-30 23,-47 -16,-11 -31,-18 -45,-30 -10,-4 -21,2 -29,9 z m 22,3 c 10,8 15,18 31,20 30,11 -2,38 -22,32 -14,0 -23,12 -36,16 -11,5 -31,18 -29,-4 -0,-11 -23,8 -14,-9 1,-12 12,-15 22,-19 15,-4 25,-16 34,-27 4,-4 8,-8 14,-9 z M 230,301 c 39,31 71,76 79,126 3,24 1,56 -26,66 -43,10 -88,-4 -126,-23 -49,-27 -96,-71 -101,-129 -2,-27 5,-60 33,-71 34,-12 71,1 104,12 13,5 25,11 37,18 z M 168,339 c 22,13 15,50 -14,41 -17,-4 -47,-17 -36,-39 12,-13 36,-12 49,-2 z m -34,7 c -18,16 54,35 28,6 -7,-7 -18,-8 -28,-6 z" />
      <path opacity="0.1" d="m 111,449 c 40,29 71,38 117,51 44,4 65,4 86,-32 C 311,330 244,261 113,253 42,278 46,309 52,367 64,401 83,418 111,449 Z" />
      <path opacity="0.1" d="m 473,126 c 26,13 65,34 54,47 -32,22 -71,34 -96,51 -54,-5 -54,-2 -34,-50 35,-12 49,-25 76,-48 z" />
    </g>
  </defs>
  <use xlink:href="#icon" style="stroke:#ffffff;stroke-width:50;stroke-linejoin:round" />
  <use xlink:href="#icon" style="fill:#ac39ac" />
</svg>