<?xml version="1.0" encoding="UTF-8" standalone="no"?>
<svg xmlns="http://www.w3.org/2000/svg" xmlns:xlink="http://www.w3.org/1999/xlink" version="1.0" width="580" height="580">
  <defs>
    <g id="icon">
      <path d="m 290,102 c -86,-3 -189,54 -190,149 0,59 0,118 0,177 127,0 253,0 380,0 0,-59 0,-118 0,-177 -17,-1 -34,-1 -50,-2 0,8 0,16 0,25 -40,0 -80,0 -120,0 0,-18 0,-37 0,-55 18,0 37,0 55,0 2,-12 5,-25 7,-37 -21,-13 -41,-25 -62,-38 16,-10 33,-21 49,-31 C 337,106 313,102 290,102 Z M 150,219 c 40,0 80,0 120,0 0,18 0,37 0,55 -40,0 -80,0 -120,0 0,-18 0,-37 0,-55 z" />
    </g>
  </defs>
  <use xlink:href="#icon" style="stroke:#ffffff;stroke-width:50;stroke-linejoin:round" />
  <use xlink:href="#icon" style="fill:#734a08" />
</svg>