<?xml version="1.0" encoding="UTF-8" standalone="no"?>
<svg xmlns="http://www.w3.org/2000/svg" xmlns:xlink="http://www.w3.org/1999/xlink" version="1.0" width="580" height="580">
  <defs>
    <g id="icon">
      <path d="m 207,191 c -24,0 -38,14 -43,28 l -32,81 c -13,1 -34,16 -34,44 v 104 h 31 v 33 c 0,41 58,40 58,0 v -33 h 103 v 0 h 104 v 33 c 0,40 58,41 58,0 v -33 h 31 V 345 c 0,-27 -22,-42 -34,-44 l -32,-81 c -6,-16 -18,-28 -43,-28 z m 0,30 h 166 c 10,0 15,7 18,16 l 24,64 c -83,0 -166,0 -250,0 l 24,-64 c 3,-9 8,-16 18,-16 z m -48,111 c 15,0 26,13 26,27 0,15 -11,27 -26,27 -15,0 -26,-13 -26,-27 0,-15 11,-27 26,-27 z m 263,0 c 15,0 26,13 26,27 0,15 -11,27 -26,27 -15,0 -26,-13 -26,-27 0,-15 11,-27 26,-27 z" />
      <rect y="73" x="85" height="71" width="424" />
      <rect y="174" x="507" height="323" width="42" />
      <rect x="33" y="174" height="323" width="42" />
    </g>
  </defs>
  <use xlink:href="#icon" style="stroke:#ffffff;stroke-width:50;stroke-linejoin:round" />
  <use xlink:href="#icon" style="fill:#0092da" />
</svg>