<?xml version="1.0" encoding="UTF-8" standalone="no"?>
<svg xmlns="http://www.w3.org/2000/svg" xmlns:xlink="http://www.w3.org/1999/xlink" version="1.0" width="580" height="580">
  <defs>
    <g id="icon">
      <path d="m 76,124 c -7,76 -7,154 15,228 14,47 44,94 92,111 27,11 58,10 86,8 44,-4 85,-28 110,-64 52,-2 102,-30 134,-71 21,-26 25,-60 26,-93 -0,-36 -12,-77 -45,-97 -23,-13 -50,-5 -72,4 -1,-14 1,-39 -19,-35 -106,0 -211,0 -317,0 -5,-0 -9,3 -10,8 z m 412,85 c 10,37 10,81 -18,110 -17,19 -40,32 -65,38 -1,-17 7,-34 10,-51 C 422,272 424,236 424,201 c 16,-7 38,-23 54,-9 5,5 7,11 10,17 z" />
    </g>
  </defs>
  <use xlink:href="#icon" style="stroke:#ffffff;stroke-width:50;stroke-linejoin:round" />
  <use xlink:href="#icon" style="fill:#734a08" />
</svg>