<?xml version="1.0" encoding="UTF-8" standalone="no"?>
<svg xmlns="http://www.w3.org/2000/svg" xmlns:xlink="http://www.w3.org/1999/xlink" version="1.0" width="580" height="580">
  <defs>
    <g id="icon">
      <path d="m 207,227 c -24,0 -38,14 -43,28 l -32,81 c -13,1 -34,16 -34,44 v 104 h 31 v 33 c 0,41 58,40 58,0 V 484 H 290 v 0 h 104 v 33 c 0,40 58,41 58,0 v -33 h 31 V 381 c 0,-27 -22,-42 -34,-44 l -32,-81 c -6,-16 -18,-28 -43,-28 z m 0,30 h 166 c 10,0 15,7 18,16 l 24,64 c -83,0 -166,0 -250,0 l 24,-64 c 3,-9 8,-16 18,-16 z m -48,111 c 15,0 26,13 26,27 0,15 -11,27 -26,27 -15,0 -26,-13 -26,-27 0,-15 11,-27 26,-27 z m 263,0 c 15,0 26,13 26,27 0,15 -11,27 -26,27 -15,0 -26,-13 -26,-27 0,-15 11,-27 26,-27 z" />
      <path d="m 202,45 c -47,-1 -85,49 -74,95 8,36 44,66 82,60 24,-2 47,-16 59,-36 11,-6 25,3 36,-6 8,-5 14,-22 24,-18 6,3 9,15 18,13 8,-3 15,-22 23,-8 5,5 13,13 18,5 7,-11 16,-15 24,-2 6,7 13,6 19,-1 8,-9 18,-17 23,-28 0,-11 -8,-16 -17,-24 C 423,78 410,83 396,83 353,82 309,84 269,82 248,59 226,44 202,45 Z m -30,59 c 28,3 21,31 10,36 v 0 c -14,8 -34,-2 -31,-19 2,-11 10,-17 21,-17 z" />
    </g>
  </defs>
  <use xlink:href="#icon" style="stroke:#ffffff;stroke-width:50;stroke-linejoin:round" />
  <use xlink:href="#icon" style="fill:#0092da" />
</svg>