<?xml version="1.0" encoding="UTF-8" standalone="no"?>
<svg xmlns="http://www.w3.org/2000/svg" xmlns:xlink="http://www.w3.org/1999/xlink" version="1.0" width="580" height="580">
  <defs>
    <g id="icon">
      <path d="m 440,247 c 0,12 -6,17 -17,17 h -59 c -11,0 -17,-6 -17,-17 V 219 c 0,-11 6,-17 17,-17 h 59 c 11,0 17,6 17,17 z m -169,0 c 0,11 -6,17 -17,17 H 126 c -11,0 -17,-6 -17,-17 V 219 c 0,-11 6,-17 17,-17 h 128 c 12,0 17,6 17,17 z m 263,135 h -43 V 233 c 0,-23 -8,-43 -24,-59 -16,-16 -36,-24 -59,-24 H 128 c -23,0 -43,8 -59,24 -16,16 -24,35 -24,59 v 106 c 0,17 6,31 18,43 12,12 26,18 43,18 h 96 c 1,-17 8,-32 20,-44 12,-12 28,-18 45,-18 17,0 32,6 44,18 12,12 20,26 20,43 h 218 c 0,-11 -6,-17 -17,-17 z m -265,42 c -6,0 -10,-2 -15,-6 -4,-4 -6,-9 -6,-15 0,-6 2,-11 6,-15 4,-4 9,-6 15,-6 6,0 10,2 14,6 4,4 6,9 6,15 0,6 -2,10 -6,15 -4,4 -9,6 -14,6 z m 0,-68 c -13,0 -24,5 -33,14 -9,9 -14,20 -14,33 0,13 5,24 14,33 9,9 20,14 33,14 12,0 24,-5 33,-14 9,-9 14,-20 14,-33 0,-13 -5,-24 -14,-33 -9,-9 -20,-14 -33,-14 z" />
    </g>
  </defs>
  <use xlink:href="#icon" style="stroke:#ffffff;stroke-width:50;stroke-linejoin:round" />
  <use xlink:href="#icon" style="fill:#0092da" />
</svg>