<?xml version="1.0" encoding="UTF-8" standalone="no"?>
<svg xmlns="http://www.w3.org/2000/svg" xmlns:xlink="http://www.w3.org/1999/xlink" version="1.0" width="580" height="580">
  <defs>
    <g id="icon">
      <path d="m 316,28 c -2,-0 -3,0 -5,1 -76,39 -152,78 -228,117 -6,3 -7,11 -1,15 61,47 122,94 183,141 3,2 7,2 10,1 76,-40 151,-80 227,-120 6,-3 6,-11 1,-15 -61,-46 -122,-92 -183,-138 -1,-1 -3,-2 -5,-2 z m 18,125 c 4,36 -67,44 -71,19 -9,-41 71,-49 71,-19 z" />
      <path d="m 67,183 c 3,73 4,148 7,210 0,2 1,5 3,6 57,51 116,99 173,149 6,5 15,1 15,-7 -1,-74 -1,-148 -2,-222 0,-3 -1,-5 -3,-7 C 200,267 141,221 81,175 c -7,-5 -14,1 -14,7 z M 118,252 c 28,-1 48,60 16,65 -28,5 -51,-62 -16,-65 z m 90,220 c -28,9 -47,-50 -23,-63 29,-13 51,54 23,63 z" />
      <path d="m 507,194 c -75,40 -151,80 -226,120 -3,2 -5,5 -5,8 l 2,221 c 0,7 8,11 13,8 L 513,422 c 3,-2 4,-4 4,-8 1,-70 2,-141 3,-211 0,-5 1,-14 -13,-9 z m -26,57 c 32,13 -1,74 -30,58 -18,-14 9,-63 30,-58 z m -64,93 c 30,17 -6,69 -30,58 -23,-11 11,-66 30,-58 z m -65,90 c 31,14 -2,74 -30,58 -20,-13 3,-66 30,-58 z" />
    </g>
  </defs>
  <use xlink:href="#icon" style="stroke:#ffffff;stroke-width:50;stroke-linejoin:round" />
  <use xlink:href="#icon" style="fill:#734a08" />
</svg>