<?xml version="1.0" encoding="UTF-8" standalone="no"?>
<svg xmlns="http://www.w3.org/2000/svg" xmlns:xlink="http://www.w3.org/1999/xlink" version="1.0" width="580" height="580">
  <defs>
    <g id="icon">
      <path d="m 366,279 c 0,23 -47,60 -87,60 -83,0 -64,-28 -64,-51 0,-23 24,-33 64,-33 40,0 87,-19 87,23 z" />
      <path d="m 438,411 c -1,33 -121,56 -203,54 -81,-3 -82,-28 -92,-63 -12,-41 69,-41 149,-55 86,-15 146,31 145,64 z" />
      <path d="m 340,219 c 0,15 -26,17 -48,17 -22,0 -44,-1 -48,-16 -17,-51 26,-40 48,-40 22,0 48,0 48,39 z" />
      <path d="m 320,138 c 0,13 -9,23 -20,23 -11,0 -39,-5 -39,-18 0,-13 28,-28 39,-28 11,0 20,10 20,23 z" />
    </g>
  </defs>
  <use xlink:href="#icon" style="stroke:#ffffff;stroke-width:50;stroke-linejoin:round" />
  <use xlink:href="#icon" style="fill:#666666" />
</svg>