<?xml version="1.0" encoding="UTF-8" standalone="no"?>
<svg xmlns="http://www.w3.org/2000/svg" xmlns:xlink="http://www.w3.org/1999/xlink" version="1.0" width="580" height="580">
  <defs>
    <g id="icon">
      <path style="fill:#e5e5e5" d="m 129,278 c 58,-68 158,-115 238,-92 66,48 125,126 167,188 14,17 9,43 -14,48 C 408,444 283,440 178,439 157,431 36,431 35,408 66,366 100,315 129,278 Z" />
      <path style="fill:#000000" d="m 129,278 c 58,-68 158,-115 238,-92 67,49 126,128 168,190 7,8 22,47 -1,35 C 484,349 429,282 377,231 323,183 265,216 212,242 142,270 112,391 47,414 c -4,0 -15,0 -12,-7 30,-43 65,-92 94,-129 z" />
      <path style="fill:#000000" d="m 151,415 c 18,-54 65,-107 109,-133 63,-13 182,96 171,134 -84,-3 -215,31 -280,-1 z" />
    </g>
  </defs>
  <use xlink:href="#icon" style="stroke:#ffffff;stroke-width:50;stroke-linejoin:round" />
  <use xlink:href="#icon" />
</svg>