<?xml version="1.0" encoding="UTF-8" standalone="no"?>
<svg xmlns="http://www.w3.org/2000/svg" xmlns:xlink="http://www.w3.org/1999/xlink" version="1.0" width="580" height="580">
  <defs>
    <g id="icon">
      <path d="m 455,374 -43,27 16,76 h 30 v -52 l 19,-10 19,11 v 52 h 29 l 14,-76 -41,-28 9,-252 c -2,-15 -15,-25 -29,-25 -13,1 -29,11 -29,24 4,78 4,170 6,253 z m 33,-251 c 0,5 -4,9 -9,9 -5,0 -9,-4 -9,-9 0,-5 4,-9 9,-9 5,0 9,4 9,9 z" />
      <path d="m 103,184 -27,71 c -11,2 -31,15 -31,39 l 0,91 27,0 0,29 c 0,36 51,36 51,0 l 0,-29 182,0 0,29 c 0,36 51,36 51,0 l 0,-29 27,0 0,-91 c 0,-24 -19,-37 -30,-39 l -28,-71 c -5,-14 -17,-26 -38,-26 -49,0 -97,0 -146,0 -21,0 -32,12 -38,26 z m 184,1 c 9,0 13,5 16,13 l 21,57 -220,0 21,-57 c 3,-8 7,-13 16,-13 49,0 97,0 146,0 z M 122,306 c 0,14 -11,24 -24,24 -13,0 -23,-10 -23,-24 0,-13 10,-24 23,-24 13,0 24,11 24,24 z m 231,0 c 0,14 -10,24 -23,24 -13,0 -24,-10 -24,-24 0,-13 11,-24 24,-24 13,0 23,11 23,24 z" />
    </g>
  </defs>
  <use xlink:href="#icon" style="stroke:#ffffff;stroke-width:50;stroke-linejoin:round" />
  <use xlink:href="#icon" fill="#ac39ac" />
</svg>