<?xml version="1.0" encoding="UTF-8" standalone="no"?>
<svg xmlns="http://www.w3.org/2000/svg" xmlns:xlink="http://www.w3.org/1999/xlink" version="1.0" width="580" height="580">
  <defs>
    <g id="icon">
      <path d="m 214,282 c -21,0 -33,12 -38,25 l -28,71 c -11,1 -30,14 -30,39 v 91 h 27 v 29 c 0,36 51,35 51,0 v -29 h 91 v 0 h 91 v 29 c 0,35 51,36 51,0 v -29 h 27 v -91 c 0,-24 -19,-37 -30,-39 l -28,-71 c -5,-14 -16,-25 -38,-25 H 214 Z m -0,26 h 146 c 9,0 13,6 16,14 l 21,56 c -73,0 -146,0 -219,0 l 21,-56 c 3,-8 7,-14 16,-14 z m -42,97 c 13,0 23,11 23,24 0,13 -10,24 -23,24 -13,0 -23,-11 -23,-24 0,-13 10,-24 23,-24 z m 231,0 c 13,0 23,11 23,24 0,13 -10,24 -23,24 -13,0 -23,-11 -23,-24 0,-13 10,-24 23,-24 z" />
      <path d="m 358,61 c 2,54 81,52 82,0 -2,-54 -81,-51 -82,0 z m -1,49 c -19,0 -34,16 -33,35 l 1,79 c 0,15 9,29 24,33 v 13 h 101 v -14 c 13,-6 20,-18 20,-32 l -1,-79 c 0,-18 -15,-34 -33,-35 -7,0 -72,0 -79,0 z" />
      <path d="m 145,63 c 2,54 81,52 82,0 -2,-54 -81,-51 -82,0 z m -1,49 c -19,0 -34,16 -33,35 l 1,79 c 0,15 9,29 24,33 v 13 h 101 v -14 c 13,-6 20,-18 20,-32 l -1,-79 c 0,-18 -14,-34 -32,-35 -7,0 -75,-0 -80,-0 z" />
    </g>
  </defs>
  <use xlink:href="#icon" style="stroke:#ffffff;stroke-width:50;stroke-linejoin:round" />
  <use xlink:href="#icon" style="fill:#0092da" />
</svg>