<?xml version="1.0" encoding="UTF-8" standalone="no"?>
<svg xmlns="http://www.w3.org/2000/svg" xmlns:xlink="http://www.w3.org/1999/xlink" version="1.0" width="580" height="580">
  <defs>
    <g id="icon">
      <path d="M 258 51 C 247 51 236 59 236 72 L 236 95 C 221 93 206 97 192 137 C 192 160 193 183 193 206 C 169 303 122 359 88 441 C 72 524 181 562 215 478 C 219 386 215 290 216 196 L 236 196 L 236 495 L 259 495 L 259 529 L 474 529 L 474 496 L 494 496 L 494 68 C 494 59 489 51 479 51 L 258 51 z M 295 98 L 435 98 C 442 98 448 101 448 112 L 448 223 C 448 230 444 236 436 236 L 295 235 C 287 235 280 229 280 220 L 280 111 C 280 103 286 98 295 98 z M 398 253 L 372 331 L 453 315 L 311 501 L 363 380 L 286 398 L 398 253 z M 196 279 C 198 343 199 408 193 470 C 172 530 105 511 108 454 C 137 394 174 321 196 279 z " />
    </g>
  </defs>
  <use xlink:href="#icon" style="stroke:#ffffff;stroke-width:50;stroke-linejoin:round" />
  <use xlink:href="#icon" style="fill:#ac39ac" />
</svg>