<?xml version="1.0" encoding="UTF-8" standalone="no"?>
<svg xmlns="http://www.w3.org/2000/svg" xmlns:xlink="http://www.w3.org/1999/xlink" version="1.0" width="580" height="580">
  <defs>
    <g id="icon">
      <path d="m 291,186 -179,143 36,0 0,214 107,0 0,-108 73,0 0,108 104,0 0,-214 36,0 -177,-142" />
      <path d="m 123,124 c 8,38 46,68 85,62 25,-2 48,-17 61,-38 12,-6 26,3 37,-6 8,-5 14,-22 25,-19 6,4 10,15 18,13 9,-4 16,-23 24,-8 4,5 13,13 19,5 7,-12 17,-15 24,-2 5,7 13,6 20,-1 8,-9 19,-18 24,-29 -1,-12 -9,-17 -18,-25 -15,-15 -28,-11 -42,-11 -44,-1 -91,1 -131,-1 -18,-26 -39,-40 -70,-39 -48,-1 -88,51 -76,98 z m 48,-37 c 17,2 25,29 9,38 -14,9 -35,-3 -32,-20 3,-13 13,-19 23,-18 z" />
    </g>
  </defs>
  <use xlink:href="#icon" style="stroke:#ffffff;stroke-width:50;stroke-linejoin:round" />
  <use xlink:href="#icon" style="fill:#0092da" />
</svg>