<?xml version="1.0" encoding="UTF-8" standalone="no"?>
<svg xmlns="http://www.w3.org/2000/svg" xmlns:xlink="http://www.w3.org/1999/xlink" version="1.0" width="580" height="580">
  <defs>
    <g id="icon">
      <path fill="#ac39ac" d="m 230,62 c -18,3 -13,24 0,24 l 24,0 0,48 -24,0 c -18,3 -13,24 0,24 l 120,0 c 18,-3 13,-24 0,-24 l -24,0 0,-48 24,0 c 18,-3 13,-24 0,-24 z" />
      <path fill="#ac39ac" d="m 206,182 c -20,0 -36,16 -36,36 l 0,264 c 0,20 16,36 36,36 l 168,0 c 20,0 36,-16 36,-36 l 0,-264 c 0,-20 -16,-36 -36,-36 z" />
      <path fill="#ffffff" opacity="0.8" d="m 170,302 120,0 0,24 -120,0 0,24 120,0 0,24 -120,0 0,24 144,0 0,-120 -144,0 z" />
    </g>
  </defs>
  <use xlink:href="#icon" style="stroke:#ffffff;stroke-width:50;stroke-linejoin:round" />
  <use xlink:href="#icon" />
</svg>