<?xml version="1.0" encoding="UTF-8" standalone="no"?>
<svg xmlns="http://www.w3.org/2000/svg" xmlns:xlink="http://www.w3.org/1999/xlink" version="1.0" width="580" height="580">
  <defs>
    <g id="icon">
      <path fill="#734a08" d="m 327,37 c -4,3 -8,5 -11,9 l 12,25 -18,10 -9,-20 c -3,3 -6,5 -10,8 -3,2 -5,4 -8,5 -20,9 -47,4 -68,13 -20,9 -34,29 -53,38 -24,10 -39,1 -60,11 -8,4 -15,11 -22,17 L 96,145 111,175 92,185 78,156 c -2,2 -5,4 -8,8 l 182,380 11,-11 -4,2 -15,-30 19,-10 13,28 c 1,-1 2,-2 4,-2 2,-1 5,-2 8,-3 17,-4 36,-1 52,-8 19,-9 33,-30 53,-39 20,-9 47,-3 68,-13 4,-2 10,-4 13,-8 13,-10 23,-24 37,-31 z m 20,72 14,31 -18,9 -15,-30 z m 33,70 14,30 -18,10 -15,-30 z m -252,36 15,30 -19,10 -14,-31 z m 285,34 15,30 -19,9 -14,-30 z m -251,34 15,31 -19,9 -15,-30 z m 285,34 15,30 -19,10 L 428,328 Z m -251,36 14,30 -18,10 -15,-31 z m 285,34 15,30 -19,9 -15,-30 z m -251,34 14,31 -18,9 -15,-30 z" />
      <path fill="#D5C9B5" d="m 217,87 c -20,9 -34,30 -53,38 -18,8 -39,2 -57,9 L 153,232 330,148 292,69 c -2,2 -5,4 -8,5 -21,9 -48,4 -67,13 z" />
      <path fill="#D5C9B5" d="m 161,248 81,169 177,-85 -82,-169 z" />
      <path fill="#D5C9B5" d="m 249,435 39,82 c 16,-4 35,-1 51,-8 19,-8 33,-30 53,-38 20,-9 46,-4 67,-13 4,-2 9,-5 13,-8 L 425,350 Z" />
    </g>
  </defs>
  <use xlink:href="#icon" style="stroke:#ffffff;stroke-width:50;stroke-linejoin:round" />
  <use xlink:href="#icon" />
</svg>