<?xml version="1.0" encoding="UTF-8" standalone="no"?>
<svg xmlns="http://www.w3.org/2000/svg" height="580" width="580" version="1.0">
  <circle cx="290" cy="290" r="260" style="fill:#734a08" />
  <path style="opacity:0.5;fill:#ffffff" d="m 272,65 v 97 h 32 V 65 Z m 119,24 -25,43 28,17 25,-43 z m -202,2 -28,17 25,43 28,-17 z m 284,67 -42,27 17,27 42,-27 z m -367,2 -17,27 42,27 17,-27 z M 66,272 v 32 h 97 v -32 z m 350,0 v 32 h 97 v -32 z m -281,82 -42,27 17,27 42,-27 z m 309,5 -17,27 42,27 17,-27 z m -172,54 v 97 h 32 v -97 z m -82,5 -25,43 28,17 25,-43 z m 199,5 -28,17 25,43 28,-17 z" />
  <circle cx="290" cy="290" r="260" style="fill:none;stroke:#ffffff;stroke-width:25" />
  <path style="fill:#ffffff" d="m 196,94 -30,17 c -3,2 -4,5 -2,8 l 98,170 -11,5 c -3,1 -4,5 -3,8 l 15,32 c 1,3 5,4 8,3 l 14,-7 c 2,3 6,4 8,3 l 30,-17 c 2,-1 3,-3 3,-4 l 102,-48 c 3,-1 4,-5 3,-8 l -15,-32 c -1,-3 -5,-4 -8,-3 L 304,270 204,96 c -2,-3 -5,-4 -8,-2 z" />
</svg>