<?xml version="1.0" encoding="UTF-8" standalone="no"?>
<svg xmlns="http://www.w3.org/2000/svg" xmlns:xlink="http://www.w3.org/1999/xlink" version="1.0" width="580" height="580">
  <defs>
    <g id="icon">
      <path d="M 206,179 C 136,199 72,165 65,219 l -2,181 c -17,10 -20,29 -18,47 v 88 c 19,14 16,-10 16,-28 l 1,-82 c 7,-17 17,-3 25,6 31,22 103,17 154,17 12,18 30,31 45,47 11,12 45,46 57,42 25,-10 74,-60 52,-70 -24,-6 -32,8 -36,8 -8,8 -54,-50 -75,-67 -24,-26 -65,-2 -83,-18 7,-5 28,-27 40,-39 14,-13 28,-5 47,-6 26,1 52,-4 70,-1 33,-1 29,-14 30,-50 0,-17 2,-32 0,-49 -2,-14 -30,5 -31,24 -2,19 -18,18 -51,20 l -69,1 C 218,290 197,310 184,324 c -9,15 -12,5 -10,-9 5,-7 18,-18 28,-30 15,-24 19,-50 24,-55 18,-14 48,-31 65,-49 31,-33 38,-38 37,-51 -2,-22 -23,-26 -35,-19 -23,27 -45,52 -73,66 -1,-37 2,-135 1,-139 -1,-3 -5,-5 -9,-0 C 208,42 206,134 206,179 Z M 119,66 c -30,0 -55,24 -55,54 0,30 25,54 55,54 30,0 55,-24 55,-54 0,-30 -25,-54 -55,-54 z m 87,166 c 1,19 -22,59 -33,56 1,-15 1,-39 1,-54 13,-1 17,-1 32,-2 z" />
      <path d="m 297,23 10,81 81,141 -1,150 17,82 -32,42 -2,42 183,-2 V 21 Z" />
    </g>
  </defs>
  <use xlink:href="#icon" style="stroke:#ffffff;stroke-width:50;stroke-linejoin:round" />
  <use xlink:href="#icon" style="fill:#39ac39" />
</svg>