<?xml version="1.0" encoding="UTF-8" standalone="no"?>
<svg xmlns="http://www.w3.org/2000/svg" xmlns:xlink="http://www.w3.org/1999/xlink" version="1.0" width="580" height="580">
  <defs>
    <g id="icon">
      <path d="M 335,69 C 314,106 295,175 278,217 c -67,0 -135,-1 -202,0 -15,4 -10,20 -7,31 16,66 31,132 46,198 5,16 23,10 35,11 103,-1 214,-0 317,-1 C 482,401 509,290 522,231 522,215 504,216 493,217 H 316 L 364,88 C 366,75 362,52 335,69 Z M 98,245 h 53 v 55 l -40,1 z m 72,0 h 68 v 55 h -68 z m 87,0 h 72 v 55 h -72 z m 91,0 h 70 v 55 h -70 z m 89,0 h 55 l -13,55 h -42 z m -322,73 36,1 v 60 l -21,-1 z m 54,1 h 68 v 60 h -68 z m 87,0 h 72 v 60 h -72 z m 91,0 h 70 v 60 h -70 z m 89,0 h 37 l -14,60 h -23 z m -303,79 h 17 v 31 l -12,-4 z m 36,0 h 68 v 30 h -68 z m 87,0 h 72 v 30 h -72 z m 91,0 h 70 v 30 h -70 z m 89,0 h 19 l -8,29 -11,-0 z" />
    </g>
  </defs>
  <use xlink:href="#icon" style="stroke:#ffffff;stroke-width:50;stroke-linejoin:round" />
  <use xlink:href="#icon" style="fill:#ac39ac" />
</svg>