<?xml version="1.0" encoding="UTF-8" standalone="no"?>
<svg xmlns="http://www.w3.org/2000/svg" xmlns:xlink="http://www.w3.org/1999/xlink" version="1.0" width="580" height="580">
  <defs>
    <g id="icon">
      <path d="m 189,215 h -56 v -16 c -3,-26 -34,-20 -35,0 v 223 c 4,26 35,19 35,-0 V 250 h 49 l -31,161 c -7,40 46,38 49,10 L 252,153 c 2,-36 -44,-37 -49,-10 z" />
      <path d="m 391,215 h 56 v -16 c 3,-26 34,-20 35,0 v 223 c -4,26 -35,19 -35,-0 V 250 h -49 l 31,161 c 7,40 -46,38 -49,10 L 328,153 c -2,-36 44,-37 49,-10 z" />
    </g>
  </defs>
  <use xlink:href="#icon" style="stroke:#ffffff;stroke-width:50;stroke-linejoin:round" />
  <use xlink:href="#icon" style="fill:#666666" />
</svg>