<?xml version="1.0" encoding="UTF-8" standalone="no"?>
<svg xmlns="http://www.w3.org/2000/svg" xmlns:xlink="http://www.w3.org/1999/xlink" version="1.0" width="580" height="580">
  <defs>
    <g id="icon">
      <path d="m 484,410 c 56,-62 63,-104 22,-134 -19,-14 -26,-15 -54,-7 -32,8 -34,7 -60,-18 -32,-32 -65,-35 -88,-10 -19,33 -30,238 -14,245 14,15 38,1 60,-35 22,-36 28,-30 16,16 -8,29 -8,38 0,48 15,18 28,14 55,-16 16,-29 43,-67 63,-89 z" />
      <path d="m 214,383 c 6,6 3,7 -10,3 -18,-4 -13,15 -15,31 0,4 -5,5 -6,3 -18,-31 9,-58 31,-37 z m -42,-9 c 8,0 32,-17 15,-15 -6,6 -8,6 -7,0 1,-3 4,-5 12,-8 6,-2 14,-5 16,-6 7,-4 8,10 1,17 -6,7 -54,30 -56,26 3,-3 15,-11 19,-14 z m -8,-10 c -11,-13 -5,-24 18,-34 14,2 18,-14 4,-7 -6,3 -10,-3 -4,-6 20,-12 34,-12 34,1 0,18 -8,27 -28,30 -9,2 -11,4 -12,13 -3,12 -9,6 -12,3 z m -8,-31 c -12,-13 1,-34 26,-42 22,-7 28,-18 14,-25 -4,-2 -4,-2 -4,7 0,8 -1,10 -6,12 -6,2 -6,2 -6,-8 0,-10 0,-10 12,-14 7,-2 15,-5 18,-7 6,-3 6,-3 11,3 15,18 6,38 -22,47 -23,8 -26,10 -25,16 -1,10 -12,17 -18,11 z m -9,-43 c -15,-19 -2,-38 36,-53 10,-4 17,-8 21,-12 5,-6 5,-8 2,-16 2,-8 14,-3 21,-9 4,-3 8,2 10,13 3,17 -10,31 -41,42 -27,10 -35,19 -23,28 -3,12 -23,15 -26,7 z m -7,-53 c -21,-22 6,-60 43,-60 27,0 58,-11 58,-21 0,-7 -6,-8 -13,-2 -18,13 -38,-3 -21,-18 17,-15 57,-2 57,18 0,23 -23,39 -66,45 -37,6 -45,14 -29,28 6,5 6,5 -5,11 -4,7 -16,8 -24,-1 z m 45,-31 c 6,0 6,0 6,11 0,10 -4,15 -12,15 0,0 -1,-6 -1,-13 1,-9 -2,-13 7,-13 z m -46,-76 c 19,-2 38,12 31,24 -3,6 -19,6 -26,1 -9,-6 -14,-6 -14,2 0,7 10,13 26,16 13,4 -9,9 -14,16 -17,-10 -49,-50 -3,-59 z m 40,1 c -1,-20 4,-69 -5,-79 -19,-13 0,-43 21,-32 12,6 13,20 3,32 -5,6 -5,6 -5,62 0,56 1,54 -6,56 -10,0 -8,-19 -8,-39 z m -78,-25 c -11,4 -22,1 -26,-9 -2,-4 -4,-5 -9,-5 -8,0 -16,-5 -16,-11 0,-3 -1,-4 -5,-3 -8,2 -24,-9 -24,-16 32,-5 68,0 97,-9 23,-8 30,-7 35,2 2,4 6,8 8,9 8,3 6,50 -3,52 -16,1 -36,4 -46,-10 -2,-3 -8,-1 -11,0 z M 210,63 c 3,-1 6,-3 6,-5 4,-12 13,-13 38,-5 20,6 71,5 94,14 -2,7 -14,13 -21,11 -4,-1 -5,0 -5,2 0,6 -8,12 -16,12 -6,0 -8,1 -11,6 -6,10 -16,13 -27,7 -6,-3 -6,-3 -13,4 -7,7 -30,10 -45,6 -5,-6 -13,-44 0,-52 z" />
    </g>
  </defs>
  <use xlink:href="#icon" style="stroke:#ffffff;stroke-width:50;stroke-linejoin:round" />
  <use xlink:href="#icon" style="fill:#da0092" />
</svg>