<?xml version="1.0" encoding="UTF-8" standalone="no"?>
<svg xmlns="http://www.w3.org/2000/svg" xmlns:xlink="http://www.w3.org/1999/xlink" version="1.0" width="580" height="580">
  <defs>
    <g id="icon">
      <path d="m 436,47 v 50 h -50 v 50 h 50 v 50 h 50 v -50 h 50 V 97 H 486 V 47 Z M 314,192 C 272,192 246,219 229,246 c -20,-30 -45,-58 -98,-52 -47,5 -83,49 -86,96 -3,41 12,69 28,95 38,62 101,111 157,149 57,-38 127,-92 163,-158 12,-22 25,-51 23,-84 C 412,242 378,202 333,194 c -7,-1 -13,-2 -19,-2 z M 186,216 c 17,10 29,25 40,42 -9,36 -24,106 -24,106 l 84,-61 -37,168 22,-0 -44,49 -26,-60 21,6 13,-92 -71,50 c 0,0 14,-142 21,-208 z" />
    </g>
  </defs>
  <use xlink:href="#icon" style="stroke:#ffffff;stroke-width:50;stroke-linejoin:round" />
  <use xlink:href="#icon" style="fill:#D20000" />
</svg>