<?xml version="1.0" encoding="UTF-8" standalone="no"?>
<svg xmlns="http://www.w3.org/2000/svg" xmlns:xlink="http://www.w3.org/1999/xlink" version="1.0" width="580" height="580">
  <defs>
    <g id="icon">
      <path d="m 278,59 c 6,-1 12,-2 19,-2 9,0 18,0 27,1 0,-7 3,-12 -1,-15 -7,-4 -16,3 -24,0 -6,-3 -10,-9 -17,-9 -9,2 -4,18 -4,25 z m -40,24 c -17,11 -29,28 -29,47 v 0 0 c 1,20 10,34 23,46 13,11 30,18 47,24 17,6 33,10 45,15 7,3 19,8 20,16 0,11 -9,17 -17,21 -12,6 -28,10 -44,16 -16,5 -33,12 -46,21 -13,9 -21,23 -21,41 0,15 9,25 22,34 12,9 28,15 44,21 16,6 31,11 43,16 6,3 17,7 18,15 0,6 -4,12 -13,17 -9,5 -21,10 -35,15 -32,12 -63,18 -91,32 l 2,3 c 3,4 8,3 12,4 27,0 58,-5 81,-11 22,-6 44,-13 60,-23 17,-10 28,-22 29,-38 0,-14 -9,-25 -21,-33 -12,-9 -28,-15 -44,-21 -16,-6 -32,-11 -43,-17 -6,-4 -18,-9 -18,-17 2,-9 12,-13 19,-15 12,-5 29,-10 45,-16 17,-6 33,-13 46,-23 13,-10 22,-23 21,-40 0,-17 -9,-30 -22,-39 -13,-9 -29,-16 -46,-22 -17,-6 -33,-11 -45,-17 -9,-5 -20,-11 -21,-21 0,-9 8,-15 15,-18 9,-4 22,-4 32,-3 9,1 19,12 31,22 7,6 17,8 24,10 6,2 10,1 15,-1 3,-1 3,-3 3,-6 0,-3 -1,-5 -2,-7 l 9,3 c 2,1 5,0 6,-2 7,-18 -7,-37 -19,-46 -13,-10 -31,-17 -50,-17 -6,-1 -13,-2 -28,-2 -22,1 -47,11 -57,16 z m 126,16 c 0,6 -5,11 -10,11 -6,0 -10,-5 -10,-11 0,-6 5,-11 10,-11 6,0 10,5 10,11 z m -83,20 c 0,8 1,16 1,24 5,3 10,5 15,7 7,3 14,5 21,8 0,-9 1,-18 1,-27 -4,-4 -9,-8 -14,-11 -4,-1 -8,-1 -12,-2 -4,-1 -8,1 -12,1 z m -17,98 c -2,6 4,12 5,18 3,8 6,16 8,25 12,-4 25,-8 37,-12 0,-5 0,-9 1,-14 1,-3 2,-7 4,-10 -3,-1 -5,-2 -8,-3 -13,-3 -23,-10 -36,-10 -5,0 -9,2 -11,6 z m 19,101 v 17 c 9,5 19,9 30,12 3,-11 7,-22 10,-33 0,-5 -6,-7 -10,-5 v -2 c -8,0 -25,10 -30,11 z m -6,98 c 3,9 7,17 6,27 9,-3 18,-6 26,-9 v -27 c -5,-2 -9,-3 -14,-5 -4,-2 -9,-3 -13,-5 v 11 c -5,-3 -6,5 -5,8 z m 6,72 v 37 c 10,-6 22,-11 28,-21 1,-4 -2,-7 -2,-11 v -12 c -9,3 -17,5 -26,7 z" />
    </g>
  </defs>
  <use xlink:href="#icon" style="stroke:#ffffff;stroke-width:50;stroke-linejoin:round" />
  <use xlink:href="#icon" style="fill:#da0092" />
</svg>