<?xml version="1.0" encoding="UTF-8" standalone="no"?>
<svg xmlns="http://www.w3.org/2000/svg" xmlns:xlink="http://www.w3.org/1999/xlink" version="1.0" width="580" height="580">
  <defs>
    <g id="icon">
      <path d="m 180,49 c -55,0 -97,41 -116,81 39,-32 104,-55 123,-15 1,8 10,15 19,17 l -1,138 c -8,-0 -16,8 -17,16 l -6,224 c -1,20 16,21 25,21 l 41,0 c 9,0 27,-6 26,-23 l -4,-222 c -0,-8 -8,-16 -12,-16 l -3,-139 c 14,-1 22,-7 26,-15 9,-16 45,-9 45,-9 l -0,7 c 0,10 9,18 20,18 11,0 21,-8 21,-18 l 0,-45 c -0,-10 -9,-18 -20,-18 -10,0 -19,6 -20,15 -33,-2 -27,-13 -71,-15 z" />
      <path d="m 441,58 c -9,0 -18,3 -24,9 -7,6 -11,15 -11,26 l 6,307 -53,33 20,94 h 38 v -64 l 23,-13 23,13 v 64 h 36 L 517,434 467,399 477,92 C 475,79 473,73 466,67 459,61 450,58 441,58 Z m 1,23 c 6,0 10,5 10,11 0,6 -5,11 -11,11 -6,0 -11,-5 -10,-11 0,-6 5,-11 11,-11 z" />
    </g>
  </defs>
  <use xlink:href="#icon" style="stroke:#ffffff;stroke-width:50;stroke-linejoin:round" />
  <use xlink:href="#icon" style="fill:#ac39ac" />
</svg>