<?xml version="1.0" encoding="UTF-8" standalone="no"?>
<svg xmlns="http://www.w3.org/2000/svg" version="1.0" width="580" height="580">
  <circle cx="290" cy="290" r="260" style="fill:#734a08;stroke:#ffffff;stroke-width:25" />
  <path fill="#ffffff" d="m 218,249 c -52,0 -95,2 -95,4 0,0 29,229 29,229 -0,1 29,3 66,3 36,0 66,-2 66,-3 0,-0 29,-229 29,-229 C 313,252 271,249 218,249 Z M 172,463 143,269 c 48,0 83,3 148,-1 L 265,464 C 264,465 174,465 172,463 Z" />
  <path fill="#ffffff" opacity="0.1" d="m 298,266 -26,208 -111,1 -25,-211 z" />
  <path fill="#ffffff" d="m 290,77 c 0,9 7,16 16,16 3,0 6,-1 9,-2 l 0,9 c -5,4 -9,9 -12,14 -2,4 -4,8 -5,13 -9,-0 -18,-0 -27,-0 -37,-1 -62,20 -71,40 -9,20 -8,39 -8,39 l 49,-3 c 0,0 -0,-8 3,-15 3,-7 5,-13 26,-12 10,0 20,0 30,0 1,2 1,4 2,5 5,10 13,19 27,19 13,0 22,-10 27,-19 1,-2 2,-3 2,-5 l 73,0 0,-49 -70,-0 c -1,-5 -3,-9 -5,-13 -3,-5 -7,-11 -12,-14 l 0,-9 c 3,1 6,2 9,2 9,0 17,-7 16,-16 -1,-10 -9,-16 -17,-16 -6,0 -11,2 -15,4 -3,-2 -6,-3 -9,-3 -3,0 -6,1 -8,3 C 317,64 312,60 306,61 297,61 290,68 290,77 Z" />
</svg>