<?xml version="1.0" encoding="UTF-8" standalone="no"?>
<svg xmlns="http://www.w3.org/2000/svg" xmlns:xlink="http://www.w3.org/1999/xlink" version="1.0" width="580" height="580">
  <defs>
    <g id="icon">
      <path d="m 74,171 c 19,17 43,28 66,37 12,14 25,27 37,41 -36,-21 -81,-17 -120,-7 13,39 46,79 90,80 25,1 54,-5 68,-27 21,24 44,47 71,64 -27,-2 -57,-3 -81,1 -35,8 -60,36 -91,53 -9,8 -28,15 -6,22 37,23 74,58 121,53 54,-2 110,-45 112,-102 21,1 55,11 78,24 48,27 68,80 92,126 9,-2 18,-3 26,-6 -16,-38 -38,-74 -66,-104 -27,-28 -65,-45 -103,-49 33,-26 36,-74 28,-112 -11,-51 -47,-98 -97,-116 -26,63 -20,141 19,197 6,10 19,23 1,11 -36,-20 -69,-46 -95,-78 30,-28 45,-74 29,-113 -13,-34 -39,-63 -68,-85 -24,43 -31,99 -6,143 7,12 -8,-8 -13,-11 C 158,205 152,195 154,181 151,138 117,108 84,85 72,77 60,68 47,63 34,100 42,146 74,171 Z" />
    </g>
  </defs>
  <use xlink:href="#icon" style="stroke:#ffffff;stroke-width:50;stroke-linejoin:round" />
  <use xlink:href="#icon" style="fill:#D20000" />
</svg>