<?xml version="1.0" encoding="UTF-8" standalone="no"?>
<svg xmlns="http://www.w3.org/2000/svg" xmlns:xlink="http://www.w3.org/1999/xlink" version="1.0" width="580" height="580">
  <defs>
    <g id="icon">
      <path d="m 475,186 -159,0 38,303 130,0 39,-303 -29,0 30,-105 -18,-5 z" />
      <path d="m 235,318 -107,0 C 83,321 62,336 65,363 l 232,0 c 2,-27 -18,-42 -63,-45 z" />
      <path d="m 128,489 108,0 c 45,-2 65,-17 62,-44 l -233,0 c -3,27 18,42 63,44 z" />
      <path d="m 75,384 c -6,0 -10,2 -14,6 -4,4 -6,8 -6,14 0,6 2,11 6,14 4,4 9,6 14,6 l 213,0 c 6,0 10,-2 14,-6 4,-4 6,-8 6,-14 0,-5 -2,-10 -6,-14 -4,-4 -9,-6 -14,-6 z" />
    </g>
  </defs>
  <use xlink:href="#icon" style="stroke:#ffffff;stroke-width:50;stroke-linejoin:round" />
  <use xlink:href="#icon" style="fill:#734a08" />
</svg>