<?xml version="1.0" encoding="UTF-8" standalone="no"?>
<svg xmlns="http://www.w3.org/2000/svg" xmlns:xlink="http://www.w3.org/1999/xlink" version="1.0" width="580" height="580">
  <defs>
    <g id="icon">
      <path fill="#D20000" d="m 265,52 c -25,10 -46,30 -74,32 -20,0 -73,0 -47,33 13,10 24,38 40,39 l -21,18 c -12,-18 -30,-43 -53,-48 -4,-1 -10,2 -11,6 -4,26 -3,54 -20,77 -17,30 -40,65 -27,101 13,38 44,72 36,114 1,33 36,12 50,-2 9,-6 16,-15 18,-22 l 18,19 c -3,0 -6,2 -9,6 -11,10 -20,20 -30,30 -25,26 22,34 41,32 42,10 75,51 121,44 43,-5 79,-44 124,-37 27,3 24,-30 14,-40 -6,-7 -20,-26 -31,-28 L 419,412 c 5,8 19,19 24,24 10,12 47,24 44,-6 0,-26 9,-50 24,-71 17,-26 32,-59 19,-90 -12,-37 -40,-70 -36,-111 1,-11 -5,-26 -18,-24 -13,12 -43,29 -48,46 l -18,-19 c 5,-1 9,-7 13,-11 14,-13 49,-36 23,-55 C 415,94 385,92 361,74 340,60 315,47 290,47 c -8,0 -17,2 -25,5 z" />
      <path fill="#F1EDE6" d="m 295,64 c -22,0 -44,10 -62,23 -22,17 -54,13 -76,18 6,19 34,27 33,49 -3,2 -4,2 -6,2 l -21,18 c -25,22 -35,-31 -52,-25 3,36 -20,67 -36,97 -14,22 -15,50 -3,74 11,28 35,54 31,86 -1,33 25,-4 36,-11 16,-9 21,-4 17,5 l 18,19 c 10,-2 16,10 2,19 -11,9 -44,38 -10,33 48,2 81,53 131,44 42,-7 77,-44 121,-36 15,-14 -24,-28 -27,-45 2,-6 8,-9 13,-8 l 15,-14 c -3,-5 -4,-10 8,-12 16,6 33,43 43,25 -3,-37 23,-66 38,-97 17,-29 4,-63 -11,-90 -13,-23 -23,-49 -20,-75 -16,-15 -29,34 -50,27 -1,-4 0,-8 1,-11 L 411,161 C 401,163 392,156 402,145 412,134 440,118 428,109 391,113 359,91 328,74 318,67 307,64 295,64 Z m -16,15 c 11,95 69,74 49,172 -27,-65 -75,-64 -49,-172 z m -26,72 c 12,76 58,81 81,151 10,-33 31,-43 21,-124 103,139 44,189 24,239 l 7,-70 c -32,92 -57,110 -81,131 13,-43 18,-87 -8,-131 -6,71 -24,56 -28,114 -36,-27 -43,-56 -50,-101 -5,5 -13,28 -13,53 v 0 c -26,-15 -42,-49 -30,-101 8,-36 32,-81 14,-119 22,16 46,52 70,94 2,-45 -22,-74 -5,-136 z" />
    </g>
  </defs>
  <use xlink:href="#icon" style="stroke:#ffffff;stroke-width:50;stroke-linejoin:round" />
  <use xlink:href="#icon" />
</svg>