<?xml version="1.0" encoding="UTF-8" standalone="no"?>
<svg xmlns="http://www.w3.org/2000/svg" xmlns:xlink="http://www.w3.org/1999/xlink" version="1.0" width="580" height="580">
  <defs>
    <g id="icon">
      <path d="m 166,96 c -7,-3 -16,-2 -21,3 -7,6 -8,18 -2,25 12,16 33,5 34,-9 -0,-13 -6,-16 -11,-19 z m 127,24 -20,51 c -15,3 -25,19 -23,34 v 63 h 20 c 0,10 -1,21 2,31 5,15 29,15 35,0 3,-10 1,-20 2,-30 h 136 c 0,10 -1,21 2,30 5,15 29,15 35,0 3,-10 1,-20 2,-31 h 20 c -1,-24 -1,-48 -1,-72 -1,-12 -11,-23 -23,-25 -7,-20 -15,-40 -22,-60 -6,-11 -18,-13 -29,-13 H 323 c -14,-1 -26,9 -30,22 z m 138,-2 c 11,0 12,12 16,20 l 12,32 H 295 c 6,-15 11,-31 17,-46 2,-4 6,-6 10,-6 z M 90,199 c 0,8 10,10 16,5 5,-13 7,-21 11,-31 2,-3 3,-3 2,1 -2,9 -4,17 -5,26 1,17 1,34 1,50 -7,14 -10,23 -17,37 -7,17 17,28 25,7 6,-13 12,-25 18,-38 v -31 l 19,25 c 2,18 3,35 5,50 3,14 22,10 21,-7 -2,-16 -3,-39 -6,-55 -7,-13 -16,-24 -24,-35 l 4,-19 c 5,6 11,10 17,15 13,13 23,-6 14,-12 -6,-5 -12,-10 -17,-15 -4,-9 -8,-19 -12,-28 -5,-6 -11,-10 -18,-10 -7,-2 -32,18 -41,26 -4,8 -10,29 -13,39 z m 184,16 c -4,-11 5,-24 17,-23 14,-1 23,19 14,29 -12,15 -29,4 -31,-6 z m 174,0 c -4,-11 5,-24 17,-23 14,-1 23,19 14,29 -12,15 -30,3 -31,-6 z M 87,423 c 47,-26 103,-44 148,-31 46,14 84,48 131,57 54,13 110,-2 158,-26 -6,-17 -15,-35 -18,-43 -43,17 -97,30 -137,19 -66,-24 -106,-56 -168,-62 -48,1 -96,20 -136,45 2,8 17,36 22,41 z" />
    </g>
  </defs>
  <use xlink:href="#icon" style="stroke:#ffffff;stroke-width:50;stroke-linejoin:round" />
  <use xlink:href="#icon" style="fill:#0092da" />
</svg>