<?xml version="1.0" encoding="UTF-8" standalone="no"?>
<svg xmlns="http://www.w3.org/2000/svg" xmlns:xlink="http://www.w3.org/1999/xlink" version="1.0" width="580" height="580">
  <defs>
    <g id="icon">
      <path d="m 256,66 c -2,-5 -3,-10 -9,-13 -40,-6 -48,104 -51,141 10,-34 40,-163 51,-111 -5,14 -15,50 -10,101 5,-26 7,-54 15,-80 11,59 17,123 20,175 -5,-22 -8,-54 -22,-65 -6,-4 -18,4 -21,8 -9,-8 -17,-13 -31,-7 -8,-2 -16,-4 -24,-2 C 78,206 45,393 34,466 69,369 83,286 141,237 102,308 96,343 77,463 c 37,-96 49,-221 101,-229 -39,62 -52,164 -55,234 21,-78 30,-171 72,-226 8,6 15,14 20,22 -12,67 -21,135 -21,203 15,-62 18,-125 31,-187 30,67 36,137 47,194 -76,-5 -140,43 -209,41 1,6 -4,14 6,14 l 439,0 c 10,0 6,-8 6,-14 -68,2 -133,-46 -209,-41 11,-57 18,-128 47,-194 12,62 16,126 31,187 0,-68 -8,-136 -21,-203 6,-8 13,-16 20,-22 42,56 51,148 72,226 -3,-70 -15,-172 -55,-234 51,8 64,133 101,230 -19,-120 -25,-155 -64,-227 58,49 72,132 107,229 -11,-73 -43,-259 -140,-252 -7,-2 -16,-0 -24,2 -14,-6 -22,-0 -31,7 -3,-4 -15,-12 -21,-8 -14,11 -17,43 -22,65 3,-52 10,-116 20,-175 8,26 10,53 15,80 5,-51 -4,-87 -10,-101 11,-52 40,78 51,111 -3,-38 -11,-147 -51,-141 -5,3 -7,8 -9,13 -2,-6 -5,-13 -12,-14 C 302,54 295,69 290,92 285,69 278,54 268,52 c -8,1 -10,8 -12,14 z M 279,188 C 281,175 257,81 263,82 271,81 279,170 279,188 Z m 22,0 c 0,-18 8,-107 16,-106 4,-1 -12,75 -16,106 z m -57,44 c 17,22 23,74 26,101 -10,-34 -16,-67 -30,-97 1,-1 3,-3 4,-4 z m 97,3 c -14,31 -20,63 -30,97 3,-26 9,-79 26,-101 2,0 3,2 4,4 z m -89,64 c -6,-17 -11,-34 -19,-48 0,-1 1,-2 1,-2 C 238,249 250,292 252,299 Z m 97,-48 c -8,14 -12,31 -19,48 2,-7 14,-50 18,-50 0,0 1,1 1,2 z" />
    </g>
  </defs>
  <use xlink:href="#icon" style="stroke:#ffffff;stroke-width:50;stroke-linejoin:round" />
  <use xlink:href="#icon" style="fill:#734a08" />
</svg>