<?xml version="1.0" encoding="UTF-8" standalone="no"?>
<svg xmlns="http://www.w3.org/2000/svg" xmlns:xlink="http://www.w3.org/1999/xlink" version="1.0" width="580" height="580">
  <defs>
    <g id="icon">
      <path d="m 229,69 c -41,-1 -75,43 -65,83 7,32 39,58 72,53 21,-2 41,-14 52,-32 10,-5 22,3 32,-5 7,-4 12,-19 21,-16 5,3 8,13 16,11 7,-3 13,-19 20,-7 4,4 11,11 16,4 6,-10 14,-13 21,-2 5,6 11,5 17,-1 7,-8 16,-15 20,-25 -0,-10 -7,-14 -15,-21 -13,-13 -24,-9 -36,-9 -38,-1 -77,1 -112,-1 C 270,81 250,68 229,69 Z m -26,52 c 25,3 18,27 9,32 v -0 c -12,7 -30,-2 -27,-17 2,-10 9,-15 18,-15 z" />
      <path d="m 401,220 -68,63 H 115 c -33,2 -30,45 0,46 h 168 l -55,50 H 115 c -32,0 -33,46 0,46 h 63 l -28,26 c -22,25 11,52 31,34 l 65,-60 h 219 c 34,0 32,-46 0,-46 H 296 l 55,-50 h 114 c 32,0 30,-46 0,-46 h -64 l 32,-29 c 23,-22 -9,-54 -31,-34 z" />
    </g>
  </defs>
  <use xlink:href="#icon" style="stroke:#ffffff;stroke-width:50;stroke-linejoin:round" />
  <use xlink:href="#icon" style="fill:#666666" />
</svg>