<?xml version="1.0" encoding="UTF-8" standalone="no"?>
<svg xmlns="http://www.w3.org/2000/svg" xmlns:xlink="http://www.w3.org/1999/xlink" version="1.0" width="580" height="580">
  <defs>
    <g id="icon">
      <path d="M 401,158 333,221 H 115 c -33,2 -30,45 0,46 h 168 l -55,50 H 115 c -32,0 -33,46 0,46 h 63 l -28,26 c -22,25 11,52 31,34 L 246,363 H 465 c 34,-0 32,-46 0,-46 H 296 l 55,-50 H 465 c 32,-0 30,-46 0,-46 h -64 l 32,-29 c 23,-22 -9,-54 -31,-34 z" />
    </g>
  </defs>
  <use xlink:href="#icon" style="stroke:#ffffff;stroke-width:50;stroke-linejoin:round" />
  <use xlink:href="#icon" style="fill:#666666" />
</svg>