<?xml version="1.0" encoding="UTF-8" standalone="no"?>
<svg xmlns="http://www.w3.org/2000/svg" xmlns:xlink="http://www.w3.org/1999/xlink" version="1.0" width="580" height="580">
  <defs>
    <g id="icon">
      <path d="m 269,86 c -5,7 -4,12 3,17 6,4 12,3 17,-3 l 11,-16 168,111 -137,25 c -5,1 -9,4 -12,8 -3,4 -4,9 -2,13 l 30,116 -97,145 c -2,3 -3,7 -3,10 0,6 2,11 6,15 4,4 9,6 15,6 8,0 14,-4 18,-11 l 101,-153 5,21 -15,114 c -1,6 1,11 4,15 3,5 8,7 13,8 6,1 11,-0 16,-4 5,-3 8,-8 8,-14 L 434,394 c 0,-4 0,-8 -1,-12 l -34,-137 90,-16 c 5,-1 8,-3 11,-7 3,-4 4,-9 3,-13 -1,-5 -4,-9 -8,-12 L 288,59 Z M 59,523 l 30,0 0,-325 150,-61 -149,-57 0,-12 -30,0 C 59,221 59,372 59,523 Z M 300,149 c -7,7 -10,15 -10,25 0,10 3,18 10,25 7,7 15,10 25,10 10,0 18,-3 25,-10 7,-7 10,-15 10,-25 0,-10 -4,-18 -10,-25 -7,-7 -15,-10 -25,-10 -10,0 -18,3 -25,10 z" />
    </g>
  </defs>
  <use xlink:href="#icon" style="stroke:#ffffff;stroke-width:50;stroke-linejoin:round" />
  <use xlink:href="#icon" style="fill:#39ac39" />
</svg>