<?xml version="1.0" encoding="UTF-8" standalone="no"?>
<svg xmlns="http://www.w3.org/2000/svg" xmlns:xlink="http://www.w3.org/1999/xlink" version="1.0" width="580" height="580">
  <defs>
    <g id="icon">
      <path d="m 242,118 c -14,1 -40,-3 -48,3 -12,2 -6,56 -3,71 1,10 36,12 50,12 0,75 -0,150 0,224 11,16 39,12 46,1 0,-41 0,-150 0,-223 29,1 58,4 87,4 15,-7 42,-39 41,-46 -1,-12 -24,-37 -36,-47 -29,-5 -62,-1 -92,-1 1,-6 -0,-15 -8,-16 -10,-0 -20,0 -30,0 -8,0 -8,8 -8,17 z" />
    </g>
  </defs>
  <use xlink:href="#icon" style="stroke:#ffffff;stroke-width:50;stroke-linejoin:round" />
  <use xlink:href="#icon" style="fill:#734a08" />
</svg>