<?xml version="1.0" encoding="UTF-8" standalone="no"?>
<svg xmlns="http://www.w3.org/2000/svg" xmlns:xlink="http://www.w3.org/1999/xlink" version="1.0" width="580" height="580">
  <defs>
    <g id="icon">
      <path d="m 334,43 c -23,0 -41,19 -41,41 0,23 19,41 41,41 23,0 41,-19 41,-41 0,-23 -19,-41 -41,-41 z m -83,83 c -15,6 -31,12 -46,18 -9,4 -14,14 -10,22 l 18,45 c 12,18 37,5 32,-13 l -10,-28 29,-11 c 23,-14 6,-39 -13,-33 z m 40,15 -104,243 c -9,27 28,35 36,16 l 91,-212 c 4,7 8,15 12,23 5,8 15,11 23,7 13,-8 27,-16 41,-23 19,-15 0,-37 -16,-30 l -26,15 -19,-35 c -8,-19 -31,-21 -38,-4 z m -5,155 18,32 -32,18 c -23,17 2,45 20,34 16,-9 33,-20 49,-28 10,-7 12,-19 7,-28 -10,-16 -19,-33 -28,-49 -17,-23 -45,4 -34,21 z m 134,87 c -102,16 -208,35 -296,50 -25,5 -43,26 -43,52 0,29 24,52 52,52 h 287 c 42,0 77,-34 77,-77 0,-42 -34,-77 -77,-77 z m 0,13 c 35,0 64,29 64,64 0,17 -7,33 -19,45 -12,12 -28,19 -45,19 H 133 c -22,0 -39,-18 -39,-39 0,-19 13,-35 32,-39 100,-18 208,-36 294,-50 z m 0,9 c -31,0 -56,25 -56,56 0,31 25,56 56,56 31,0 56,-25 56,-56 0,-31 -25,-56 -56,-56 z m -287,49 c -17,0 -31,14 -31,31 0,17 14,31 31,31 17,0 31,-14 31,-31 0,-17 -14,-31 -31,-31 z" />
    </g>
  </defs>
  <use xlink:href="#icon" style="stroke:#ffffff;stroke-width:50;stroke-linejoin:round" />
  <use xlink:href="#icon" style="fill:#39ac39" />
</svg>