<?xml version="1.0" encoding="UTF-8" standalone="no"?>
<svg xmlns="http://www.w3.org/2000/svg" xmlns:xlink="http://www.w3.org/1999/xlink" version="1.0" width="580" height="580">
  <defs>
    <g id="icon">
      <path d="m 51,493 c 22,9 57,13 77,14 34,2 66,2 66,2 l 1,-9 -129,-18 6,-30 130,2 v -6 l -126,-17 5,-27 128,2 v -6 l -124,-17 5,-27 130,2 v -6 l -126,-17 5,-27 129,2 v -6 l -125,-17 5,-27 128,2 v -6 l -125,-17 5,-27 128,2 v -6 l -125,-17 5,-27 128,2 v -6 l -124,-17 5,-27 126,2 v -6 l -122,-17 6,-29 124,4 1,-9 c 0,0 -30,-4 -61,-7 -24,-2 -58,-6 -74,-2 -40,68 -83,273 -82,441 z" />
      <path d="m 358,51 c -5,-0 -6,7 -6,10 9,84 29,173 46,246 l -24,88 c -36,-16 -75,5 -80,41 -7,60 48,89 77,60 26,-33 44,-125 44,-125 0,0 15,92 43,124 41,35 81,-17 77,-60 -1,-14 -8,-29 -24,-40 -20,-11 -38,-12 -56,-2 l -24,-87 c 19,-87 35,-151 45,-230 0,-6 2,-13 1,-19 -0,-3 -2,-5 -5,-6 -3,-0 -5,2 -6,4 L 415,247 363,55 c -1,-2 -3,-3 -5,-4 z M 488,408 c 50,6 25,81 -0,80 -37,-0 -42,-80 0,-80 h 0 z m -146,1 v 0 h 0 c 42,1 37,79 0,80 -41,-1 -34,-80 -0,-80 z" />
    </g>
  </defs>
  <use xlink:href="#icon" style="stroke:#ffffff;stroke-width:50;stroke-linejoin:round" />
  <use xlink:href="#icon" style="fill:#ac39ac" />
</svg>