<?xml version="1.0" encoding="UTF-8" standalone="no"?>
<svg xmlns="http://www.w3.org/2000/svg" xmlns:xlink="http://www.w3.org/1999/xlink" version="1.0" width="580" height="580">
  <defs>
    <g id="icon">
      <path d="m 118,187 198,9 -1,32 c -15,2 -32,13 -46,19 -66,6 -139,11 -199,7 -5,-13 -9,-26 -14,-38 -5,-9 -26,-4 -22,6 6,12 12,26 18,38 -18,17 -8,42 17,42 l 14,38 c 9,10 27,2 22,-7 -6,-10 -11,-22 -16,-33 60,4 140,38 193,56 52,18 88,18 117,14 29,-3 53,-8 62,-28 14,-56 -46,-94 -90,-102 -11,-5 -27,-12 -41,-12 l 1,-32 202,-11 c 4,1 9,-9 13,-13 2,-2 0,-6 -3,-6 l -222,18 -214,-19 c -3,1 -4,3 -2,5 3,5 7,15 13,16 z M 54,280 c -0,-7 5,-14 14,-14 10,-0 17,15 9,22 -7,9 -24,3 -23,-8 z m 330,41 c 0,0 -19,-36 -28,-54 39,-1 71,16 78,54 -17,0 -50,-0 -50,-0 z m -83,2 -1,-54 c 0,0 18,-0 27,-0 11,17 17,36 23,54 -16,0 -49,0 -49,0 z m -43,66 c -19,3 -14,25 0,26 h 184 c 19,-3 14,-25 0,-26 z" />
    </g>
  </defs>
  <use xlink:href="#icon" style="stroke:#ffffff;stroke-width:50;stroke-linejoin:round" />
  <use xlink:href="#icon" style="fill:#0092da" />
</svg>