<?xml version="1.0" encoding="UTF-8" standalone="no"?>
<svg xmlns="http://www.w3.org/2000/svg" xmlns:xlink="http://www.w3.org/1999/xlink" version="1.0" width="580" height="580">
  <defs>
    <g id="icon">
      <path d="m 216,134 c 41,17 72,-31 48,-60 -55,-47 -98,37 -48,60 z m 234,43 -41,17 -36,100 34,77 -9,30 -79,24 -5,35 -126,31 1,21 h 308 c 17,1 21,-18 19,-32 V 78 L 474,69 Z M 113,127 c -19,33 -38,65 -57,98 -4,14 32,39 41,17 19,-33 38,-65 57,-98 4,-9 -29,-38 -41,-17 z m 86,15 c -16,0 -31,7 -39,23 -18,32 -38,64 -56,97 -5,44 -1,134 -1,134 0,0 -29,61 -42,92 -1,30 36,42 52,11 12,-26 30,-62 42,-89 2,-29 1,-81 1,-81 l 69,30 c 0,0 8,56 13,79 8,21 43,18 49,-3 -3,-34 -8,-74 -15,-104 -14,-18 -74,-41 -74,-41 l 39,-68 24,29 c 0,0 52,15 78,23 20,4 31,-26 15,-37 -18,-11 -71,-23 -71,-23 -25,-26 -47,-71 -84,-72 z" />
    </g>
  </defs>
  <use xlink:href="#icon" style="stroke:#ffffff;stroke-width:50;stroke-linejoin:round" />
  <use xlink:href="#icon" style="fill:#39ac39" />
</svg>