<?xml version="1.0" encoding="UTF-8" standalone="no"?>
<svg xmlns="http://www.w3.org/2000/svg" xmlns:xlink="http://www.w3.org/1999/xlink" version="1.0" width="580" height="580">
  <defs>
    <g id="icon">
      <path id="path54423" d="m 30,43 -4,495 c -0,26 35,24 35,0 l 0,-36 455,3 -0,23 c 1,27 35,23 35,0 1,-128 2,-256 3,-384 -4,-26 -35,-19 -35,-0 L 519,235 64,233 66,43 C 65,17 31,19 30,43 Z M 169,64 c -29,0 -52,23 -52,52 0,29 23,52 52,52 29,0 52,-23 52,-52 0,-29 -23,-52 -52,-52 z m 92,78 c -54,4 -40,73 0,74 h 170 c 58,1 54,-73 0,-74 z m -133,31 c -30,2 -28,42 0,42 h 74 c 27,0 26,-43 0,-42 z m -64,95 455,3 -2,200 -455,-3 z M 169,298 c -29,0 -52,23 -52,52 0,29 23,52 52,52 29,0 52,-23 52,-52 0,-29 -23,-52 -52,-52 z m 87,78 c -53,2 -43,74 0,74 h 170 c 54,-1 46,-73 0,-74 z m -133,30 c -27,-0 -26,40 0,42 h 74 c 30,0 26,-43 0,-42 z" />
    </g>
  </defs>
  <use xlink:href="#icon" style="stroke:#ffffff;stroke-width:50;stroke-linejoin:round" />
  <use xlink:href="#icon" style="fill:#0092da" />
</svg>