<?xml version="1.0" encoding="UTF-8" standalone="no"?>
<svg xmlns="http://www.w3.org/2000/svg" xmlns:xlink="http://www.w3.org/1999/xlink" version="1.0" width="580" height="580">
  <defs>
    <g id="icon">
      <path d="m 160,164 c -29,0 -52,23 -52,52 0,29 23,52 52,52 29,0 52,-23 52,-52 0,-29 -23,-52 -52,-52 z m -129,29 -4,249 c 3,26 34,20 35,1 l 1,-76 455,4 -1,62 c 4,26 34,20 35,1 l 3,-164 c -3,-26 -34,-20 -35,-1 L 518,335 63,332 65,193 C 64,171 31,174 31,193 Z M 255,240 c -58,4 -44,79 0,80 h 209 c 58,-4 50,-81 0,-80 z m -160,35 c -30,3 -23,42 0,43 h 90 c 30,-3 23,-43 0,-43 z" />
    </g>
  </defs>
  <use xlink:href="#icon" style="stroke:#ffffff;stroke-width:50;stroke-linejoin:round" />
  <use xlink:href="#icon" style="fill:#0092da" />
</svg>