<?xml version="1.0" encoding="UTF-8" standalone="no"?>
<svg xmlns="http://www.w3.org/2000/svg" xmlns:xlink="http://www.w3.org/1999/xlink" version="1.0" width="580" height="580">
  <defs>
    <g id="icon">
      <path opacity="0.8" d="m 101,114 c 1,82 -1,164 1,246 4,12 18,16 29,14 112,-0 225,1 337,-1 12,-3 18,-18 15,-29 -0,-82 1,-163 -1,-245 C 480,89 470,83 461,84 346,85 231,83 116,85 c -12,3 -17,17 -15,28 z" />
      <path d="m 438,102 0,379 c 0,6 5,10 10,10 l 17,0 c 5,0 10,-4 10,-10 l 0,-379 c 0,-5 -5,-10 -11,-10 l -16,0 c -5,0 -10,5 -10,10 z m -327,2 1,376 c 0,5 4,10 10,10 l 16,0 c 5,0 10,-5 10,-10 l 0,-376 c 0,-6 -5,-10 -10,-10 l -17,0 c -5,0 -10,4 -10,10 z" />
    </g>
  </defs>
  <use xlink:href="#icon" style="stroke:#ffffff;stroke-width:50;stroke-linejoin:round" />
  <use xlink:href="#icon" style="fill:#734a08" />
  <path fill="#ffffff" d="m 284,101 c -19,25 -37,50 -55,76 -5,3 -5,13 3,12 13,-4 24,-10 37,-14 -1,9 -1,27 -1,49 5,6 36,6 41,-1 l 0,-49 c 11,4 22,9 33,13 7,5 13,-4 8,-9 -18,-25 -35,-51 -54,-76 -1,-3 -4,-5 -6,-5 -2,0 -5,1 -6,4 z m 26,146 c -1,17 -1,34 -1,52 -16,-17 -32,-33 -49,-49 -9,-11 -25,-12 -24,-1 -2,34 0,71 0,105 0,8 27,10 32,1 1,-18 0,-36 1,-53 18,18 47,60 60,58 5,1 10,0 13,-4 0,-36 0,-73 -1,-110 0,-3 -8,-5 -15,-5 -8,0 -16,2 -16,6 z" />
</svg>