<?xml version="1.0" encoding="UTF-8" standalone="no"?>
<svg xmlns="http://www.w3.org/2000/svg" xmlns:xlink="http://www.w3.org/1999/xlink" version="1.0" width="580" height="580">
  <defs>
    <g id="icon">
      <path d="m 254,120 c -1,-21 18,-39 38,-38 23,-1 47,20 41,44 -2,25 -33,44 -56,32 C 264,151 254,136 254,120 m -43,364 c -0,-7 -0,-13 -1,-20 13,-2 26,-2 38,-6 15,-10 9,-22 9,-49 1,-43 1,-86 -1,-129 -11,-12 -28,-11 -43,-13 V 251 c 32,-1 65,-13 88,-37 4,-4 16,-1 22,-2 -1,80 1,179 1,246 14,5 30,5 44,10 -0,6 -0,11 -0,17 -17,-1 -81,-5 -158,-1 z" />
    </g>
  </defs>
  <use xlink:href="#icon" style="stroke:#ffffff;stroke-width:50;stroke-linejoin:round" />
  <use xlink:href="#icon" style="fill:#734a08" />
</svg>