<?xml version="1.0" encoding="UTF-8" standalone="no"?>
<svg xmlns="http://www.w3.org/2000/svg" xmlns:xlink="http://www.w3.org/1999/xlink" version="1.0" width="580" height="580">
  <defs>
    <g id="icon">
      <path opacity="0.1" d="m 116,334 c -10,0 -19,6 -23,12 -19,35 -37,72 -55,108 -9,22 11,41 31,41 h 441 c 21,-1 41,-21 31,-41 -20,-33 -35,-78 -55,-108 -4,-6 -14,-12 -23,-12 z" />
      <path opacity="0.9" d="m 116,334 c -10,0 -19,6 -23,12 -18,32 -37,71 -55,107 -10,22 12,41 31,41 h 442 c 22,-2 41,-20 31,-41 -20,-34 -41,-78 -55,-107 -4,-6 -13,-12 -23,-12 H 116 m 2,32 h 344 l 6,10 H 112 l 6,-10 m -10,18 h 364 l 6,13 H 102 l 6,-13 m -10,22 h 384 l 8,15 H 90 l 8,-15 m -12,23 h 408 l 16,32 H 70 l 16,-32" />
      <path d="M 127,47 C 110,47 95,62 95,79 v 232 c 0,17 15,32 32,32 h 326 c 17,0 32,-15 32,-32 V 79 C 485,62 470,47 453,47 Z m 0,32 H 453 V 311 H 127 Z" />
      <rect opacity="0.1" width="358" height="264" x="111" y="63" rx="16" />
      <path d="M 302,99 C 328,110 311,144 290,134 269,124 279,96 302,99 Z M 259,289 v -9 c 6,-1 12,-1 18,-3 7,-5 6,-15 6,-23 1,-21 -1,-41 -1,-62 -5,-6 -13,-5 -20,-6 v -8 c 15,-1 31,-6 42,-17 2,-2 9,-1 12,-1 -1,33 -1,85 -1,118 7,2 14,3 21,5 v 8 c -9,-1 -67,-2 -75,0 z" />
    </g>
  </defs>
  <use xlink:href="#icon" style="stroke:#ffffff;stroke-width:50;stroke-linejoin:round" />
  <use xlink:href="#icon" style="fill:#734a08" />
</svg>