<?xml version="1.0" encoding="UTF-8" standalone="no"?>
<svg xmlns="http://www.w3.org/2000/svg" width="580" height="580" version="1.0">
  <circle style="stroke:#ffffff;stroke-width:25;" cx="290" cy="290" r="270" />
  <circle style="fill:#f1ede6;stroke:#734a08;stroke-width:25;" cx="290" cy="290" r="245" />
  <path fill="#734a08" d="m 258,143 c -1,-19 16,-35 34,-34 21,-1 42,18 37,40 -2,23 -29,40 -50,29 -13,-7 -22,-20 -21,-35 m -39,329 c -0,-6 -0,-12 -1,-18 11,-2 30,-2 42,-5 -1,-43 2,-115 1,-161 -10,-11 -26,-10 -39,-12 v -15 c 29,-1 59,-12 79,-33 6,-0 11,2 21,1 -0,69 -0,156 0,220 13,5 27,5 40,9 -0,5 -0,10 -0,15 -15,-1 -74,-4 -142,-1 z" />
</svg>