<?xml version="1.0" encoding="UTF-8" standalone="no"?>
<svg xmlns="http://www.w3.org/2000/svg" xmlns:xlink="http://www.w3.org/1999/xlink" version="1.0" width="580" height="580">
  <defs>
    <g id="icon">
      <path fill-opacity="0.5" d="m 269,179 c -55,0 -106,7 -143,19 C 100,207 62,225 61,253 c 2,15 20,11 20,0 4,-19 36,-31 51,-36 C 167,206 215,199 269,199 c 15,-2 11,-20 0,-20 z m 0,96 c -55,0 -106,7 -143,19 C 100,303 62,321 61,349 c 2,15 20,11 20,0 4,-19 36,-31 51,-36 C 167,302 215,295 269,295 c 15,-2 11,-20 0,-20 z m 0,97 c -55,0 -106,7 -143,19 C 100,400 62,418 61,446 c 2,15 20,11 20,0 4,-19 36,-31 51,-36 C 167,399 215,392 269,392 c 15,-2 11,-20 0,-20 z" />
      <path d="M 269,43 C 205,50 73,51 56,122 v 325 c 20,73 151,77 211,78 v 0 C 277,527 285,520 285,510 V 189 59 c -0,-9 -8,-16 -16,-16 z m -14,30 v 98 c -49,-5 -119,-6 -159,-36 -14,-11 -10,-18 0,-26 C 140,81 209,74 255,73 Z M 86,164 c 50,27 120,35 169,36 v 82 C 204,280 124,275 86,239 Z m 0,100 c 49,29 120,37 169,38 v 83 c -54,-2 -123,-7 -169,-42 z m 0,104 c 49,28 120,35 169,37 v 89 C 222,501 101,485 86,446 Z" />
      <path d="m 514,107 -191,65 c -6,2 -10,8 -10,14 -0,118 0,205 0,322 0,10 10,18 20,14 l 191,-65 c 6,-2 10,-8 10,-14 0,-118 0,-205 0,-322 -3,-11 -10,-17 -20,-14 z M 493,146 449,236 343,272 V 197 Z M 504,168 v 49 l -29,10 z m 0,81 v 72 l -90,30 42,-87 z M 430,274 388,361 343,376 v -72 z m 74,79 v 79 l -155,53 46,-95 z M 369,399 343,453 v -45 z" />
    </g>
  </defs>
  <use xlink:href="#icon" style="stroke:#ffffff;stroke-width:50;stroke-linejoin:round" />
  <use xlink:href="#icon" style="fill:#666666" />
</svg>