<?xml version="1.0" encoding="UTF-8" standalone="no"?>
<svg xmlns="http://www.w3.org/2000/svg" version="1.0" width="580" height="580" fill="#ffffff">
  <path style="stroke:#ffffff;stroke-width:50;stroke-linejoin:round" d="M 268,48 65,134 c -6,3 -12,11 -12,17 L 71,425 c 0,6 4,10 8,13 L 305,541 c 5,5 13,5 19,1 L 504,418 c 4,-3 6,-7 6,-11 L 529,132 c -0,-8 -5,-15 -13,-17 L 277,48 c -3,-1 -7,-0 -9,1 z" />
  <path fill="#39ac39" d="M 268,48 65,134 c -6,3 -12,11 -12,17 L 71,425 c 0,6 4,10 8,13 L 305,541 c 5,5 13,5 19,1 L 504,418 c 4,-3 6,-7 6,-11 L 529,132 c -0,-8 -5,-15 -13,-17 L 277,48 c -3,-1 -7,-0 -9,1 z" />
  <path opacity="0.2" d="M 471,134 317,215 114,146 274,78 Z" />
  <path opacity="0.4" d="M 480,397 331,500 333,242 497,157 Z" />
  <path opacity="0.1" d="M 303,243 299,505 100,414 85,172 Z" />
  <path d="m 297,112 c -14,3 -40,6 -37,25 l -61,-22 -37,17 177,62 32,-15 c 3,-3 -10,-4 -14,-7 -2,-2 22,1 30,-1 17,0 47,-18 23,-33 -28,-17 -62,-25 -95,-27 -6,-0 -12,1 -18,1 z m 64,44 c -19,10 -42,2 -60,-5 -18,-7 2,-17 14,-18 15,2 47,6 46,23 z" />
  <path d="m 108,271 54,31 c 5,0 11,-11 23,-10 16,4 32,17 31,35 -19,0 -37,-4 -55,-8 -17,-4 -41,-11 -51,8 -10,31 9,66 34,84 20,13 44,26 69,19 15,-13 11,9 18,19 l 47,21 c 15,10 2,-10 1,-19 -3,-34 -3,-68 -5,-102 -4,-33 -23,-63 -52,-79 -27,-14 -54,-30 -85,-31 -18,0 -28,15 -29,32 z m 88,89 c 12,1 23,-1 22,16 -4,20 -17,31 -33,21 -13,-5 -27,-24 -17,-32 9,-8 19,-5 28,-5 z" />
  <path d="m 437,320 c -12,-18 -37,8 -44,20 -6,12 -17,41 4,45 C 416,382 431,365 437,347 l 46,-21 c -16,49 -60,83 -107,101 -14,6 -36,2 -39,-15 -6,-42 21,-81 52,-106 21,-15 44,-32 71,-34 11,-1 21,6 24,17 z" />
</svg>