<?xml version="1.0" encoding="UTF-8" standalone="no"?>
<svg xmlns="http://www.w3.org/2000/svg" xmlns:xlink="http://www.w3.org/1999/xlink" version="1.0" width="580" height="580">
  <defs>
    <g id="icon">
      <path d="M 447 76 C 435 76 423 85 422 98 L 422 146 L 158 146 L 158 98 C 152 62 111 76 110 98 L 110 482 C 114 516 157 507 158 482 L 158 434 L 422 434 L 422 482 C 426 516 469 507 470 482 L 470 98 C 468 82 458 76 447 76 z M 158 194 L 422 194 L 422 266 L 158 266 L 158 194 z M 158 314 L 422 314 L 422 386 L 158 386 L 158 314 z " />
    </g>
  </defs>
  <use xlink:href="#icon" style="stroke:#ffffff;stroke-width:50;stroke-linejoin:round" />
  <use xlink:href="#icon" style="fill:#666666" />
</svg>