<?xml version="1.0" encoding="UTF-8" standalone="no"?>
<svg xmlns="http://www.w3.org/2000/svg" xmlns:xlink="http://www.w3.org/1999/xlink" version="1.0" width="580" height="580">
  <defs>
    <g id="icon">
      <path d="m 72,520 c 0,6 5,11 10,11 l 412,0 c 6,0 11,-5 11,-11 l 0,-455 c 0,-5 -5,-10 -11,-10 L 82,55 C 77,55 72,60 72,65 Z" />
  </g>
  </defs>
  <use xlink:href="#icon" style="stroke:#ffffff;stroke-width:50;stroke-linejoin:round" />
  <use xlink:href="#icon" style="fill:#ac39ac" />
  <path fill="#ffffff" opacity="0.9" d="m 93,76 0,434 391,0 0,-434 z" />
  <path fill="#ac39ac" opacity="0.9" d="M 286 188 C 246 188 212 208 192 239 C 186 236 180 243 180 248 L 180 265 C 176 276 176 287 176 298 C 176 310 176 321 180 331 L 180 353 C 181 360 189 364 195 361 C 215 390 249 409 286 409 C 342 409 389 367 396 312 C 400 305 400 296 396 289 C 392 233 344 188 286 188 z M 286 209 C 329 209 365 239 374 280 L 357 280 C 323 280 325 321 357 321 L 373 321 C 362 360 328 388 286 388 C 245 388 211 361 200 324 L 200 273 C 211 236 245 209 286 209 z " />
  <path fill="#ac39ac" opacity="0.2" d="m 374,280 -17,0 c -34,0 -32,41 0,41 l 16,-0 c -11,39 -45,67 -87,67 -41,0 -75,-27 -86,-64 l 0,-51 c 11,-37 45,-64 86,-64 43,0 79,30 88,71 z" />
  <path fill="#ac39ac" opacity="0.9" d="m 346,118 c 0,11 -9,20 -20,20 -11,0 -20,-9 -20,-20 0,-11 9,-20 20,-20 11,0 20,9 20,20 z" />
  <path fill="#ac39ac" opacity="0.9" d="m 403,118 c 0,11 -9,20 -19,20 -11,0 -20,-9 -20,-20 0,-11 9,-20 20,-20 10,0 19,9 19,20 z" />
  <path fill="#ac39ac" opacity="0.9" d="m 461,118 c 0,11 -9,20 -20,20 -11,0 -20,-9 -20,-20 0,-11 9,-20 20,-20 11,0 20,9 20,20 z" />
</svg>