<?xml version="1.0" encoding="UTF-8" standalone="no"?>
<svg xmlns="http://www.w3.org/2000/svg" xmlns:xlink="http://www.w3.org/1999/xlink" version="1.0" width="580" height="580">
  <defs>
    <g id="icon">
      <path d="m 376,172 c -75,17 -151,33 -226,50 -19,6 -24,36 -7,47 14,11 33,2 48,-1 90,-20 180,-39 269,-59 20,-7 24,-38 5,-49 -4,-3 -9,-4 -13,-4 C 426,160 402,167 376,172 Z"/>
      <path d="m 398,413 c 0,14 14,25 27,24 14,-0 28,0 41,-0 14,-1 24,-14 23,-28 l 0,-132 C 489,264 475,253 462,254 l -39,0 c -14,-0 -27,13 -25,27 z" />
      <path d="m 95,176 c 0,79 -0,158 0,237 1,18 20,31 37,28 14,-1 29,2 43,-3 13,-6 20,-22 18,-36 l 0,-137 c -15,4 -33,14 -48,4 -17,-9 -13,-38 4,-44 14,-4 32,-5 43,-11 -0,-17 1,-34 -1,-51 -4,-16 -21,-26 -37,-24 C 146,139 136,139 127,139 108,138 93,157 95,176 Z" />
    </g>
  </defs>
  <use xlink:href="#icon" style="stroke:#ffffff;stroke-width:50;stroke-linejoin:round" />
  <use xlink:href="#icon" style="fill:#666666" />
</svg>