<?xml version="1.0" encoding="UTF-8" standalone="no"?>
<svg xmlns="http://www.w3.org/2000/svg" xmlns:xlink="http://www.w3.org/1999/xlink" version="1.0" width="580" height="580">
  <defs>
    <g id="icon">
      <path d="M 297,32 72,156 c -3,2 -3,5 -1,8 l 228,259 c 2,2 4,2 6,1 l 219,-125 c 3,-2 3,-5 1,-8 l -222,-258 c -2,-2 -4,-2 -6,-1 z" />
      <path d="m 57,189 -1,96 c -0,1 0,2 1,3 l 226,256 c 3,3 9,1 9,-3 l -1,-97 c -0,-1 -0,-2 -1,-3 L 66,186 c -3,-3 -9,-0 -9,3 z" />
      <g opacity="0.75">
        <path d="m 516,320 -207,121 c -9,7 -1,21 8,17 l 206,-121 c 9,-6 3,-23 -7,-17 z" />
        <path d="m 516,360 -207,121 c -9,7 -1,21 8,17 l 206,-121 c 9,-6 3,-23 -7,-17 z" />
        <path d="m 516,400 -207,121 c -9,7 -1,21 8,17 l 206,-121 c 9,-5 3,-22 -7,-17 z" />
      </g>
    </g>
  </defs>
  <use xlink:href="#icon" style="stroke:#ffffff;stroke-width:50;stroke-linejoin:round" />
  <use xlink:href="#icon" style="fill:#ac39ac" />
</svg>