<?xml version="1.0" encoding="UTF-8" standalone="no"?>
<svg xmlns="http://www.w3.org/2000/svg" xmlns:xlink="http://www.w3.org/1999/xlink" version="1.0" width="580" height="580">
  <defs>
    <g id="icon">
      <path fill="#ac39ac" d="M 97,51 48,154 c -1,3 -0,6 3,7 30,14 63,16 97,1 29,13 61,15 94,0 29,13 61,14 94,-0 34,13 63,14 94,0 30,13 63,14 96,-1 3,-1 4,-5 3,-7 L 480,51 c -1,-2 -3,-3 -5,-3 L 102,48 c -2,0 -4,1 -5,3" />
      <path fill="#ffffff" d="m 181,59 h 64 l -10,93 c -29,13 -56,12 -82,0 z" />
      <path fill="#ffffff" d="m 332,59 h 64 l 26,94 c -29,12 -56,11 -82,-1 z" />
      <path fill="#ac39ac" d="m 114,405 v 124 c 3,18 25,14 25,-0 V 405 h 295 v 124 c 1,22 26,15 25,-0 L 459,405 h 29 c 22,-3 16,-29 0,-29 H 89 c -22,3 -16,29 -0,29 z" />
      <path fill="#ac39ac" d="m 128,200 c 3,12 11,26 25,28 6,1 16,1 11,-7 -3,-12 -14,-20 -26,-20 -4,-1 -7,-1 -10,-1 m 44,10 c 3,14 3,29 4,44 3,-15 5,-29 8,-44 -2,-2 -17,-8 -12,0 z m 16,30 c 11,4 24,2 33,-6 6,-6 10,-14 13,-22 -11,0 -23,-1 -32,6 -8,5 -13,13 -14,22 m -42,98 c 3,5 10,7 15,7 6,1 13,-6 16,-7 7,9 22,9 29,1 12,-16 23,-36 25,-54 1,-16 -12,-31 -28,-33 -10,-1 -21,1 -27,9 -14,-14 -39,-11 -50,4 -4,6 -6,12 -6,19 2,22 14,39 26,54 z" />
      <path fill="#ac39ac" d="m 428,230 c -6,1 -13,1 -19,3 -18,5 -36,14 -55,13 -12,1 -24,6 -34,14 -8,5 -16,11 -17,20 -3,18 6,35 20,46 16,14 38,23 60,19 13,-5 19,-19 24,-30 3,-11 2,-24 11,-33 7,-8 15,-16 20,-26 3,-7 6,-11 12,-12 7,0 22,-3 16,-12 -3,-7 -12,-8 -17,-13 -2,-1 -3,-0 -5,0 C 442,221 434,228 428,230 Z" />
      <path fill="#ffffff" opacity="0.8" d="m 435,246 c -5,4 -6,-2 -8,-4 -7,3 0,-9 4,-8 6,-2 9,-7 13,-10 3,-3 6,0 8,3 10,3 20,12 3,12 -5,0 -17,6 -20,7 z" />
      <path fill="#ffffff" opacity="0.8" d="m 368,279 c 12,12 23,27 25,44 0,6 -1,12 -6,16 -13,6 -29,2 -41,-5 -14,-8 -28,-18 -34,-33 -4,-9 -4,-21 3,-29 5,-6 14,-6 21,-5 14,-0 22,6 32,12 z" />
      <path fill="#ac39ac" d="m 328,294 c 1,7 11,10 18,9 9,-4 -1,-18 -9,-16 -4,-1 -9,3 -9,7 m 16,1 c 5,9 -16,2 -10,-3 4,-1 8,0 10,3" />
    </g>
  </defs>
  <use xlink:href="#icon" style="stroke:#ffffff;stroke-width:50;stroke-linejoin:round" />
  <use xlink:href="#icon" />
</svg>