<?xml version="1.0" encoding="UTF-8" standalone="no"?>
<svg xmlns="http://www.w3.org/2000/svg" xmlns:xlink="http://www.w3.org/1999/xlink" version="1.0" width="580" height="580">
  <defs>
    <g id="icon">
      <path d="m 37,76 c 41,-22 76,-20 111,-39 19,4 33,2 45,0 39,18 74,21 111,40 -3,19 -10,36 -21,50 -14,-7 -27,-10 -39,-11 l -1,132 c -54,10 -100,6 -144,0 L 98,116 C 82,116 70,121 58,127 46,110 40,93 37,76 Z" />
      <path d="m 359,66 c -6,0 -9,7 -13,11 -10,11 -20,23 -28,36 -4,6 3,10 6,14 34,41 68,81 102,122 4,3 6,5 10,-0 C 450,232 508,161 542,120 c 4,-6 -1,-10 -4,-13 -11,-14 -21,-27 -33,-40 -4,-3 -11,-1 -17,-1 z m 16,14 c 3,10 6,18 9,28 h -44 c 9,-10 16,-18 24,-28 z m 95,0 c -3,10 -6,18 -9,28 l -62,0 C 396,99 393,90 390,80 c 21,0 55,0 80,0 z m 27,0 c 7,10 16,18 23,28 h -44 c 3,-10 6,-18 9,-28 -4,0 11,0 12,0 z m -111,43 c 9,30 17,60 26,90 -23,-30 -48,-60 -72,-90 z m 16,0 h 55 c -9,31 -17,64 -27,95 -10,-31 -18,-64 -28,-95 z m 71,0 h 48 c -26,30 -50,60 -75,90 10,-30 18,-60 27,-90 z" />
      <g>
        <path d="m 450,340 c 41,11 67,-9 80,-48 -37,-2 -74,9 -80,48 z" />
        <path d="m 335,414 c 2,35 26,97 65,102 11,0 20,-6 28,-13 6,7 15,13 24,13 9,0 20,-4 28,-11 v 0 c 22,-28 37,-61 43,-93 v 0 0 c 0,-32 -26,-56 -56,-56 -15,0 -28,6 -39,15 -9,-9 -24,-15 -46,-15 -35,7 -44,34 -47,58 z" />
        <path d="m 348,271 c 6,37 37,54 65,46 0,-33 -43,-46 -65,-46 z" />
        <path d="m 426,280 c -6,0 -7,4 -6,9 6,26 6,48 7,74 h 2 l 15,-76 c -6,-4 -11,-7 -19,-7 z" />
      </g>
      <g>
        <path d="m 57,323 c -2,1 -2,3 -1,4 l 115,151 c 1,1 2,1 3,1 l 125,-60 c 2,-1 2,-3 1,-4 L 189,265 c -1,-1 -2,-1 -3,-1 -43,19 -86,39 -129,59 z" />
        <path d="m 42,340 -4,53 c 0,1 0,1 1,2 l 113,149 c 2,2 5,1 5,-1 l 3,-53 c 0,-1 0,-1 -1,-2 L 47,339 c -2,-2 -5,-1 -5,1 z" />
        <path fill-opacity="0.7" d="m 295,440 c -41,19 -85,41 -120,59 -6,5 1,14 7,8 38,-19 77,-38 115,-57 4,-2 3,-10 -2,-10 z" />
        <path fill-opacity="0.7" d="m 293,472 c -41,19 -85,41 -120,59 -6,5 1,14 7,8 38,-19 77,-38 115,-57 4,-3 3,-10 -2,-10 z" />
      </g>
    </g>
  </defs>
  <use xlink:href="#icon" style="stroke:#ffffff;stroke-width:50;stroke-linejoin:round" />
  <use xlink:href="#icon" style="fill:#ac39ac" />
</svg>