<?xml version="1.0" encoding="UTF-8" standalone="no"?>
<svg xmlns="http://www.w3.org/2000/svg" xmlns:xlink="http://www.w3.org/1999/xlink" version="1.0" width="580" height="580">
  <defs>
    <g id="icon">
      <path d="m 164,118 252,0 0,246 c 0,131 -252,131 -252,0 z" />
    </g>
  </defs>
  <use xlink:href="#icon" style="stroke:#ffffff;stroke-width:50;stroke-linejoin:round" />
  <use xlink:href="#icon" style="fill:#734a08" />
  <g style="fill:none;stroke:#ffffff;stroke-width:10">
    <path d="m 203,174 c 4,-16 19,-12 25,-4 7,-3 21,-9 20,4 10,-5 24,-19 32,-3 13,-6 27,-11 36,-1 17,-7 30,0 46,-5 8,16 21,-17 28,7" />
    <path d="m 217,214 c 8,-17 22,-16 32,-5 12,-4 28,-17 31,4 13,-7 20,1 31,-10 20,-4 44,25 56,0 3,-2 7,0 9,3" />
    <path d="m 250,281 c 17,-7 36,-8 50,4 15,-5 23,-10 37,-4" />
    <path d="m 235,319 c 13,7 31,-10 40,5 21,4 40,-16 60,-4 12,10 23,-21 27,-2" />
    <path d="m 240,397 c 16,-18 34,21 44,-6 10,-6 13,24 24,5 9,-8 25,11 30,-4 3,2 5,4 7,6" />
    <path d="m 203,359 c 15,-23 29,17 44,-3 11,-7 16,13 30,1 13,-4 16,18 26,0 10,-7 15,18 29,4 14,-11 23,18 36,-1 7,-5 9,7 15,5" />
  </g>
</svg>