<?xml version="1.0" encoding="UTF-8" standalone="no"?>
<svg xmlns="http://www.w3.org/2000/svg" xmlns:xlink="http://www.w3.org/1999/xlink" version="1.0" width="580" height="580">
  <defs>
    <g id="icon">
      <path d="m 164,116 0,284 c 0,2 252,1 252,0 l 0,-284 C 416,104 407,94 395,94 l -209,0 c -11,0 -22,10 -22,22 z" />
      <path d="m 149,433 281,0 c 1,0 -14,-21 -14,-21 l -253,0 z" />
      <path d="m 145,451 0,33 c 0,1 1,2 2,2 l 285,0 c 1,0 2,-1 2,-2 l 0,-33 c 0,-1 -1,-1 -2,-1 l -285,0 c -1,0 -2,0 -2,1 z" />
    </g>
  </defs>
  <use xlink:href="#icon" style="stroke:#ffffff;stroke-width:50;stroke-linejoin:round" />
  <use xlink:href="#icon" style="fill:#734a08" />
  <path fill="#ffffff" d="m 187,163 c 29,18 56,37 82,59 -13,13 -26,27 -37,39 -11,-8 -28,-8 -37,3 -9,11 -12,30 -1,41 -5,6 -11,14 -7,23 4,11 19,9 23,0 8,-10 17,-20 25,-30 9,5 18,-7 14,-16 13,-14 26,-28 41,-41 14,13 28,27 41,41 -5,8 5,21 14,16 8,10 17,20 25,30 4,9 19,11 23,-0 4,-8 -2,-17 -7,-23 12,-11 9,-30 -1,-41 -9,-11 -26,-11 -37,-3 -13,-14 -25,-27 -37,-39 26,-22 53,-42 82,-59 3,-2 3,-8 -25,-1 -19,4 -50,19 -78,42 -28,-22 -59,-38 -78,-42 -6,-2 -34,-5 -25,1 z m 19,126 c 1,-6 0,-11 7,-11 7,0 -7,12 -7,11 z m 168,-4e-4 c -0,2 -14,-11 -7,-11 7,-0 7,7 7,11 z" />
</svg>