<?xml version="1.0" encoding="UTF-8" standalone="no"?>
<svg xmlns="http://www.w3.org/2000/svg" xmlns:xlink="http://www.w3.org/1999/xlink" version="1.0" width="580" height="580">
  <defs>
    <g id="icon">
      <path d="m 290,33 c -9,0 -16,3 -22,9 -6,6 -9,14 -9,23 0,9 3,16 9,22 6,6 14,10 22,10 9,0 16,-3 22,-10 6,-6 9,-14 9,-22 0,-9 -3,-17 -9,-23 -6,-6 -14,-9 -22,-9 z" />
      <path d="m 258,103 c -25,2 -41,19 -41,42 l 0,99 c 0,9 5,14 13,14 11,0 13,-0 17,-0 l 0,151 c 0,12 6,18 17,18 l 0,0 0,0 51,0 0,0 0,-0 c 12,-0 17,-6 17,-18 l 0,-151 c 3,0 6,0 17,0 9,0 13,-5 13,-14 l 0,-99 c -0,-23 -16,-40 -41,-42 -21,1 -42,0 -63,0 z" />
      <path d="m 213,447 c -13,0 -24,11 -24,24 l 0,17 203,0 0,-17 c -0,-13 -11,-24 -24,-24 z" />
      <path d="m 175,506 c -13,0 -24,11 -24,24 l 0,17 277,0 0,-17 c -10e-4,-13 -11,-24 -24,-24 z" />
    </g>
  </defs>
  <use xlink:href="#icon" style="stroke:#ffffff;stroke-width:50;stroke-linejoin:round" />
  <use xlink:href="#icon" style="fill:#734a08" />
</svg>