<?xml version="1.0" encoding="UTF-8" standalone="no"?>
<svg xmlns="http://www.w3.org/2000/svg" xmlns:xlink="http://www.w3.org/1999/xlink" version="1.0" width="580" height="580">
  <defs>
    <g id="icon">
      <path d="m 164,116 0,284 c 0,2 252,1 252,0 l 0,-284 C 416,104 407,94 395,94 l -209,0 c -11,0 -22,10 -22,22 z" />
      <path d="m 149,433 281,0 c 1,0 -14,-21 -14,-21 l -253,0 z" />
      <path d="m 145,451 0,33 c 0,1 1,2 2,2 l 285,0 c 1,0 2,-1 2,-2 l 0,-33 c 0,-1 -1,-1 -2,-1 l -285,0 c -1,0 -2,0 -2,1 z" />
    </g>
  </defs>
  <use xlink:href="#icon" style="stroke:#ffffff;stroke-width:50;stroke-linejoin:round" />
  <use xlink:href="#icon" style="fill:#734a08" />
  <g fill="none" stroke="#ffffff" stroke-width="10">
    <path d="m 198,138 c 4,-16 19,-12 25,-4 7,-3 21,-9 20,4 10,-5 24,-19 32,-3 13,-6 27,-11 36,-1 17,-7 30,0 46,-5 8,16 21,-17 28,7" />
    <path d="m 212,178 c 8,-17 22,-16 32,-5 12,-4 28,-17 31,4 13,-7 20,1 31,-10 20,-4 44,25 56,0 3,-2 7,0 9,3" />
    <path d="m 245,245 c 17,-7 36,-8 50,4 15,-5 23,-10 37,-4" />
    <path d="m 230,283 c 13,7 31,-10 40,5 21,4 40,-16 60,-4 12,10 23,-21 27,-2" />
    <path d="m 235,361 c 16,-18 34,21 44,-6 10,-6 13,24 24,5 9,-8 25,11 30,-4 3,2 5,4 7,6" />
    <path d="m 198,323 c 15,-23 29,17 44,-3 11,-7 16,13 30,1 13,-4 16,18 26,-0 10,-7 15,18 29,4 14,-11 23,18 36,-1 7,-5 9,7 15,5" />
  </g>
</svg>