<?xml version="1.0" encoding="UTF-8" standalone="no"?>
<svg xmlns="http://www.w3.org/2000/svg" xmlns:xlink="http://www.w3.org/1999/xlink" version="1.0" width="580" height="580">
  <defs>
    <g id="icon">
      <path d="M 289,35 C 277,35 253,56 247,76 241,96 228,424 228,424 H 348 C 348,424 336,98 331,76 326,54 302,35 289,35 Z" />
      <path d="m 213,446 c -13,10e-4 -24,11 -24,24 l 0,17 203,0 0,-17 c -0,-13 -11,-24 -24,-24 z" />
      <path d="m 175,505 c -13,10e-4 -24,11 -24,24 l 0,17 277,0 0,-17 c -10e-4,-13 -11,-24 -24,-24 z" />
    </g>
  </defs>
  <use xlink:href="#icon" style="stroke:#ffffff;stroke-width:50;stroke-linejoin:round" />
  <use xlink:href="#icon" style="fill:#734a08" />
</svg>