<?xml version="1.0" encoding="UTF-8" standalone="no"?>
<svg xmlns="http://www.w3.org/2000/svg" xmlns:xlink="http://www.w3.org/1999/xlink" version="1.0" width="580" height="580">
  <defs>
    <g id="icon">
      <path d="m 213,164 c -27,0 -49,22 -49,49 l 0,155 c 0,27 22,49 49,49 l 155,0 C 394,416 416,394 416,367 l 0,-155 C 416,186 394,164 367,164 Z" />
    </g>
  </defs>
  <use xlink:href="#icon" style="stroke:#ffffff;stroke-width:50;stroke-linejoin:round" />
  <use xlink:href="#icon" style="fill:#734a08" />
  <g style="fill:none;stroke:#ffffff;stroke-width:8">
    <path d="m 218,205 c 3,-13 16,-10 20,-3 6,-2 17,-7 16,3 8,-4 20,-16 26,-2 11,-5 22,-9 29,-1 14,-6 25,0 38,-4 7,13 17,-14 23,6" />
    <path d="m 229,238 c 7,-14 18,-13 26,-4 10,-3 23,-14 25,3 11,-6 16,1 25,-8 16,-3 36,20 46,0 2,-2 6,0 7,2" />
    <path d="m 256,293 c 14,-6 29,-7 41,3 12,-4 19,-8 30,-3" />
    <path d="m 244,324 c 11,6 25,-8 33,4 17,3 33,-13 49,-3 10,8 19,-17 22,-2" />
    <path d="m 248,388 c 13,-15 28,17 36,-5 8,-5 11,20 20,4 7,-7 20,9 25,-3 2,2 4,3 6,5" />
    <path d="m 218,357 c 12,-19 24,14 36,-2 9,-6 13,11 25,1 11,-3 13,15 21,0 8,-6 12,15 24,3 11,-9 19,15 29,-1 6,-4 7,6 12,4" />
  </g>
</svg>