<?xml version="1.0" encoding="UTF-8" standalone="no"?>
<svg xmlns="http://www.w3.org/2000/svg" xmlns:xlink="http://www.w3.org/1999/xlink" version="1.0" width="580" height="580">
  <defs>
    <g id="icon">
      <path d="m 262,50 c -33,0 -60,27 -60,60 0,6 1,11 2,16 h 24 c 6,14 25,23 37,24 25,4 50,-31 39,-54 h 16 C 314,69 290,50 262,50 Z M 122,265 c -9,15 -3,35 10,43 l 96,53 v 90 c 3,33 46,31 46,0 V 338 c 0,0 3,-18 -17,-28 l -60,-31 44,-66 23,36 c 5,7 11,10 17,10 h 59 c 24,0 24,-31 0,-31 h -49 l -48,-74 c -15,-14 -37,-14 -49,1 -23,37 -48,74 -72,110 z m 232,0 c -13,1 -13,20 0,19 h 27 c 5,0 10,3 12,8 l 39,80 19,-7 -42,-83 c -5,-10 -16,-17 -28,-17 z m 112,23 c -11,0 -22,3 -35,7 l 10,21 c 11,-9 21,-12 29,-12 10,-2 35,14 36,2 -2,-13 -34,-18 -40,-18 z m -83,19 -90,26 v 130 c 10,0 18,-5 25,-11 l 88,-100 z m -311,3 c -11,1 -43,7 -43,18 2,11 27,-2 36,-2 8,0 19,2 27,7 l 116,63 V 374 L 107,318 c -14,-7 -25,-8 -34,-8 z m 44,67 c -47,0 -85,38 -85,86 0,47 38,86 85,86 47,0 86,-38 86,-86 0,-47 -38,-86 -86,-86 z m 354,0 c -47,0 -86,38 -86,86 0,47 38,86 86,86 47,0 85,-38 85,-86 0,-47 -38,-86 -85,-86 z m -354,26 c 33,0 59,27 59,59 0,33 -27,59 -59,59 -33,0 -59,-27 -59,-59 0,-33 27,-59 59,-59 z m 354,0 c 33,0 59,27 59,59 0,33 -27,59 -59,59 -33,0 -59,-27 -59,-59 0,-33 26,-59 59,-59 z" />
      <path d="m 401,27 c -3,0 -6,3 -6,6 V 215 c 0,3 2,5 4,6 h 26 c 3,0 6,-3 6,-6 v -69 h 41 c 42,0 73,-22 74,-61 0,-46 -40,-58 -76,-58 z m 30,33 h 41 c 21,0 38,6 38,26 0,23 -22,27 -38,28 h -41 z" />
    </g>
  </defs>
  <use xlink:href="#icon" style="stroke:#ffffff;stroke-width:50;stroke-linejoin:round" />
  <use xlink:href="#icon" style="fill:#0092da" />
</svg>