<?xml version="1.0" encoding="UTF-8" standalone="no"?>
<svg xmlns="http://www.w3.org/2000/svg" xmlns:xlink="http://www.w3.org/1999/xlink" version="1.0" width="580" height="580">
  <defs>
    <g id="icon">
      <path d="m 72,144 0,33 212,-86 218,84 0,-33 -216,-89 z" />
      <path d="m 131,175 65,-1 91,-30 92,32 62,1 -153,-65 z" />
      <path d="M 72 194 L 72 230 L 90 230 L 90 428 L 72 428 L 72 446 L 505 446 L 505 428 L 487 428 L 487 230 L 505 230 L 505 194 L 72 194 z M 127 230 L 163 230 L 163 428 L 127 428 L 127 230 z M 199 230 L 235 230 L 235 428 L 199 428 L 199 230 z M 271 230 L 307 230 L 307 428 L 271 428 L 271 230 z M 343 230 L 379 230 L 379 428 L 343 428 L 343 230 z M 415 230 L 451 230 L 451 428 L 415 428 L 415 230 z " />
      <path d="m 53.7,482 469.3,0 0,-18 -469.3,0 z" />
      <path d="m 36,518 505,0 0,-18 -505,0 z" />
    </g>
  </defs>
  <use xlink:href="#icon" style="stroke:#ffffff;stroke-width:50;stroke-linejoin:round" />
  <use xlink:href="#icon" style="fill:#734a08" />
</svg>