<?xml version="1.0" encoding="UTF-8" standalone="no"?>
<svg xmlns="http://www.w3.org/2000/svg" xmlns:xlink="http://www.w3.org/1999/xlink" version="1.0" width="580" height="580">
  <defs>
    <g id="icon">
      <path d="M 293 95 L 74 166 L 41 166 L 41 236 L 88 236 L 88 436 L 66 436 L 37 485 L 543 484 L 516 436 L 490 436 L 490 236 L 540 236 L 540 166 L 507 166 L 293 95 z M 134 236 L 204 236 L 204 436 L 134 436 L 134 236 z M 250 236 L 328 236 L 328 436 L 250 436 L 250 236 z M 374 236 L 444 236 L 444 436 L 374 436 L 374 236 z " />
    </g>
  </defs>
  <use xlink:href="#icon" style="stroke:#ffffff;stroke-width:50;stroke-linejoin:round" />
  <use xlink:href="#icon" style="fill:#734a08" />
</svg>