<?xml version="1.0" encoding="UTF-8" standalone="no"?>
<svg xmlns="http://www.w3.org/2000/svg" xmlns:xlink="http://www.w3.org/1999/xlink" version="1.0" width="580" height="580">
  <defs>
    <g id="icon">
      <path d="m 128,55 c 0,0 23,112 120,88 C 238,82 234,55 128,55 Z m 142,16 c -21,-5 10,115 10,160 l 5,1 27,-148 C 298,79 284,68 270,71 Z m 53,114 C 434,223 472,95 472,95 405,84 335,108 323,185 Z M 106,315 c 6,71 26,131 74,185 37,46 61,34 106,8 52,34 75,23 106,-8 C 436,448 464,371 466,315 457,233 362,185 286,254 217,179 107,243 106,315 Z" />
    </g>
  </defs>
  <use xlink:href="#icon" style="stroke:#ffffff;stroke-width:50;stroke-linejoin:round" />
  <use xlink:href="#icon" style="fill:#ac39ac" />
</svg>