<?xml version="1.0" encoding="UTF-8" standalone="no"?>
<svg xmlns="http://www.w3.org/2000/svg" xmlns:xlink="http://www.w3.org/1999/xlink" version="1.0" width="580" height="580">
  <defs>
    <g id="icon">
      <path d="m 155,123 c -6,0 -11,5 -11,11 v 361 c 0,5 4,10 8,11 l 52,1 c 6,0 11,-5 11,-11 V 359 H 295 C 378,360 440,316 441,238 441,147 363,123 291,123 Z m 60,66 h 81 c 41,0 74,11 75,52 -0,45 -43,54 -74,55 h -81 z" />
      <path d="m 312,377 c -41,-1 -75,43 -65,83 7,32 39,58 72,53 21,-2 41,-14 52,-32 10,-5 22,3 32,-5 7,-4 12,-19 21,-16 5,3 8,13 16,11 7,-3 13,-19 20,-7 4,4 11,11 16,4 6,-10 14,-13 21,-2 5,6 11,5 17,-1 7,-8 16,-15 20,-25 0,-10 -7,-14 -15,-21 -13,-13 -24,-9 -36,-9 -38,-1 -77,1 -112,-1 -18,-20 -38,-33 -59,-32 z m -26,52 c 25,3 18,27 9,32 v 0 c -12,7 -30,-2 -27,-17 2,-10 9,-15 18,-15 z" />
    </g>
  </defs>
  <use xlink:href="#icon" style="stroke:#ffffff;stroke-width:50;stroke-linejoin:round" />
  <use xlink:href="#icon" style="fill:#0092da" />
</svg>