<?xml version="1.0" encoding="UTF-8" standalone="no"?>
<svg xmlns="http://www.w3.org/2000/svg" xmlns:xlink="http://www.w3.org/1999/xlink" version="1.0" width="580" height="580">
  <defs>
    <g id="icon">
      <path d="m 129,148 c -11,18 -4,43 16,53 19,11 44,5 56,-13 10,-32 -6,-59 -36,-59 -18,-1 -30,9 -36,19 z m 311,84 0,0 c 2,22 21,39 43,39 22,0 41,-18 39,-40 -1,-22 -20,-39 -42,-39 -22,0 -41,18 -40,40 z M 57,273 c -25,-2 -25,28 -7,32 l 63,12 c -7,11 -49,55 -24,60 13,4 48,-39 59,-53 l 134,27 c -15,31 -30,62 -45,94 l 106,0 c -14,-30 -29,-61 -43,-91 l 121,24 c 4,15 13,87 36,72 13,1 -1,-51 -2,-66 l 69,14 c 27,3 32,-27 1,-33 -7,-21 -9,-89 -31,-93 -22,-5 -52,53 -66,74 L 157,292 C 148,265 152,200 132,198 112,195 76,245 57,273 Z" />
      <path d="m 319,40 c -41,-1 -75,43 -65,83 7,32 39,58 72,53 21,-2 41,-14 52,-32 10,-5 22,3 32,-5 7,-4 12,-19 21,-16 5,3 8,13 16,11 7,-3 13,-19 20,-7 4,4 11,11 16,4 6,-10 14,-13 21,-2 5,6 11,5 17,-1 7,-8 16,-15 20,-25 0,-10 -7,-14 -15,-21 -13,-13 -24,-9 -36,-9 -38,-1 -77,1 -112,-1 -18,-20 -38,-33 -59,-32 z m -26,52 c 25,3 18,27 9,32 v 0 c -12,7 -30,-2 -27,-17 2,-10 9,-15 18,-15 z" />
    </g>
  </defs>
  <use xlink:href="#icon" style="stroke:#ffffff;stroke-width:50;stroke-linejoin:round" />
  <use xlink:href="#icon" style="fill:#39ac39" />
</svg>