<?xml version="1.0" encoding="UTF-8" standalone="no"?>
<svg xmlns="http://www.w3.org/2000/svg" xmlns:xlink="http://www.w3.org/1999/xlink" version="1.0" width="580" height="580">
  <defs>
    <g id="icon">
      <path d="m 246,113 c 13,36 65,46 91,17 21,-28 23,-86 -40,-94 -52,2 -61,53 -51,77 z m -126,30 c 25,32 49,65 75,96 22,13 20,9 82,4 11,46 21,91 32,137 -29,29 -58,56 -86,86 -33,29 -13,79 66,79 47,-1 93,-1 140,-2 54,-13 34,-79 -1,-79 l -69,1 c 26,-21 52,-41 77,-63 14,-19 13,-46 8,-68 -11,-45 -20,-89 -32,-135 -13,-45 -74,-65 -110,-35 -16,13 -18,16 -34,17 l -38,3 C 210,155 189,127 168,99 129,71 96,110 121,143 Z" />
    </g>
  </defs>
  <use xlink:href="#icon" style="stroke:#ffffff;stroke-width:50;stroke-linejoin:round" />
  <use xlink:href="#icon" />
</svg>