<?xml version="1.0" encoding="UTF-8" standalone="no"?>
<svg xmlns="http://www.w3.org/2000/svg" xmlns:xlink="http://www.w3.org/1999/xlink" version="1.0" width="580" height="580">
  <defs>
    <g id="icon">
      <path d="m 145,51 c -19,4 -31,23 -47,34 -13,8 -23,23 -12,37 15,33 27,70 14,106 -14,44 -40,86 -32,134 5,46 33,88 73,110 45,29 107,51 151,73 25,-11 33,-21 62,-34 51,-24 110,-48 137,-100 23,-44 23,-99 -0,-143 -15,-33 -34,-81 -23,-119 12,-28 33,-44 15,-60 C 467,74 450,57 429,45 412,49 398,62 380,63 340,72 308,47 286,35 271,39 261,55 246,59 214,74 175,68 145,51 Z" />
    </g>
  </defs>
  <use xlink:href="#icon" style="stroke:#ffffff;stroke-width:50;stroke-linejoin:round" />
  <use xlink:href="#icon" style="fill:#D20000" />
  <path opacity="0.9" fill="#ffffff" d="m 445,75 c 25,22 39,23 20,45 -17,31 -19,75 -5,110 12,36 35,67 34,106 C 495,380 477,425 441,449 396,482 358,487 290,529 234,493 169,482 120,436 81,397 72,334 95,285 c 36,-71 35,-101 0,-177 16,-15 32,-28 48,-42 43,25 102,21 139,-13 41,20 77,34 119,20 16,-8 23,-20 44,2 z" />
  <path fill="#D20000" d="m 209,113 c -7,-6 -16,-2 -20,4 l -17,24 c -6,12 -3,20 7,26 l 8,24 c -5,7 -1,25 0,37 -15,5 -36,15 -38,30 -1,7 -2,14 0,20 18,20 48,25 74,24 25,28 12,76 -12,90 -8,4 -16,1 -24,2 -30,5 -30,43 0,48 68,1 103,-87 80,-140 -6,-14 -15,-26 -25,-34 -2,-12 -14,-24 -24,-32 4,-16 -3,-44 -13,-50 l -8,-24 c 5,-9 13,-18 18,-27 l 18,-2 c 10,8 19,16 28,22 -2,13 -2,30 3,41 -5,91 70,122 120,107 14,-5 23,-9 32,-19 18,-25 -12,-51 -31,-35 -7,4 -10,13 -19,16 -44,8 -66,-22 -66,-57 23,-16 44,-52 38,-72 -16,-24 -33,-22 -60,-7 -8,-6 -16,-12 -23,-18 -7,-6 -16,-5 -22,3 -8,-2 -19,6 -24,-1 z m 56,28 c -5,-2 -13,-8 -17,-13 2,-2 5,-5 4,-8 7,5 12,8 18,12 2,1 -5,7 -5,9 z m -61,-9 c -2,5 -8,14 -12,19 -3,-2 -6,-3 -8,-1 4,-8 9,-19 15,-23 1,2 3,4 5,6 z m -4,93 c -2,-6 -3,-18 -2,-22 3,1 5,0 6,-2 4,7 6,18 4,25 -3,-2 -5,-1 -8,-1 z" />
  <path opacity="0.8" fill="#D20000" d="m 190,396 c -69,-6 -70,-102 -3,-111 l -6,-34 C 63,269 86,434 187,438 Z" />
  <path opacity="0.8" fill="#D20000" d="M 387,250 C 439,193 359,135 318,167 L 301,138 C 402,79 492,209 416,278 Z" />
</svg>