<?xml version="1.0" encoding="UTF-8" standalone="no"?>
<svg xmlns="http://www.w3.org/2000/svg" xmlns:xlink="http://www.w3.org/1999/xlink" version="1.0" width="580" height="580">
  <defs>
    <g id="icon">
      <path fill="#8F6E39" d="m 213,539 c -0,2 2,4 4,4 82,1 146,1 229,1 2,0 4,-2 4,-4 l 0,-110 c 0,-2 -2,-4 -4,-4 l -174,0 -6,-242 c -3,-6 -39,-8 -40,-1 z" />
      <path fill="#734a08" d="m 191,80 c 8,36 18,71 26,107 -27,45 -60,86 -83,125 -9,16 10,6 15,0 34,-29 64,-62 98,-92 13,-6 29,1 43,1 36,3 71,9 107,8 21,-2 -7,-14 -15,-16 -40,-14 -81,-23 -121,-37 -11,-9 -16,-25 -21,-38 C 235,127 199,32 187,36 c -5,13 2,29 4,43 z" />
    </g>
  </defs>
  <use xlink:href="#icon" style="stroke:#ffffff;stroke-width:50;stroke-linejoin:round" />
  <use xlink:href="#icon" />
</svg>