<?xml version="1.0" encoding="UTF-8" standalone="no"?>
<svg xmlns="http://www.w3.org/2000/svg" xmlns:xlink="http://www.w3.org/1999/xlink" version="1.0" width="580" height="580">
  <defs>
    <g id="icon">
      <path fill="#734a08" d="m 76,520 c -1,3 2,6 5,6 144,0 287,-1 430,-1 2,0 4,-2 4,-4 v -121 c 0,-2 -2,-4 -4,-4 H 290 c -9,-74 -10,-142 -3,-211 0,-4 -4,-7 -7,-5 -55,18 -127,19 -172,0 -4,-2 -7,2 -7,5 C 110,292 103,395 76,520 Z" />
      <path fill="#C7B79C" d="m 230,68 c -16,2 -35,-0 -48,12 0,13 16,10 23,17 1,15 -26,41 -35,45 -12,6 -5,18 6,17 22,3 45,2 67,-2 41,-4 77,-36 114,-39 12,0 39,-14 43,-22 6,-8 16,-13 24,-21 2,-14 -16,-12 -25,-15 -41,6 -145,-20 -169,9 z" />
    </g>
  </defs>
  <use xlink:href="#icon" style="stroke:#ffffff;stroke-width:50;stroke-linejoin:round" />
  <use xlink:href="#icon" />
</svg>