<?xml version="1.0" encoding="UTF-8" standalone="no"?>
<svg xmlns="http://www.w3.org/2000/svg" xmlns:xlink="http://www.w3.org/1999/xlink" version="1.0" width="580" height="580">
  <defs>
    <g id="icon">
      <path d="m 161,145 c -9,12 -19,26 -20,42 -2,23 12,45 31,57 8,6 18,8 27,10 12,2 24,-4 31,-14 17,-19 31,-44 28,-70 C 254,142 237,119 217,101 208,92 197,84 186,76 c -3,24 -10,49 -25,69 z" />
      <path d="m 113,539 c -1,3 2,5 4,5 116,0 231,-1 347,-1 2,0 4,-2 4,-4 l 0,-103 c 0,-2 -2,-4 -4,-4 l -188,0 c -8,-63 -8,-121 -3,-181 0,-3 -3,-6 -6,-4 -43,17 -96,14 -130,0 -3,0 -5,2 -4,5 C 142,344 135,432 113,539 Z" />
    </g>
  </defs>
  <use xlink:href="#icon" style="stroke:#ffffff;stroke-width:50;stroke-linejoin:round" />
  <use xlink:href="#icon" fill="#734a08" />
  <path opacity="0.9" fill="#ffffff" d="m 240,218 c -3,5 -10,15 -12,17 6,-18 12,-37 6,-55 C 229,161 214,148 200,136 c -5,19 -13,36 -26,52 -8,9 -12,22 -9,34 0,5 7,15 6,16 -16,-12 -27,-31 -24,-51 2,-20 19,-32 27,-49 8,-15 13,-32 16,-49 31,24 55,48 61,80 4,17 -2,35 -11,50 z" />
  <path opacity="0.8" fill="#ffffff" d="m 203,147 c 28,24 33,48 21,83 -3,7 -3,16 -12,18 C 203,251 193,248 185,245 c -8,-11 -17,-25 -13,-39 4,-11 13,-20 19,-30 5,-9 10,-19 13,-29 z" /> 
</svg>