<?xml version="1.0" encoding="UTF-8" standalone="no"?>
<svg xmlns="http://www.w3.org/2000/svg" xmlns:xlink="http://www.w3.org/1999/xlink" version="1.0" width="580" height="580">
  <defs>
    <g id="icon">
      <path d="m 234,479 133,0 -28,-120 c -29,23 -78,23 -105,9 z" />
      <path d="m 233,102 0,96 c 23,-9 45,-13 65,-9 L 281,115 c -4,-8 -11,-13 -20,-13 z" />
      <path d="m 280,366 c 44,0 83,-38 82,-82 -0,-49 -40,-81 -84,-82 -44,-0 -80,36 -80,81 1,44 37,83 82,83 z" />
      <path fill="#ffffff" d="m 280,357 c -40,0 -72,-32 -72,-72 0,-40 32,-72 72,-72 40,0 72,32 72,72 0,40 -32,72 -72,72 z" />
      <g opacity="0.6">
        <path d="m 221,229 52,56 c 7,24 13,50 19,73 12,5 38,-18 47,-25 l -54,-54 -20,-73 c -17,6 -31,13 -44,23 z" />
        <path d="m 36,478 175,0 0,-34 -175,0 z" />
        <path d="m 484,446 c -12,5 -27,3 -39,-3 -14,-5 -28,-2 -40,3 -7,2 -15,3 -22,2 l 6,29 c 9,0 17,-2 25,-6 12,-4 25,-3 37,3 12,5 27,4 39,-2 12,-5 27,-4 38,2 5,1 13,5 17,2 l 0,-27 c -14,-0 -25,-9 -38,-9 -8,0 -15,2 -22,5 z" />
        <path d="m 36,426 175,0 0,-34 -175,0 z" />
        <path d="m 484,394 c -12,5 -27,4 -39,-2 -14,-6 -28,-2 -41,3 -11,4 -23,3 -33,-2 l 7,31 c 12,3 24,1 34,-4 12,-5 26,-4 38,2 13,5 28,4 40,-3 12,-4 26,-3 37,3 5,1 14,5 17,2 l 0,-27 c -14,-0 -25,-9 -38,-8 -8,0 -15,2 -22,6 z" />
        <path d="m 36,374 175,0 0,-24 C 207,347 200,340 200,340 l -164,0 z" />
        <path d="m 36,322 156,0 c -5,-11 -8,-22 -8,-34 l -147,0 z" />
        <path d="m 36,271 148,0 c 1,-12 5,-24 11,-34 l -159,0 z" />
        <path d="m 35,185 0,34 172,0 c 3,-2 3,-5 3,-9 l 0,-26 z" />
        <path d="m 36,167 175,0 0,-34 -175,0 z" />
      </g>
      <path d="m 281,294 c 5,0 10,-4 10,-10 0,-5 -4,-10 -10,-10 -5,0 -10,4 -10,10 0,5 4,10 10,10 z" />
    </g>
  </defs>
  <use xlink:href="#icon" style="stroke:#ffffff;stroke-width:50;stroke-linejoin:round" />
  <use xlink:href="#icon" style="fill:#734a08" />
</svg>