<?xml version="1.0" encoding="UTF-8" standalone="no"?>
<svg xmlns="http://www.w3.org/2000/svg" xmlns:xlink="http://www.w3.org/1999/xlink" version="1.0" width="580" height="580">
  <defs>
    <g id="icon">
      <path style="fill:#734a08;fill-opacity:0.7" d="m 219,154 c 3,97 147,98 150,0 -3,-108 -151,-99 -150,0 z m -2,78 c -34,1 -61,29 -61,64 l 1,145 c 4,29 18,52 44,60 v 24 h 185 v -27 c 22,-11 36,-39 36,-58 l -1,-145 c -3,-35 -26,-60 -59,-62 -48,-4 -102,-1 -146,-0 z" />
      <path style="fill:#734a08" d="M 54,30 55,553 526,550 525,27 Z M 83,57 H 193 V 386 c 13,11 18,13 19,27 -1,14 -18,22 -19,26 v 82 H 83 Z m 140,0 H 366 V 521 H 223 Z m 172,0 h 103 V 521 h -103 v -82 c -11,-2 -17,-15 -18,-27 7,-19 18,-20 18,-26 z" />
    </g>
  </defs>
  <use xlink:href="#icon" style="stroke:#ffffff;stroke-width:50;stroke-linejoin:round" />
  <use xlink:href="#icon" />
</svg>