<?xml version="1.0" encoding="UTF-8" standalone="no"?>
<svg xmlns="http://www.w3.org/2000/svg" xmlns:xlink="http://www.w3.org/1999/xlink" version="1.0" height="580" width="580">
  <defs>
    <path id="icon" d="m 99,221 c 17,-19 46,-53 58,-11 23,47 97,11 117,-23 12,-11 41,56 86,49 37,-11 61,-86 86,-33 15,22 65,33 49,2 -21,-17 -44,-51 -81,-47 -28,14 -52,79 -84,45 -23,-21 -59,-69 -83,-23 -11,36 -57,37 -77,5 -23,-31 -56,-18 -76,8 -3,4 -6,9 -10,12 -21,-1 -12,38 15,16 z" />
    <g id="gicon">
      <use xlink:href="#icon" />
      <use xlink:href="#icon" transform="translate(50,100)" />
      <use xlink:href="#icon" transform="translate(20,200)" />
    </g>
  </defs>
  <use xlink:href="#gicon" style="stroke:#ffffff;stroke-width:50;stroke-linejoin:round" />
  <use xlink:href="#gicon" style="fill:#666666" />
</svg>