<?xml version="1.0" encoding="UTF-8" standalone="no"?>
<svg xmlns="http://www.w3.org/2000/svg" xmlns:xlink="http://www.w3.org/1999/xlink" version="1.0" width="580" height="580">
  <defs>
    <g id="icon">
      <path d="m 275,444 c -1,-17 -30,5 -21,18 -2,21 -38,21 -34,-3 3,-22 24,-35 42,-43 -10,-7 -23,-10 -31,2 -10,8 -34,37 -36,10 -15,-34 -44,-60 -57,-96 -18,-45 -22,-102 10,-142 12,-13 28,-32 48,-29 -1,17 -23,25 -27,42 -16,34 -5,74 11,106 20,35 53,60 85,82 22,9 3,-28 -10,-29 -23,-2 -1,-32 -25,-35 -28,-20 -47,-52 -46,-87 -1,-26 6,-52 23,-71 8,-18 43,-46 47,-55 17,-13 19,-12 29,-29 18,-12 26,20 44,31 12,12 10,28 29,34 23,20 45,46 43,79 1,22 1,45 -13,63 -12,18 -27,34 -46,45 -4,10 2,25 -14,27 -10,3 -30,29 -14,31 44,-27 87,-63 102,-114 5,-22 9,-47 1,-69 -6,-18 -25,-29 -31,-47 18,-7 35,15 47,26 30,32 29,80 20,120 -9,39 -34,70 -56,102 -8,14 -14,44 -33,21 -12,-8 -23,-29 -39,-17 -12,3 0,6 5,9 17,7 33,23 30,43 -2,24 -38,11 -33,-9 5,-14 -30,-28 -21,-5 0,17 20,37 -2,50 -10,7 -26,7 -34,-7 C 258,473 279,459 275,444 Z M 263,283 c 10,-38 3,-78 -8,-115 -17,-4 -32,24 -40,38 -16,36 1,80 34,99 11,6 10,-17 14,-22 z m 83,10 c 20,-20 35,-50 25,-78 -6,-23 -21,-44 -44,-53 -8,37 -20,76 -9,114 1,15 9,46 25,21 l 2,-2 z" />
    </g>
  </defs>
  <use xlink:href="#icon" style="stroke:#ffffff;stroke-width:50;stroke-linejoin:round" />
  <circle fill="none" stroke="#000000" stroke-width="20" cx="290" cy="290" r="270" />
  <use xlink:href="#icon" style="fill:#000000" />
</svg>