<?xml version="1.0" encoding="UTF-8" standalone="no"?>
<svg xmlns="http://www.w3.org/2000/svg" xmlns:xlink="http://www.w3.org/1999/xlink" version="1.0" width="580" height="580">
  <defs>
    <g id="icon">
      <path d="m 184,239 -100,0 41,24 -25,43 c -4,8 -4,17 0,25 l 40,69 c 2,-5 4,-9 5,-13 l 49,-85 40,24 z" />
      <path d="m 185,439 h 99 v -80 h -104 c -7,12 -13,22 -20,35 -10,22 4,44 25,45 z" />
      <path d="m 293,197 100,0 50,-87 -41,24 -25,-43 C 372,83 365,79 356,79 l -79,0 c 3,4 6,7 8,11 l 49,85 z" />
      <path d="m 218,98 -50,86 c 19,11 42,24 69,40 16,-28 33,-57 52,-90 L 270,98 C 256,77 229,80 218,98 Z" />
      <path d="m 372,312 -50,87 50,86 0,-47 50,0 c 10,0 17,-4 22,-12 l 40,-69 c -5,1 -10,2 -13,2 l -98,-1 c 0,-16 0,-31 0,-47 z" />
      <path d="m 377,252 c 22,38 40,68 53,91 h 40 c 25,-2 36,-25 26,-44 l -49,-86 c -2,1 -25,14 -69,40 z" />
    </g>
  </defs>
  <use xlink:href="#icon" style="stroke:#ffffff;stroke-width:50;stroke-linejoin:round" />
  <use xlink:href="#icon" style="fill:#ac39ac" />
</svg>