<?xml version="1.0" encoding="UTF-8" standalone="no"?>
<svg xmlns="http://www.w3.org/2000/svg" xmlns:xlink="http://www.w3.org/1999/xlink" version="1.0" width="580" height="580">
  <defs>
    <g id="icon">
      <path d="m 292,92 c -50,-0 -100,18 -136,54 -42,39 -65,97 -62,155 4,100 96,190 197,186 41,-0 83,-12 115,-38 -16,-9 -35,2 -52,4 -62,8 -124,-30 -154,-83 -32,-54 -28,-128 11,-178 34,-46 94,-77 152,-65 13,0 34,10 42,4 -7,-17 -28,-20 -43,-26 C 339,97 316,92 292,92 Z M 410,209 c -17,11 -15,40 -22,53 -14,3 -40,-3 -55,8 8,17 28,21 41,33 -2,17 -14,33 -9,55 22,-5 27,-22 44,-27 17,4 28,25 48,27 4,-17 -7,-34 -10,-49 10,-13 28,-19 40,-40 -18,-14 -40,-6 -56,-8 -8,-12 -6,-40 -21,-52 z" />
    </g>
  </defs>
  <use xlink:href="#icon" style="stroke:#ffffff;stroke-width:50;stroke-linejoin:round" />
  <circle fill="none" stroke="#000000" stroke-width="20" cx="290" cy="290" r="270" />
  <use xlink:href="#icon" style="fill:#000000" />
</svg>