<?xml version="1.0" encoding="UTF-8" standalone="no"?>
<svg xmlns="http://www.w3.org/2000/svg" xmlns:xlink="http://www.w3.org/1999/xlink" version="1.0" width="580" height="580">
  <defs>
    <g id="icon">
      <path d="M 290,62 223,178 H 90 L 157,292 90,407 H 223 L 290,523 357,407 H 490 L 423,292 490,178 H 357 Z m 0,80 21,36 H 269 Z M 160,218 h 40 l -20,35 z m 86,0 h 88 l 43,74 -43,74 h -88 l -43,-74 z m 134,0 h 40 l -20,35 z M 180,332 200,367 h -40 z m 221,0 20,35 H 380 Z M 269,407 h 42 L 290,443 Z" />
    </g>
  </defs>
  <use xlink:href="#icon" style="stroke:#ffffff;stroke-width:50;stroke-linejoin:round" />
  <circle fill="none" stroke="#000000" stroke-width="20" cx="290" cy="290" r="270" />
  <use xlink:href="#icon" style="fill:#000000" />
</svg>