<?xml version="1.0" encoding="UTF-8" standalone="no"?>
<svg xmlns="http://www.w3.org/2000/svg" xmlns:xlink="http://www.w3.org/1999/xlink" version="1.0" width="580" height="580">
  <defs>
    <g id="icon">
      <path d="m 198,487 c -4,-33 -2,-67 -2,-101 -1,-19 4,-38 -6,-55 -8,-18 20,-19 12,-38 0,-7 2,-15 -7,-12 -15,-1 -31,0 -46,-3 -5,-16 -6,-43 19,-34 11,3 41,-0 32,-16 -16,-8 -38,-1 -52,-12 1,-22 -29,-19 -33,-39 1,-15 -23,-30 -15,-42 20,-1 37,14 57,16 40,6 80,13 120,11 42,-1 84,0 126,-5 24,-4 48,-8 70,-19 28,-10 8,24 0,35 -2,21 -27,24 -31,43 -14,13 -37,2 -52,12 3,21 28,14 43,13 19,-5 17,38 0,36 -15,1 -30,1 -44,1 1,9 -0,19 3,28 13,4 29,15 11,25 -9,5 -4,15 -5,23 1,42 3,85 1,127 -9,13 -42,10 -34,-12 -1,-63 -3,-127 -4,-190 -42,1 -84,0 -126,3 -1,66 0,132 -2,197 1,23 -31,9 -32,8 z m 71,-262 c -11,0 -22,-1 -33,2 -9,15 18,22 30,20 7,1 14,1 12,-8 -1,-10 -1,-15 -8,-14 z m 80,14 c 16,-16 -11,-15 -21,-14 -5,1 -17,-4 -14,5 1,5 -4,16 4,14 11,-0 22,2 31,-5 z" />
    </g>
  </defs>
  <use xlink:href="#icon" style="stroke:#ffffff;stroke-width:50;stroke-linejoin:round" />
  <circle fill="none" stroke="#000000" stroke-width="20" cx="290" cy="290" r="270" />
  <use xlink:href="#icon" style="fill:#000000" />
</svg>