<?xml version="1.0" encoding="UTF-8" standalone="no"?>
<svg xmlns="http://www.w3.org/2000/svg" xmlns:xlink="http://www.w3.org/1999/xlink" version="1.0" width="580" height="580">
  <defs>
    <g id="icon">
      <path d="M 221,500 C 169,487 131,442 110,395 99,368 91,338 89,308 c 15,-24 26,7 26,21 13,50 40,102 88,124 28,13 65,8 82,-19 18,-27 8,-62 -5,-89 -5,-8 -13,-25 -21,-25 -14,14 -27,30 -46,35 -9,-14 -34,-42 -10,-52 22,-10 49,-25 48,-53 4,-25 -26,-32 -44,-27 -17,-3 -42,22 -54,8 -9,-16 -27,-48 5,-50 20,-3 41,-5 61,-2 35,11 59,47 58,83 3,11 -13,43 9,27 17,-14 37,-24 59,-26 14,-10 11,-34 27,-45 21,-22 58,-24 84,-9 30,20 34,58 35,91 2,43 0,93 -33,126 -22,23 -64,30 -87,5 -16,-25 -11,-55 -14,-83 4,-24 -19,-40 -38,-24 -5,4 -20,5 -12,12 25,36 41,87 19,128 -14,26 -44,38 -72,38 -11,0 -23,0 -34,-2 z M 436,394 c 27,-19 36,-57 32,-88 -5,-25 -17,-57 -47,-60 -20,-3 -37,10 -48,24 15,20 11,46 13,69 2,20 -4,45 15,58 11,6 25,4 35,-3 z M 287,193 c -27,-9 -48,-30 -64,-53 -0,-20 25,-14 32,-1 27,24 73,18 94,-11 15,-9 32,18 44,28 -10,17 -28,28 -45,36 -19,7 -41,8 -60,1 z m -17,-82 c 10,-11 20,-21 33,-33 10,11 22,19 33,31 -9,11 -23,23 -33,33 -5,-5 -28,-26 -32,-31 z" />
    </g>
  </defs>
  <use xlink:href="#icon" style="stroke:#ffffff;stroke-width:50;stroke-linejoin:round" />
  <circle fill="none" stroke="#000000" stroke-width="20" cx="290" cy="290" r="270" />
  <use xlink:href="#icon" style="fill:#000000" />
</svg>