<?xml version="1.0" encoding="UTF-8" standalone="no"?>
<svg xmlns="http://www.w3.org/2000/svg" xmlns:xlink="http://www.w3.org/1999/xlink" version="1.0" width="580" height="580">
  <defs>
    <g id="icon">
      <path d="m 255,70 c -3,0 -5,2 -5,5 V 196 H 144 c -3,0 -6,3 -6,6 v 69 c 0,3 3,6 6,6 h 107 v 229 c 0,3 2,5 5,5 h 69 c 3,0 5,-2 5,-5 V 276 h 107 c 3,0 6,-3 6,-6 v -69 c 0,-3 -3,-6 -6,-6 H 330 V 75 c 0,-3 -2,-5 -5,-5 z" />
    </g>
  </defs>
  <use xlink:href="#icon" style="stroke:#ffffff;stroke-width:50;stroke-linejoin:round" />
  <use xlink:href="#icon" style="fill:#000000" />
</svg>