<?xml version="1.0" encoding="UTF-8" standalone="no"?>
<svg xmlns="http://www.w3.org/2000/svg" xmlns:xlink="http://www.w3.org/1999/xlink" version="1.0" width="580" height="580">
  <defs>
    <g id="icon">
      <path d="M 481,269 472,66 c 0,-4 -3,-7 -7,-7 l -5,0 c -4,0 -7,3 -7,7 l 3,203 -20,0 -5,-205 c 0,-4 -3,-7 -7,-7 l -6,0 c -4,0 -7,3 -7,7 l 3,205 -25,0 3,-205 c 0,-4 -3,-7 -7,-7 l -6,0 c -4,0 -7,3 -7,7 l -5,205 -20,0 3,-203 c 0,-4 -3,-7 -7,-7 l -5,0 c -4,0 -7,3 -7,7 L 321,269 c 0,60 14,82 51,100 l -8,147 74,0 -8,-146 C 468,352 481,329 481,269 Z M 269,211 c 0,-74 -62,-155 -94,-155 -32,0 -94,81 -94,155 0,60 27,110 65,128 l -8,177 74,0 -8,-176 c 38,-18 65,-68 65,-128 z" />
    </g>
  </defs>
  <use xlink:href="#icon" style="stroke:#ffffff;stroke-width:50;stroke-linejoin:round" />
  <use xlink:href="#icon" style="fill:#734a08" />
</svg>