<?xml version="1.0" encoding="UTF-8" standalone="no"?>
<svg xmlns="http://www.w3.org/2000/svg" xmlns:xlink="http://www.w3.org/1999/xlink" version="1.0" width="580" height="580">
  <defs>
    <g id="icon">
      <path d="M 289.6,54.9 A 24,24 0 0 0 266,79.3 V 98.3 C 178.7,109.2 109.2,178.8 98.3,266.1 H 78.2 a 23.9,23.9 0 1 0 0,47.8 H 98.3 C 109.2,401.2 178.7,470.8 266,481.7 v 19 a 24,24 0 1 0 48,0 v -19 c 87.3,-10.9 156.8,-80.5 167.7,-167.8 h 20.1 a 23.9,23.9 0 1 0 0,-47.8 H 481.7 C 470.8,178.8 401.3,109.2 314,98.3 V 79.3 A 24,24 0 0 0 289.6,54.9 Z M 266,152.7 v 78 l -55.4,-55.4 c 16.3,-11.2 35,-19.1 55.4,-22.6 z m 48,0 c 20.3,3.5 39.1,11.4 55.4,22.6 L 314,230.6 Z m -138.7,58 55.5,55.5 h -78.1 c 3.5,-20.4 11.4,-39.2 22.6,-55.5 z m 229.5,0 c 11.2,16.3 19.1,35.1 22.6,55.5 H 349.3 Z M 290,265 a 25,25 0 0 1 25,25 25,25 0 0 1 -25,25 25,25 0 0 1 -25,-25 25,25 0 0 1 25,-25 z m -137.4,48.9 h 78.1 l -55.5,55.5 C 164,353.1 156.1,334.3 152.6,313.9 Z m 196.6,0 h 78.1 c -3.5,20.4 -11.4,39.2 -22.6,55.5 z M 266,349.4 v 78 c -20.3,-3.5 -39.1,-11.4 -55.4,-22.6 z m 48,0 55.4,55.4 c -16.2,11.2 -35,19.1 -55.4,22.6 z" />
    </g>
  </defs>
  <use xlink:href="#icon" style="stroke:#ffffff;stroke-width:50;stroke-linejoin:round" />
  <circle fill="none" stroke="#000000" stroke-width="20" cx="290" cy="290" r="270" />
  <use xlink:href="#icon" style="fill:#000000" />
</svg>