<?xml version="1.0" encoding="UTF-8" standalone="no"?>
<svg xmlns="http://www.w3.org/2000/svg" xmlns:xlink="http://www.w3.org/1999/xlink" version="1.0" width="580" height="580">
  <defs>
    <g id="icon">
      <path d="M 73 144 L 70 180 L 90 182 L 90 379 L 72 379 L 72 397 L 327 397 L 330 401 L 336 397 L 445 397 L 445 379 L 358 379 L 260 237 L 257 239 L 253 195 L 324 200 L 326 164 L 73 144 z M 126 185 L 163 188 L 163 379 L 127 379 L 126 185 z M 199 190 L 217 192 L 234 379 L 199 379 L 199 190 z M 263 305 L 314 379 L 270 379 L 263 305 z " />
      <path d="m 54,433 449,0 0,-18 -449,0 z" />
      <path d="m 36,469 505,0 0,-18 -505,0 z" />
    </g>
  </defs>
  <use xlink:href="#icon" style="stroke:#ffffff;stroke-width:50;stroke-linejoin:round" />
  <use xlink:href="#icon" style="fill:#734a08" />
</svg>