<?xml version="1.0" encoding="UTF-8" standalone="no"?>
<svg xmlns="http://www.w3.org/2000/svg" xmlns:xlink="http://www.w3.org/1999/xlink" version="1.0" width="580" height="580">
  <defs>
    <g id="icon">
      <path opacity="0.8" d="m 95,506 c -4,15 18,26 27,13 57,-137 112,-289 169,-421 62,137 111,293 169,420 9,13 32,2 27,-13 C 425,359 368,194 305,53 283,29 271,67 268,74 207,212 150,368 95,506 Z" />
      <path d="m 63,167 0,258 c 1,14 17,10 27,10 l 422,0 c 14,-1 10,-17 10,-27 l 0,-258 C 520,136 504,141 495,140 l -422,0 c -14,1 -10,17 -10,27 z" />
    </g>
  </defs>
  <use xlink:href="#icon" style="stroke:#ffffff;stroke-width:50;stroke-linejoin:round" />
  <use xlink:href="#icon" style="fill:#39ac39" />
  <path fill="#ffffff" d="M 241 256 L 241 402 L 279 402 C 279 397 278 389 280 387 C 288 399 303 406 319 403 C 355 399 378 324 334 300 C 318 291 294 294 281 306 L 281 256 L 241 256 z M 300 324 C 318 324 319 349 316 363 C 309 380 284 378 282 360 C 279 347 281 324 300 324 z " />
  <path fill="#ffffff" d="m 93,196 c -6,9 -5,12 6,13 9,2 19,2 28,3 4,-14 24,-15 34,-8 8,10 -5,14 -12,15 -17,4 -35,6 -51,14 -19,11 -15,43 5,50 20,8 45,3 61,-11 3,6 0,14 14,13 10,0 19,0 29,-1 -9,-21 -3,-44 -5,-67 0,-16 -8,-30 -25,-37 -27,-6 -72,-5 -84,16 z m 69,38 c 5,12 -4,30 -18,30 -22,6 -26,-22 -5,-26 7,-2 16,-2 23,-4 z" />
  <path fill="#ffffff" d="m 368,206 c -10,22 -6,54 15,68 20,14 45,14 68,9 17,-4 28,-18 34,-34 C 464,246 451,244 447,244 c -4,14 -24,21 -35,12 -14,-11 -11,-35 -1,-47 13,-13 34,-5 38,8 25,-4 45,8 27,-18 C 465,182 448,176 424,177 c -25,-0 -47,8 -56,30 z" />
</svg>