<?xml version="1.0" encoding="UTF-8" standalone="no"?>
<svg xmlns="http://www.w3.org/2000/svg" xmlns:xlink="http://www.w3.org/1999/xlink" version="1.0" width="580" height="580">
  <defs>
    <g id="icon">
      <path d="m 57,303 c -14,10 3,20 10,28 12,10 58,-15 58,-15 v 218 c 10,19 49,12 49,-4 v -24 h 215 c 0,0 -1,21 1,32 16,16 52,7 48,-14 V 316 c 0,0 33,14 50,20 10,-1 15,-12 23,-18 9,-13 -9,-19 -18,-24 -69,-37 -208,-111 -208,-111 0,0 -154,80 -228,120 z m 227,-12 105,12 V 481 H 175 V 303 Z m -86,126 c -1,24 34,35 49,17 15,-15 2,-45 -17,-45 -19,-1 -32,14 -32,28 z m 73,19 c -33,5 -30,39 9,38 28,-1 57,0 85,-1 24,-4 17,-39 -12,-38 -28,0 -51,0 -82,1 z m -86,26 c 4,14 46,13 57,7 9,-21 -32,-17 -42,-17 -7,0 -13,1 -15,10 z" />
      <path d="m 354,34 -52,52 c -9,12 6,22 14,14 l 52,-52 c 6,-12 -5,-23 -14,-14 z m -129,19 -74,74 c -9,12 6,22 14,14 l 74,-74 c 6,-12 -5,-23 -14,-14 z m -105,29 -74,74 c -9,12 6,22 14,14 l 74,-74 c 9,-10 -5,-23 -14,-14 z m 397,1 -62,62 c -9,12 6,22 14,14 l 62,-62 c 6,-12 -5,-23 -14,-14 z m -86,10 -74,74 c -9,12 6,22 14,14 l 74,-74 c 6,-12 -5,-23 -14,-14 z m -176,17 -74,74 c -9,12 6,22 14,14 l 74,-74 c 6,-12 -5,-23 -14,-14 z m 79,11 -40,40 c -9,12 6,22 14,14 l 40,-40 c 6,-12 -5,-23 -14,-14 z m 186,38 -62,62 c -9,12 6,22 14,14 l 62,-62 c 6,-12 -5,-23 -14,-14 z m -415,25 -62,62 c -9,12 6,22 14,14 l 62,-62 c 6,-12 -5,-23 -14,-14 z m 320,0 -33,33 c -9,12 6,22 14,14 l 33,-33 c 6,-12 -5,-23 -14,-14 z" />
    </g>
  </defs>
  <use xlink:href="#icon" style="stroke:#ffffff;stroke-width:50;stroke-linejoin:round" />
  <use xlink:href="#icon" style="fill:#0092da" />
</svg>