<?xml version="1.0" encoding="UTF-8" standalone="no"?>
<svg xmlns="http://www.w3.org/2000/svg" xmlns:xlink="http://www.w3.org/1999/xlink" version="1.0" width="580" height="580">
  <defs>
    <g id="icon">
      <path fill="#" d="m 259,83 c -2,-26 -21,-43 -44,-44 -26,2 -44,20 -44,44 2,26 20,44 44,44 26,-2 43,-21 44,-44 z m -143,90 h 109 c 29,-2 25,-35 0,-34 0,0 -104,-1 -109,0 -25,2 -23,34 0,34 z m 135,-2 c -6,9 -14,13 -26,13 h -60 v 161 l -34,171 c -4,33 40,40 48,9 l 35,-177 h 16 l 35,177 c 7,32 55,21 48,-9 L 279,344 V 200 l 22,-29 23,-2 18,-24 156,-9 -1,-16 -238,5 c 0,0 -17,6 -24,10 21,-0 24,17 16,36 z" />
    </g>
  </defs>
  <use xlink:href="#icon" style="stroke:#ffffff;stroke-width:50;stroke-linejoin:round" />
  <use xlink:href="#icon" style="fill:#39ac39" />
</svg>