<?xml version="1.0" encoding="UTF-8" standalone="no"?>
<svg xmlns="http://www.w3.org/2000/svg" xmlns:xlink="http://www.w3.org/1999/xlink" version="1.0" width="580" height="580">
  <defs>
    <g id="icon">
      <path d="M 285,208 C 285,208 135,285 73,318 c -10,16 19,32 25,29 13,-7 41,-17 41,-17 v 202 c -1,16 46,14 45,0 V 318 l 101,-12 98,12 v 215 c 0,16 45,14 45,0 V 330 c 0,0 31,14 47,18 13,-4 32,-23 13,-34 C 421,279 285,208 285,208 Z" />
      <path d="m 354,34 -52,52 c -9,12 6,22 14,14 l 52,-52 c 6,-12 -5,-23 -14,-14 z m -129,19 -74,74 c -9,12 6,22 14,14 l 74,-74 c 6,-12 -5,-23 -14,-14 z m -105,29 -74,74 c -9,12 6,22 14,14 l 74,-74 c 9,-10 -5,-23 -14,-14 z m 397,1 -62,62 c -9,12 6,22 14,14 l 62,-62 c 6,-12 -5,-23 -14,-14 z m -86,10 -74,74 c -9,12 6,22 14,14 l 74,-74 c 6,-12 -5,-23 -14,-14 z m -176,17 -74,74 c -9,12 6,22 14,14 l 74,-74 c 6,-12 -5,-23 -14,-14 z m 79,11 -40,40 c -9,12 6,22 14,14 l 40,-40 c 6,-12 -5,-23 -14,-14 z m 186,38 -62,62 c -9,12 6,22 14,14 l 62,-62 c 6,-12 -5,-23 -14,-14 z m -415,25 -62,62 c -9,12 6,22 14,14 l 62,-62 c 6,-12 -5,-23 -14,-14 z m 320,0 -33,33 c -9,12 6,22 14,14 l 33,-33 c 6,-12 -5,-23 -14,-14 z" />
    </g>
  </defs>
  <use xlink:href="#icon" style="stroke:#ffffff;stroke-width:50;stroke-linejoin:round" />
  <use xlink:href="#icon" style="fill:#734a08" />   
</svg>