<?xml version="1.0" encoding="UTF-8" standalone="no"?>
<svg xmlns="http://www.w3.org/2000/svg" xmlns:xlink="http://www.w3.org/1999/xlink" version="1.0" width="580" height="580">
  <defs>
    <g id="icon">
      <path opacity="0.1" d="m 219,305 c 70,-30 141,-32 167,-4 60,66 124,142 142,171 34,55 -22,61 -173,65 -80,2 -84,1 -168,2 -39,-2 -155,-20 -154,-32 2,-6 32,-47 66,-93 C 149,348 174,325 219,305 Z" />
      <path d="m 100,412 c -34,46 -63,88 -66,93 -2,6 5,8 16,6 11,-2 44,-38 72,-80 42,-62 62,-80 112,-102 102,-44 103,-43 213,81 26,29 55,65 66,80 27,39 40,20 14,-21 -19,-28 -81,-104 -143,-170 -12,-13 -34,-19 -61,-19 -31,0 -68,8 -105,24 C 174,323 149,346 100,412 Z" />
      <path d="m 289,520 c 77,0 140,-3 140,-7 0,-4 -16,-30 -37,-58 C 358,408 312,379 276,379 c -42,0 -127,101 -127,134 0,4 63,7 140,7 z" />
      <path d="m 354,34 -52,52 c -9,12 6,22 14,14 l 52,-52 c 6,-12 -5,-23 -14,-14 z m -129,19 -74,74 c -9,12 6,22 14,14 l 74,-74 c 6,-12 -5,-23 -14,-14 z m -105,29 -74,74 c -9,12 6,22 14,14 l 74,-74 c 9,-10 -5,-23 -14,-14 z m 397,1 -62,62 c -9,12 6,22 14,14 l 62,-62 c 6,-12 -5,-23 -14,-14 z m -86,10 -74,74 c -9,12 6,22 14,14 l 74,-74 c 6,-12 -5,-23 -14,-14 z m -176,17 -74,74 c -9,12 6,22 14,14 l 74,-74 c 6,-12 -5,-23 -14,-14 z m 79,11 -40,40 c -9,12 6,22 14,14 l 40,-40 c 6,-12 -5,-23 -14,-14 z m 186,38 -62,62 c -9,12 6,22 14,14 l 62,-62 c 6,-12 -5,-23 -14,-14 z m -415,25 -62,62 c -9,12 6,22 14,14 l 62,-62 c 6,-12 -5,-23 -14,-14 z m 320,0 -33,33 c -9,12 6,22 14,14 l 33,-33 c 6,-12 -5,-23 -14,-14 z" />
    </g>
  </defs>
  <use xlink:href="#icon" style="stroke:#ffffff;stroke-width:50;stroke-linejoin:round" />
  <use xlink:href="#icon" style="fill:#734a08" />
</svg>