<?xml version="1.0" encoding="UTF-8" standalone="no"?>
<svg xmlns="http://www.w3.org/2000/svg" xmlns:xlink="http://www.w3.org/1999/xlink" version="1.0" width="580" height="580">
  <defs>
    <g id="icon">
      <path d="M 191 339 L 191 365 L 238 365 L 210 435 L 140 435 L 140 461 L 199 461 L 167 542 L 199 542 L 231 461 L 338 461 L 370 542 L 403 542 L 370 461 L 429 461 L 429 435 L 359 435 L 331 365 L 378 365 L 378 339 L 191 339 z M 266 365 L 296 365 L 324 435 L 238 435 L 266 365 z " />
      <path d="m 81,309 c -6,5 -2,13 3,17 6,5 11,15 20,11 22,-9 44,-18 65,-26 39,-4 78,-10 116,-14 39,5 78,9 116,14 22,9 44,18 67,27 8,0 12,-9 18,-14 6,-4 6,-15 -1,-17 C 417,269 355,237 284,201 216,235 141,276 81,309 Z" />
      <path d="m 354,34 -52,52 c -9,12 6,22 14,14 l 52,-52 c 6,-12 -5,-23 -14,-14 z m -129,19 -74,74 c -9,12 6,22 14,14 l 74,-74 c 6,-12 -5,-23 -14,-14 z m -105,29 -74,74 c -9,12 6,22 14,14 l 74,-74 c 9,-10 -5,-23 -14,-14 z m 397,1 -62,62 c -9,12 6,22 14,14 l 62,-62 c 6,-12 -5,-23 -14,-14 z m -86,10 -74,74 c -9,12 6,22 14,14 l 74,-74 c 6,-12 -5,-23 -14,-14 z m -176,17 -74,74 c -9,12 6,22 14,14 l 74,-74 c 6,-12 -5,-23 -14,-14 z m 79,11 -40,40 c -9,12 6,22 14,14 l 40,-40 c 6,-12 -5,-23 -14,-14 z m 186,38 -62,62 c -9,12 6,22 14,14 l 62,-62 c 6,-12 -5,-23 -14,-14 z m -415,25 -62,62 c -9,12 6,22 14,14 l 62,-62 c 6,-12 -5,-23 -14,-14 z m 320,0 -33,33 c -9,12 6,22 14,14 l 33,-33 c 6,-12 -5,-23 -14,-14 z" />
    </g>
  </defs>
  <use xlink:href="#icon" style="stroke:#ffffff;stroke-width:50;stroke-linejoin:round" />
  <use xlink:href="#icon" style="fill:#734a08" />
</svg>