<?xml version="1.0" encoding="UTF-8" standalone="no"?>
<svg xmlns="http://www.w3.org/2000/svg" xmlns:xlink="http://www.w3.org/1999/xlink" version="1.0" width="580" height="580">
  <defs>
    <g id="icon">
      <path d="M 222,160 122,132 c -1,2 -21,80 97,114 l 306,84 22,-82 -305,-84 55,-38 -19,-5 z M 44,247 261,307 c 3,-5 8,-10 13,-15 L 44,229 Z M 266,345 c 0,21 12,38 29,47 L 44,322 44,505 c 10,0 21,-3 30,-7 22,-8 42,-9 63,0 23,9 40,9 62,0 23,-9 42,-8 63,0 22,9 40,9 61,0 23,-8 42,-9 63,0 22,9 40,9 61,0 23,-9 42,-9 64,0 9,4 19,7 30,7 V 459 L 313,396 c 42,4 55,-30 56,-51 0,-28 -23,-52 -51,-52 -29,0 -52,23 -52,52 z m 120,-3 130,35 4,-17 -138,-38 c 2,6 4,13 4,20 z m -46,3 c 0,12 -10,22 -22,22 -13,0 -23,-10 -23,-22 0,-12 10,-22 23,-22 12,0 22,10 22,22 z" />
    </g>
  </defs>
  <use xlink:href="#icon" style="stroke:#ffffff;stroke-width:50;stroke-linejoin:round" />
  <use xlink:href="#icon" style="fill:#0092da" />
</svg>