<?xml version="1.0" encoding="UTF-8" standalone="no"?>
<svg xmlns="http://www.w3.org/2000/svg" version="1.0" width="580" height="580">
  <circle cx="290" cy="290" r="260" style="fill:#39ac39;stroke:#ffffff;stroke-width:20" />
  <g style="opacity:0.7;fill:#ffffff">
    <path d="m 195,83 -29,45 11,47 76,20 60,-27 13,-58 -54,-45 z" />
    <path d="m 345,112 -9,54 58,58 63,-9 20,-71 -69,-56 z" />
    <path d="m 159,99 c -7,2 -13,7 -18,11 -4,4 -9,9 -13,13 -4,4 -7,9 -11,13 l 36,-9 c 2,-9 4,-20 7,-29" />
    <path d="m 171,192 -65,65 16,85 62,2 71,-56 -18,-76 z" />
    <path d="m 463,235 -60,11 -38,71 22,51 60,7 49,-80" />
    <path d="m 48,315 c 2,20 11,47 18,60 4,13 11,18 16,16 L 106,349 86,268 50,257 c -4,20 -4,40 -2,60 z" />
    <path d="m 517,297 -49,85 29,33 c 7,-4 11,-13 18,-27 7,-13 11,-29 16,-45 4,-18 4,-33 4,-54 z" />
    <path d="m 200,353 31,65 98,20 45,-58 -25,-60 -78,-20 z" />
    <path d="m 177,467 2,25 c 9,7 20,11 33,16 13,4 29,9 45,11 16,2 33,2 49,2 16,0 31,-2 45,-4 l 7,-20 -29,-45 -105,-18 z" />
  </g>
</svg>