<?xml version="1.0" encoding="UTF-8" standalone="no"?>
<svg xmlns="http://www.w3.org/2000/svg" xmlns:xlink="http://www.w3.org/1999/xlink" version="1.0" width="580" height="580">
  <defs>
    <g id="icon">
      <path d="m 58,358 c 2,35 -2,71 -11,105 -3,9 5,22 -7,24 -5,8 -2,19 -4,28 -3,10 8,14 16,15 34,5 68,1 102,0 53,-2 107,2 159,-11 13,-3 26,-5 37,-13 7,-10 2,-25 -3,-35 -3,-6 -8,-8 -13,-12 -13,-5 -28,-3 -42,-1 -9,6 -23,-2 -34,-4 -28,-8 -58,-19 -74,-44 -13,-17 -24,-36 -39,-51 -29,0 -60,1 -87,-3 z" />
      <path d="m 323,118 c -16,37 -7,83 20,112 32,36 86,47 130,30 40,-15 70,-53 71,-96 C 548,123 524,83 488,64 470,54 450,49 430,49 385,48 340,76 323,118 Z" />
      <path d="m 53,65 c -30,30 -20,74 13,107 26,26 57,39 84,28 12,4 31,12 50,26 -1,3 0,6 2,8 l 56,56 c 4,4 10,4 13,0 l 6,-6 c 4,-4 4,-10 0,-13 l -56,-56 c -2,-2 -6,-3 -8,-2 -14,-19 -22,-38 -26,-50 11,-28 -2,-59 -28,-84 C 140,59 115,48 97,49 80,51 63,56 53,65 Z M 180,174 c 4,10 10,22 16,34 -12,-7 -24,-12 -34,-16 6,-6 13,-12 18,-18 z M 59,258 c 0,17 14,31 31,31 17,0 31,-14 31,-31 0,-17 -14,-31 -31,-31 -17,0 -31,14 -31,31 z" />
      <path d="m 413,369 c 0,-25 14,-37 30,-43 20,-7 58,-10 61,18 6,55 -37,140 -43,152 -24,18 -47,1 -47,-17 -18,-6 -22,-11 -24,-12 0,67 61,79 89,48 14,-17 51,-103 49,-177 -4,-30 -16,-40 -55,-43 -3,-0 -5,-0 -8,-0 -51,0 -83,44 -78,74 9,6 13,7 25,1 z m 4,104 c 23,-53 17,-41 40,-89 -6,-12 -12,-12 -23,-12 -46,100 6,-12 -40,89 6,6 12,12 23,12 z" />
    </g>
  </defs>
  <use xlink:href="#icon" style="stroke:#ffffff;stroke-width:50;stroke-linejoin:round" />
  <use xlink:href="#icon" style="fill:#ac39ac" />
  <g fill="#eed7ee">
    <path d="m 387,66 -13,20 5,21 34,9 27,-12 L 446,78 422,58 Z" />
    <path d="m 454,79 -4,24 26,26 28,-4 9,-32 -31,-25 z" />
    <path d="m 371,73 c -3,1 -6,3 -8,5 -2,2 -4,4 -6,6 -2,2 -3,4 -5,6 l 16,-4 c 1,-4 2,-9 3,-13" />
    <path d="m 376,115 -29,29 7,38 28,1 32,-25 -8,-34 z" />
    <path d="m 507,134 -27,5 -17,32 10,23 27,3 22,-36" />
    <path d="m 321,170 c 1,9 5,21 8,27 2,6 5,8 7,7 l 11,-19 -9,-36 -16,-5 c -2,9 -2,18 -1,27 z" />
    <path d="m 531,162 -22,38 13,15 c 3,-2 5,-6 8,-12 3,-6 5,-13 7,-20 2,-8 2,-15 2,-24 z" />
    <path d="m 389,187 14,29 44,9 20,-26 -11,-27 -35,-9 z" />
    <path d="m 379,238 1,11 c 4,3 9,5 15,7 6,2 13,4 20,5 7,1 15,1 22,1 7,-0 14,-1 20,-2 l 3,-9 -13,-20 -47,-8 z" />
    <path d="m 125,367 c -3,-0 -7,2 -7,4 1,3 11,38 30,58 19,22 36,36 64,43 0,0 0,0 0,0 0,0 0,0 0,0 27,7 69,15 69,15 3,1 6,-2 7,-5 1,-3 -2,-6 -5,-7 0,0 -43,-8 -69,-15 v 0 0 c -25,-6 -39,-18 -58,-39 -16,-18 -26,-48 -29,-52 -1,-1 -2,-2 -4,-2 z m 19,5 c -1,0 -2,1 -3,2 -1,2 0,4 2,6 2,1 5,1 6,-1 1,-2 0,-4 -2,-6 -1,-0 -2,-1 -3,-1 z M 156,394 c -1,0 -2,1 -3,2 -1,2 0,4 2,6 2,1 5,1 6,-1 1,-2 0,-4 -2,-6 -1,-0 -2,-1 -3,-1 z m -53,3 c -15,0 -27,11 -27,26 0,14 12,26 27,26 15,0 27,-11 27,-26 0,-14 -12,-26 -27,-26 z m 66,17 c -1,0 -2,1 -3,2 -1,2 0,4 2,6 2,1 5,1 6,-1 1,-2 0,-4 -2,-6 -1,-0 -2,-1 -3,-1 z m 18,17 c -1,0 -2,1 -3,2 -1,2 0,5 2,6 2,1 5,1 6,-1 1,-2 0,-5 -2,-6 -1,-0 -2,-1 -3,-1 z m 21,13 c -2,-0 -3,0 -4,2 -1,2 1,4 3,6 3,1 5,0 6,-2 1,-2 -1,-4 -3,-6 -1,-0 -1,-0 -2,-0 z m 22,9 c -1,0 -2,1 -3,2 -1,2 1,4 3,4 2,1 5,0 6,-2 1,-2 -1,-4 -3,-4 -1,-0 -2,-0 -2,-0 z m 23,6 c -1,0 -2,1 -3,2 -1,2 1,4 3,4 2,1 5,0 6,-2 v 0 c 0,-0 0,-0 0,-0 0,-2 -1,-3 -3,-4 -1,-0 -2,-0 -2,-0 z m 24,5 c -2,0 -3,1 -5,2 -0,2 1,3 4,4 3,0 5,-1 5,-2 0,-2 -1,-3 -4,-3 -0,0 -0,0 -1,0 z m 41,4 c -1,0 -2,0 -2,0 -2,0 -4,1 -5,1 -8,0 0,6 7,3 11,-2 4,-3 -0,-3 z m 21,13 c -8,4 -17,5 -25,8 -10,-6 -22,1 -33,2 -17,-2 -4,15 -5,24 18,-2 36,-6 54,-11 14,-0 15,-12 10,-22 z m -80,12 c -59,7 -131,4 -201,4 -13,-5 -11,15 -7,20 27,5 53,2 80,2 41,-2 81,-1 122,-3 17,4 8,-13 6,-23 z" />
  </g>
</svg>