<?xml version="1.0" encoding="UTF-8" standalone="no"?>
<svg xmlns="http://www.w3.org/2000/svg" xmlns:xlink="http://www.w3.org/1999/xlink" version="1.0" width="580" height="580">
  <defs>
    <g id="icon">
      <path d="m 36,217 c 0,16 9,29 20,39 l 14,93 c -1,3 -2,8 -2,14 6,50 90,66 149,78 1,7 10,12 21,12 h 113 c 12,0 21,-6 21,-13 60,-14 136,-26 140,-77 0,-6 -1,-11 -2,-14 l 15,-93 c 11,-10 19,-22 19,-38 0,-21 -12,-40 -29,-46 C 364,124 232,120 65,171 48,176 36,196 36,217 Z" />
    </g>
  </defs>
  <use xlink:href="#icon" style="stroke:#ffffff;stroke-width:50;stroke-linejoin:round" />
  <use xlink:href="#icon" style="fill:#39ac39" />
  <path fill="#ffffff" d="m 492,217 c -14,10 -33,17 -46,21 -38,11 -93,18 -154,18 -61,0 -116,-7 -154,-18 -16,-6 -34,-10 -46,-21 14,-10 33,-17 46,-21 38,-11 93,-18 153,-18 60,0 116,7 154,18 16,6 34,10 46,21 z" />
  <path fill="#39ac39" opacity="0.5" d="m 255,180 c -6,0 -12,1 -18,1 l 9,44 c -18,1 -37,3 -55,6 l -19,-42 c -7,1 -14,3 -21,4 l 28,40 c -11,2 -22,4 -33,7 38,10 89,16 146,16 61,0 115,-7 153,-18 -12,-3 -24,-5 -36,-7 l 26,-38 c -6,-2 -13,-3 -20,-4 l -18,40 c -18,-2 -37,-4 -55,-5 l 9,-43 c -6,-0 -12,-1 -18,-1 l -3,45 c -24,-1 -48,-1 -71,0 z" />
  <path fill="#ffffff" d="m 481,359 c -34,22 -70,31 -107,36 v -22 c 1,-61 -141,-72 -156,0 v 23 C 179,391 134,382 102,359 L 88,274 c 63,26 146,32 204,33 71,-4 145,-5 205,-33 z" />
</svg>