<?xml version="1.0" encoding="UTF-8" standalone="no"?>
<svg xmlns="http://www.w3.org/2000/svg" xmlns:xlink="http://www.w3.org/1999/xlink" version="1.0" width="580" height="580">
  <defs>
    <g id="icon">
      <path opacity="0.8" d="m 117,150 v 23 c -37,-1 -33,39 0,39 v 59 c -36,-0 -33,39 0,39 v 67 h 32 V 310 h 75 v -24 h 140 V 310 h 69 v 67 h 32 V 310 c 34,0 34,-39 0,-39 v -59 c 34,0 34,-39 0,-39 V 150 c -0,-21 -32,-20 -32,0 v 23 h -285 v -23 c -0,-21 -31,-20 -31,-0 z m 316,62 v 59 h -285 v -59 z" />
      <path d="m 247,354 95,0 0,-50 -95,0 z" />
      <path  d="m 215,418 c 54,0 108,0 162,0 l 0,-50 c -54,0 -108,0 -162,0 z" />
    </g>
  </defs>
  <use xlink:href="#icon" style="stroke:#ffffff;stroke-width:50;stroke-linejoin:round" />
  <use xlink:href="#icon" style="fill:#666666" />
</svg>