<?xml version="1.0" encoding="UTF-8" standalone="no"?>
<svg xmlns="http://www.w3.org/2000/svg" xmlns:xlink="http://www.w3.org/1999/xlink" version="1.0" width="580" height="580">
  <defs>
    <g id="icon">
      <path d="m 532,66 -40,19 c -10,6 -22,11 -25,25 -3,9 -5,19 -7,29 -138,0 -276,-1 -414,0 -13,2 -13,18 -8,28 16,62 31,124 48,186 16,11 26,11 36,11 l 282,39 c 2,11 2,20 -12,16 -88,1 -177,0 -265,1 -15,8 -30,20 -34,38 -8,32 27,66 57,51 23,-10 33,-39 22,-61 h 170 c -18,29 10,74 45,66 28,-6 43,-41 29,-65 13,1 18,-13 16,-24 0,-19 -1,-38 5,-57 19,-84 38,-167 57,-251 16,-9 34,-17 48,-28 7,-9 1,-23 -10,-23 z M 67,167 H 111 v 55 H 81 Z M 130,167 h 68 v 55 h -68 z m 87,0 h 72 v 55 h -72 z m 91,0 h 70 v 55 h -70 z m 89,0 h 56 l -13,55 h -43 z m -287,73 1,61 -9,-1 -17,-59 z M 130,241 h 68 v 60 h -68 z m 87,0 h 72 v 60 h -72 z m 91,0 h 70 v 60 h -70 z m 89,0 h 39 L 423,300 397,300 Z M 418,320 404,376 397,375 397,321 Z m -306,1 -1,15 L 106,321 Z M 130,321 h 68 l 1,26 L 129,337 Z m 87,0 h 72 v 39 l -72,-10 z m 91,0 h 70 v 51 l -70,-9 z M 158,469 c -8,32 -49,19 -43,-8 6,-27 50,-18 43,8 z M 375,492 c -24,-5 -21,-43 4,-43 33,0 27,49 -4,43 z" />
    </g>
  </defs>
  <use xlink:href="#icon" style="stroke:#ffffff;stroke-width:50;stroke-linejoin:round" />
  <use xlink:href="#icon" style="fill:#ac39ac" />
</svg>