<?xml version="1.0" encoding="UTF-8" standalone="no"?>
<svg xmlns="http://www.w3.org/2000/svg" height="580" width="580" version="1.0">
  <circle cx="290" cy="290" r="260" style="fill:#39ac39;stroke:#ffffff;stroke-width:25" />
  <path fill="#ffffff" d="m 176,322 c -12,0 -24,-9 -35,-9 -11,-1 -37,14 -45,9 v 26 c 16,4 31,-9 45,-9 11,0 22,9 35,9 12,-0 26,-11 39,-11 12,-0 23,9 36,9 13,0 25,-8 39,-8 13,0 27,9 40,9 13,-0 26,-10 40,-10 14,-0 29,9 43,10 13,0 27,-9 37,-9 13,0 20,11 34,8 v -26 c -14,4 -24,-8 -34,-8 -10,0 -24,9 -37,9 -14,-0 -29,-10 -43,-10 -14,0 -26,10 -40,10 -14,0 -27,-9 -40,-9 -13,-0 -26,8 -39,8 -12,-0 -23,-9 -35,-9 -16,-0 -27,10 -40,11 z" />
  <path fill="#ffffff" d="m 177,364 c -12,0 -24,-9 -35,-9 -11,-1 -36,14 -45,9 v 26 c 16,4 31,-9 45,-9 11,0 22,9 35,9 12,-1 26,-10 39,-11 12,-0 23,8 36,9 13,0 25,-8 39,-8 13,0 27,9 40,9 13,-0 26,-10 40,-10 14,0 29,9 43,10 13,0 27,-9 37,-9 13,0 20,11 34,8 v -26 c -14,4 -24,-8 -34,-8 -10,0 -24,9 -37,9 -14,-0 -29,-10 -43,-10 -14,0 -26,10 -40,10 -14,0 -27,-9 -40,-9 -13,-0 -26,8 -39,8 -12,-0 -23,-9 -35,-9 -16,-0 -27,10 -40,11 z" />
  <path fill="#ffffff" d="m 176,407 c -12,0 -24,-9 -35,-9 -11,-1 -36,14 -45,9 v 26 c 16,4 31,-9 45,-9 11,0 22,9 35,9 12,-1 26,-10 39,-11 12,-0 23,8 36,9 13,0 25,-8 39,-8 13,0 27,9 40,9 13,-0 26,-10 40,-10 14,0 29,9 43,10 13,0 27,-9 37,-9 13,0 20,11 34,8 v -26 c -14,4 -24,-8 -34,-8 -10,0 -24,9 -37,9 -14,-0 -29,-10 -43,-10 -14,0 -26,10 -40,10 -14,0 -27,-9 -40,-9 -13,-0 -26,8 -39,8 -12,-0 -23,-9 -35,-9 -16,-0 -27,10 -40,11 z" />
  <path fill="#ffffff" d="m 328,110 c 1,-52 -77,-50 -76,0 1,53 76,49 76,0 z" />
  <path fill="#ffffff" d="m 240,156 c -30,2 -49,23 -49,50 v 94 c 10,-4 20,-8 30,-6 v -84 h 18 v 90 c 11,4 21,2 31,-2 14,-6 26,-4 40,1 11,4 22,6 33,2 v -91 h 18 v 85 c 10,-3 20,-0 30,3 V 208 C 387,177 367,159 340,157 Z" />
</svg>