<?xml version="1.0" encoding="UTF-8" standalone="no"?>
<svg xmlns="http://www.w3.org/2000/svg" height="580" width="580" version="1.0">
  <circle cx="290" cy="290" r="260" style="fill:#39ac39;stroke:#ffffff;stroke-width:25" />
  <path fill="#ffffff" d="m 364,153 c -19,7 -17,16 -12,29 4,10 9,24 18,42 l -107,58 c 10,-5 20,-7 31,-5 11,1 21,12 34,12 13,-0 29,-12 44,-12 14,0 30,11 41,12 11,1 20,-1 26,-7 L 391,172 c 15,-12 51,-17 63,-25 6,-5 3,-21 -11,-21 -27,5 -54,16 -80,27 z m 62,66 c 0,17 13,31 30,31 17,0 30,-14 30,-31 0,-17 -13,-31 -30,-31 -16,0 -30,14 -30,31 z m -308,13 c -12,1 -16,15 -10,21 26,11 61,22 84,30 10,-5 19,-7 28,-7 9,0 17,6 24,8 7,1 12,0 16,-2 -45,-20 -100,-37 -141,-50 z m 60,66 c -12,0 -24,-9 -35,-9 -11,-1 -37,14 -45,9 v 26 c 16,4 31,-9 45,-9 11,0 22,9 35,9 12,-0 26,-11 39,-11 12,-0 23,9 36,9 13,0 25,-8 39,-8 13,0 27,9 40,9 13,-0 26,-10 40,-10 14,-0 29,9 43,10 13,0 27,-9 37,-9 13,0 20,11 34,8 v -26 c -14,4 -24,-8 -34,-8 -10,0 -24,9 -37,9 -14,-0 -29,-10 -43,-10 -14,0 -26,10 -40,10 -14,0 -27,-9 -40,-9 -13,-0 -26,8 -39,8 -12,-0 -23,-9 -35,-9 -16,-0 -27,10 -40,11 z m 0,43 c -12,0 -24,-9 -35,-9 -11,-1 -36,14 -45,9 v 26 c 16,4 31,-9 45,-9 11,0 22,9 35,9 12,-1 26,-10 39,-11 12,-0 23,8 36,9 13,0 25,-8 39,-8 13,0 27,9 40,9 13,-0 26,-10 40,-10 14,0 29,9 43,10 13,0 27,-9 37,-9 13,0 20,11 34,8 v -26 c -14,4 -24,-8 -34,-8 -10,0 -24,9 -37,9 -14,-0 -29,-10 -43,-10 -14,0 -26,10 -40,10 -14,0 -27,-9 -40,-9 -13,-0 -26,8 -39,8 -12,-0 -23,-9 -35,-9 -16,-0 -27,10 -40,11 z m -1,43 c -12,0 -24,-9 -35,-9 -11,-1 -36,14 -45,9 v 26 c 16,4 31,-9 45,-9 11,0 22,9 35,9 12,-1 26,-10 39,-11 12,-0 23,8 36,9 13,0 25,-8 39,-8 13,0 27,9 40,9 13,-0 26,-10 40,-10 14,0 29,9 43,10 13,0 27,-9 37,-9 13,0 20,11 34,8 v -26 c -14,4 -24,-8 -34,-8 -10,0 -24,9 -37,9 -14,-0 -29,-10 -43,-10 -14,0 -26,10 -40,10 -14,0 -27,-9 -40,-9 -13,-0 -26,8 -39,8 -12,-0 -23,-9 -35,-9 -16,-0 -27,10 -40,11 z" />
</svg>