<?xml version="1.0" encoding="UTF-8" standalone="no"?>
<svg xmlns="http://www.w3.org/2000/svg" xmlns:xlink="http://www.w3.org/1999/xlink" version="1.0" width="580" height="580">
  <defs>
    <g id="icon">
      <path d="m 264,44 c -8,0 -12,4 -12,13 v 21 h -46 c -24,0 -38,13 -44,29 l -32,81 c -13,2 -35,16 -35,44 v 104 h 31 v 33 c 0,41 58,40 58,0 v -33 h 105 0 105 v 33 c 0,40 58,41 58,0 v -33 h 31 V 232 c 0,-28 -22,-42 -35,-44 l -32,-81 c -6,-16 -19,-29 -44,-29 h -45 V 57 c 0,-8 -5,-13 -12,-13 -18,0 -35,0 -53,0 z m -58,64 c 56,0 112,0 168,0 10,0 15,7 18,16 l 24,63 h -126 -0 -0 -126 l 24,-63 c 3,-9 8,-16 18,-16 z m -49,110 c 15,0 27,12 27,27 0,15 -12,27 -27,27 -15,0 -27,-12 -27,-27 0,-15 12,-27 27,-27 z m 266,0 c 15,0 27,12 27,27 0,15 -12,27 -27,27 -15,0 -27,-12 -27,-27 0,-15 12,-27 27,-27 z" />
      <path d="m 106,427 h 97 v 25 h -32 v 78 H 138 v -78 h -32 z m 175,86 h -36 l -5,17 H 207 L 245,427 h 35 l 39,103 h -33 z m -7,-22 -11,-37 -11,37 z m 48,-64 h 35 l 18,32 18,-32 h 35 l -32,50 35,53 h -36 l -20,-33 -20,33 h -36 l 36,-54 z m 120,0 h 32 v 103 h -32 z" />
    </g>
  </defs>
  <use xlink:href="#icon" style="stroke:#ffffff;stroke-width:50;stroke-linejoin:round" />
  <use xlink:href="#icon" style="fill:#0092da" />
</svg>