<?xml version="1.0" encoding="UTF-8" standalone="no"?>
<svg xmlns="http://www.w3.org/2000/svg" xmlns:xlink="http://www.w3.org/1999/xlink" version="1.0" width="580" height="580">
  <defs>
    <g id="icon">
      <path d="m 112,84 c -49,48 -33,120 20,173 42,42 92,63 137,45 19,6 50,19 81,42 -1,5 0,10 4,14 l 91,91 c 17,15 45,-18 32,-32 l -90,-90 c -4,-4 -9,-5 -14,-4 -23,-31 -36,-62 -42,-81 18,-45 -3,-95 -46,-137 C 236,59 160,38 112,84 Z m 207,178 c 7,17 16,36 26,55 -20,-11 -39,-19 -55,-26 11,-9 21,-19 29,-29 z M 172,347 c -28,0 -51,23 -51,51 0,28 23,51 51,51 28,0 51,-23 51,-51 0,-28 -23,-51 -51,-51 z" />
    </g>
  </defs>
  <use xlink:href="#icon" style="stroke:#ffffff;stroke-width:50;stroke-linejoin:round" />
  <use xlink:href="#icon" style="fill:#39ac39" />
</svg>