<?xml version="1.0" encoding="UTF-8" standalone="no"?>
<svg xmlns="http://www.w3.org/2000/svg" xmlns:xlink="http://www.w3.org/1999/xlink" version="1.0" width="580" height="580">
  <defs>
    <g id="icon">
      <path d="M 188,205 C 51,396 105,494 127,509 l 89,-128 c -18,-12 -8,-34 16,-77 16,-28 38,-61 64,-91 18,-21 38,-41 56,-28 L 443,55 C 437,51 424,47 406,48 360,48 281,75 188,205 Z" />
      <path d="m 362,192 40,28 c 4,3 15,1 18,-3 L 493,111 c 6,-8 4,-19 -4,-24 L 453,62 Z" />
      <path d="m 137,516 40,28 c 4,3 15,0 18,-4 L 266,437 c 6,-8 3,-18 -4,-24 l -36,-25 z" />
    </g>
  </defs>
  <use xlink:href="#icon" style="stroke:#ffffff;stroke-width:50;stroke-linejoin:round" />
  <use xlink:href="#icon" style="fill:#ac39ac" />
</svg>