<?xml version="1.0" encoding="UTF-8" standalone="no"?>
<svg xmlns="http://www.w3.org/2000/svg" xmlns:xlink="http://www.w3.org/1999/xlink" version="1.0" width="580" height="580">
  <defs>
    <g id="icon">
      <path d="m 283,136 c -17,-14 -35,-4 -49,9 -63,48 -108,52 -170,44 -24,-2 -32,7 -27,30 21,67 42,147 87,204 34,41 69,66 106,65 37,-1 63,-28 73,-58 12,12 29,20 58,21 29,1 66,-20 99,-61 34,-41 56,-110 66,-145 4,-21 26,-64 19,-83 -17,-24 -74,3 -105,-7 -37,-7 -68,-28 -94,-48 -35,-28 -53,-7 -63,29 z m -12,15 c 6,15 1,28 -3,42 -8,66 -15,148 19,219 -5,30 -25,58 -55,60 C 132,457 78,309 54,208 c 74,12 129,2 192,-48 12,-8 19,-14 25,-9 z m 101,76 c -7,8 -26,16 -43,12 -20,-13 0,-24 15,-27 10,-2 43,-3 28,15 z m 91,32 c -4,29 -36,0 -37,-17 -1,-18 10,-30 23,-17 11,10 13,25 14,34 z m -254,21 c 25,12 44,-45 24,-46 -23,0 -37,28 -24,46 z m -102,-3 c 5,22 71,35 57,6 -11,-19 -60,-34 -57,-6 z m 306,66 c 6,10 4,28 -6,24 -37,-30 -37,-25 -78,-17 -3,-20 29,-31 42,-31 16,0 32,11 42,24 z m -230,46 c -43,-16 -18,19 8,23 34,-1 64,-18 69,-51 0,-23 -12,-17 -25,-2 -9,18 -40,31 -52,30 z" />
    </g>
  </defs>
  <use xlink:href="#icon" style="stroke:#ffffff;stroke-width:50;stroke-linejoin:round" />
  <use xlink:href="#icon" style="fill:#734a08" />
  <path opacity="0.1" d="m 266,139 c -9,0 -19,7 -26,14 -28,21 -48,37 -95,49 -18,5 -53,-1 -90,-4 -23,-4 -3,37 -0,53 20,63 43,127 84,179 23,26 55,48 92,49 40,-10 58,-37 66,-70 -6,-10 -9,-18 -11,-28 -16,-61 -15,-125 -8,-187 2,-10 5,-20 7,-30 -2,-6 -4,-12 -6,-19 -3,-4 -10,-7 -12,-7 z" />
</svg>