<?xml version="1.0" encoding="UTF-8" standalone="no"?>
<svg xmlns="http://www.w3.org/2000/svg" height="580" width="580" version="1.0">
  <circle cx="290" cy="290" r="260" style="fill:#ac39ac;stroke:#ffffff;stroke-width:25" />
  <path fill="#ffffff" d="m 306,471 0,-361 -29,0 0,361 z" />
  <path fill="#ffffff" d="m 133,176 c -17,1 -30,11 -35,26 l -25,83 c -2,19 18,23 23,8 l 23,-76 H 131 l -37,135 h 36 v 105 c 0,20 27,16 27,0 v -105 h 14 v 106 c 1,20 27,15 27,0 v -105 h 36 l -38,-135 h 13 l 23,76 c 6,19 26,7 23,-8 l -25,-83 c -6,-16 -23,-26 -38,-27 z" />
  <path fill="#ffffff" d="m 193,142 c -1,-18 -14,-29 -30,-30 -17,1 -29,14 -29,30 1,17 14,29 29,29 17,-1 29,-13 30,-29 z" />
  <path fill="#ffffff" d="m 445,141 c -1,-17 -13,-29 -29,-29 -17,1 -29,13 -29,29 1,17 14,29 29,29 17,-1 29,-14 29,-29 z" />
  <path fill="#ffffff" d="m 377,176 c -23,2 -38,18 -38,38 v 90 c 0,18 23,15 23,0 v -87 h 14 v 238 c 1,22 32,22 32,0 v -138 h 14 v 138 c 0,21 33,21 33,0 v -238 h 14 v 88 c -0,17 23,15 23,0 v -89 c -2,-24 -17,-38 -38,-40 z" />
</svg>