<?xml version="1.0" encoding="UTF-8" standalone="no"?>
<svg xmlns="http://www.w3.org/2000/svg" xmlns:xlink="http://www.w3.org/1999/xlink" version="1.0" width="580" height="580">
  <defs>
    <g id="icon">
      <path d="m 425,39 c 75,66 58,173 -15,219 -3,2 0,6 3,4 C 498,204 497,92 429,35 c -3,-2 -6,2 -4,4" />
      <path d="m 194,262 c 3,2 6,-2 3,-4 C 114,203 113,94 181,39 182,36 180,34 177,35 99,104 119,215 194,262 Z" />
      <path d="m 382,74 c 54,42 41,116 -10,145 -3,2 -0,6 3,4 61,-37 60,-115 11,-153 -3,-1 -6,2 -4,4" />
      <path d="m 230,224 c 3,2 6,-2 3,-4 -58,-35 -57,-110 -10,-145 2,-3 -1,-5 -4,-4 -57,45 -43,122 11,153 z" />
      <path d="m 346,175 c -3,2 -0,5 3,4 31,-17 31,-55 6,-73 -3,-2 -6,2 -4,3 27,19 19,53 -5,66 z" />
      <path d="m 258,180 c 3,2 6,-2 3,-4 -28,-16 -28,-50 -5,-66 2,-3 -1,-4 -4,-3 -30,21 -21,59 6,73 z" />
      <path d="m 302,121 c -14,-0 -26,9 -26,21 -0,9 6,16 15,20 -8,129 -50,275 -118,369 -7,13 9,20 16,12 14,-19 27,-40 38,-61 l 74,-68 74,68 c 11,21 24,41 38,60 11,11 22,-3 16,-12 C 359,417 313,285 310,161 c 9,-2 16,-9 16,-20 -0,-13 -10,-21 -24,-20 z m -1,131 13,63 -13,12 -13,-12 z m 16,76 5,19 L 310,334 Z m -33,2 8,7 -12,12 z m 16,14 26,24 -27,24 -26,-24 z m -33,39 21,20 -45,41 z m 66,0 24,61 -45,-42 z" />
    </g>
  </defs>
  <use xlink:href="#icon" style="stroke:#ffffff;stroke-width:50;stroke-linejoin:round" />
  <use xlink:href="#icon" style="fill:#000000" />
</svg>