<?xml version="1.0" encoding="UTF-8" standalone="no"?>
<svg xmlns="http://www.w3.org/2000/svg" xmlns:xlink="http://www.w3.org/1999/xlink" version="1.0" width="580" height="580">
  <defs>
    <g id="icon">
      <path fill="#ac39ac" d="m 290,34 c -9,0 -18,6 -18,18 V 194 L 70,290 h 439 L 308,194 V 52 C 308,39 299,34 290,34 Z m 37,0 V 144 H 473 L 400,89 473,34 Z M 70,327 v 37 h 37 V 510 H 70 v 37 h 439 V 510 H 473 V 363 h 37 V 327 Z M 290,381 c 37,0 73,18 73,55 v 73 H 217 v -73 c 0,-37 37,-55 73,-55 z" />
    </g>
  </defs>
  <use xlink:href="#icon" style="stroke:#ffffff;stroke-width:50;stroke-linejoin:round" />
  <use xlink:href="#icon" />
</svg>