<?xml version="1.0" encoding="UTF-8" standalone="no"?>
<svg xmlns="http://www.w3.org/2000/svg" xmlns:xlink="http://www.w3.org/1999/xlink" version="1.0" width="580" height="580">
  <defs>
    <g id="icon">
      <path d="m 117,135 c -24,13 -49,43 -56,51 -9,15 5,32 18,30 16,-3 42,-25 55,-17 26,22 40,59 42,90 -24,31 -45,75 -70,101 -15,-5 -40,-22 -52,-28 -15,0 -21,19 -8,28 72,48 160,77 253,77 90,0 174,-26 245,-71 17,-15 -2,-34 -16,-25 -11,7 -22,13 -33,19 -23,-31 -38,-79 -51,-113 -17,-19 -35,-37 -41,-59 34,-5 56,13 70,32 2,3 6,3 7,0 l 12,-16 c 1,-2 1,-4 -0,-6 -26,-34 -67,-39 -101,-31 -16,-15 -40,-23 -82,-17 -30,7 -61,14 -92,21 -23,-36 -52,-50 -78,-67 -6,-31 -12,-25 -22,1 z m 211,132 8,3 c 18,20 42,27 66,34 27,18 49,63 64,99 -52,22 -108,34 -168,34 -57,0 -111,-11 -161,-31 32,-42 53,-77 77,-102 40,-1 84,-10 114,-36 z" />
    </g>
  </defs>
  <use xlink:href="#icon" style="stroke:#ffffff;stroke-width:50;stroke-linejoin:round" />
  <use xlink:href="#icon" style="fill:#ac39ac" />
</svg>