<?xml version="1.0" encoding="UTF-8" standalone="no"?>
<svg xmlns="http://www.w3.org/2000/svg" xmlns:xlink="http://www.w3.org/1999/xlink" version="1.0" width="580" height="580">
  <defs>
    <g id="icon">
      <path d="m 271,240 77,126 c 2,4 7,6 11,6 h 34 c 9,0 15,-9 12,-17 L 368,238 h 48 l 21,26 c 2,2 5,4 8,4 h 27 c 7,0 11,-6 9,-13 l -13,-43 14,-44 c 2,-6 -3,-13 -9,-13 h -28 c -3,0 -6,1 -8,4 l -20,27 H 369 L 407,70 c 3,-8 -4,-17 -12,-17 h -34 c -5,0 -9,2 -11,6 l -77,128 h -84 c -35,1 -34,52 -1,53 22,0 56,-0 83,-0 z" />
      <path d="M 133 311 C 127 311 124 315 122 320 C 113 343 103 360 99 392 C 99 414 97 436 98 458 C 98 472 113 492 126 492 L 376 492 L 376 467 C 375 467 375 467 374 467 L 374 444 L 376 445 L 376 438 C 324 421 281 388 257 329 C 253 318 244 312 234 311 L 133 311 z M 132 326 L 229 326 C 236 326 241 349 246 362 C 247 366 246 372 243 372 L 117 372 C 114 372 113 367 114 362 C 120 350 127 326 132 326 z M 268 378 C 275 385 282 394 289 399 L 289 441 L 270 432 C 268 414 268 396 268 378 z M 300 408 C 308 415 311 417 318 422 L 318 454 L 300 446 C 299 428 300 427 300 408 z M 128 421 C 135 421 140 426 140 432 C 140 439 135 444 128 444 C 122 444 117 439 117 432 C 117 426 121 421 128 421 z M 223 421 C 230 421 235 426 235 432 C 235 439 230 444 223 444 C 217 444 212 439 212 432 C 212 426 217 421 223 421 z M 327 427 L 345 435 L 345 461 C 339 460 333 459 327 456 L 327 427 z M 353 438 L 367 442 L 367 466 C 362 466 357 465 353 463 L 353 438 z M 211 498 L 211 510 L 158 510 L 158 498 L 122 498 L 122 510 L 98 510 L 98 527 L 266 527 C 290 517 332 503 376 501 L 376 498 L 211 498 z " />
    </g>
  </defs>
  <use xlink:href="#icon" style="stroke:#ffffff;stroke-width:50;stroke-linejoin:round" />
  <use xlink:href="#icon" style="fill:#ac39ac" />
</svg>