<?xml version="1.0" encoding="UTF-8" standalone="no"?>
<svg xmlns="http://www.w3.org/2000/svg" xmlns:xlink="http://www.w3.org/1999/xlink" version="1.0" width="580" height="580">
  <defs>
    <g id="icon">
      <path d="m 283,108 c -18,0 -32,14 -32,32 l 0,45 -97,-48 c -8,-4 -18,1 -21,7 l -9,18 c -4,8 -1,18 7,21 l 100,50 -126,63 c -8,4 -11,14 -7,21 l 9,18 c 4,8 14,11 21,7 l 123,-61 0,158 c 0,18 14,32 32,32 l 14,0 c 18,-0 32,-14 32,-32 l 0,-158 122,61 c 8,4 18,1 21,-7 l 9,-18 c 4,-8 1,-18 -7,-21 L 348,233 448,184 c 8,-4 11,-14 7,-21 l -9,-18 c -4,-8 -14,-11 -21,-7 l -96,48 0,-45 c -0,-18 -14,-32 -32,-32 z" />
    </g>
  </defs>
  <use xlink:href="#icon" style="stroke:#ffffff;stroke-width:50;stroke-linejoin:round" />
  <use xlink:href="#icon" style="fill:#666666" />
</svg>