<?xml version="1.0" encoding="UTF-8" standalone="no"?>
<svg xmlns="http://www.w3.org/2000/svg" xmlns:xlink="http://www.w3.org/1999/xlink" version="1.0" width="580" height="580">
  <defs>
    <g id="icon">
      <path d="m 43,244 288,4 209,-109 c 4,-2 3,-8 -2,-9 l -266,-10 -231,115 c -4,2 -3,9 2,9 z m 120,14 c -2,-0 -4,1 -4,3 l -25,73 c -1,3 2,7 5,6 73,-36 150,-28 217,-2 43,-48 83,-67 141,-74 4,-0 5,-5 3,-8 L 451,202 c -1,-1 -117,60 -117,60 z M 111,248 c -21,38 -25,87 -29,124 -25,7 -17,48 -19,73 -0,7 7,7 9,2 -2,7 3,9 7,6 2,5 7,6 9,-0 -1,6 6,7 9,3 0,5 6,7 9,1 9,-24 29,-56 13,-77 2,-30 3,-55 14,-90 3,-8 5,-19 14,-24 L 144,247 Z" />
    </g>
  </defs>
  <use xlink:href="#icon" style="stroke:#ffffff;stroke-width:50;stroke-linejoin:round" />
  <use xlink:href="#icon" style="fill:#39ac39" />
</svg>