<?xml version="1.0" encoding="UTF-8" standalone="no"?>
<svg xmlns="http://www.w3.org/2000/svg" height="580" width="580" version="1.0">
  <circle cx="290" cy="290" r="260" style="fill:#39ac39;stroke:#ffffff;stroke-width:25" />
  <path fill="#ffffff" d="m 167,212 c 14,9 22,11 43,0 0,-44 25,-65 54,-75 35,-12 102,-18 108,32 11,97 -65,248 -75,269 -43,32 -82,2 -82,-31 -32,-11 -39,-20 -43,-22 0,119 108,140 158,84 25,-31 90,-181 86,-311 C 408,107 387,89 319,85 231,76 158,151 167,212 Z m 13,165 c 10,10 20,21 41,21 7,-10 67,-147 71,-156 -11,-24 -22,-24 -41,-22 -9,19 -65,144 -70,158 z" />
</svg>