<?xml version="1.0" encoding="UTF-8" standalone="no"?>
<svg xmlns="http://www.w3.org/2000/svg" xmlns:xlink="http://www.w3.org/1999/xlink" version="1.0" width="580" height="580">
  <defs>
    <g id="icon">
      <path d="M 379,100 C 328,117 316,209 309,252 344,229 437,166 419,125 410,110 395,100 379,100 Z M 208,103 c -17,1 -33,10 -40,24 -8,53 68,105 103,131 C 267,216 253,105 208,103 Z M 89,264 c -8,15 -9,33 -1,47 C 129,345 214,308 254,292 214,281 123,232 89,264 Z m 238,28 c 39,16 144,56 167,17 7,-15 9,-37 -2,-47 -48,-29 -117,7 -164,30 z m -18,30 c 5,42 21,153 65,154 17,-1 33,-10 40,-25 7,-53 -70,-104 -105,-130 z m -37,0 c -34,26 -121,96 -99,135 10,14 26,23 41,21 49,-21 54,-113 58,-157 z" />
    </g>
  </defs>
  <use xlink:href="#icon" style="stroke:#ffffff;stroke-width:50;stroke-linejoin:round" />
  <use xlink:href="#icon" style="fill:#734a08" />
</svg>