<?xml version="1.0" encoding="UTF-8" standalone="no"?>
<svg xmlns="http://www.w3.org/2000/svg" xmlns:xlink="http://www.w3.org/1999/xlink" version="1.0" width="580" height="580">
  <defs>
    <g id="icon">
      <path d="M 76,451 C 123,425 180,407 225,420 c 46,14 85,48 132,58 54,13 111,-2 160,-26 -6,-17 -15,-35 -18,-43 -43,17 -98,30 -138,19 -67,-24 -107,-57 -170,-63 -49,1 -97,20 -137,45 2,8 18,36 22,41 z" />
      <path d="M 207,98 53,220 H 83 V 362 C 143,332 195,324 256,349 223,287 245,205 291,165 Z" />
      <path d="m 401,153 c -70,0 -127,57 -127,127 6,72 53,119 120,120 73,4 132,-47 134,-120 0,-70 -57,-127 -127,-127 z m 52,64 -46,31 -34,-44 c 28,-10 60,-3 80,13 z m -118,16 32,42 -44,29 c -7,-24 -1,-53 12,-71 z m 144,24 c 7,24 1,53 -12,71 l -32,-42 z m -83,56 34,44 c -28,10 -60,3 -80,-13 z" />
    </g>
  </defs>
  <use xlink:href="#icon" style="stroke:#ffffff;stroke-width:50;stroke-linejoin:round" />
  <use xlink:href="#icon" style="fill:#734a08" />
</svg>