<?xml version="1.0" encoding="UTF-8" standalone="no"?>
<svg xmlns="http://www.w3.org/2000/svg" height="580" width="580" version="1.0">
  <circle cx="290" cy="290" r="260" style="fill:#39ac39;stroke:#ffffff;stroke-width:25" />
  <path fill="#ffffff" d="m 186,393 c -11,0 -22,-8 -32,-8 -10,-1 -33,13 -41,8 v 24 c 14,3 28,-8 41,-8 10,0 20,9 32,8 11,-0 24,-10 35,-10 11,-0 21,8 32,8 11,0 23,-7 35,-7 12,0 24,8 36,8 12,-0 24,-9 36,-9 13,-0 27,9 39,9 12,0 25,-8 34,-8 12,0 19,10 31,7 v -24 c -12,3 -22,-7 -31,-7 -9,0 -22,8 -34,8 -12,-0 -26,-9 -39,-9 -13,0 -24,9 -36,9 -12,0 -25,-8 -36,-8 -12,-0 -24,7 -35,7 -11,-0 -21,-8 -31,-8 -15,-0 -24,9 -36,10 z" />
  <path fill="#ffffff" d="m 155,424 c -11,-1 -32,13 -41,8 v 24 c 14,3 28,-8 41,-8 10,0 20,9 32,8 11,-1 24,-9 35,-10 11,0 21,8 32,8 11,0 23,-8 35,-7 12,0 24,8 36,8 12,0 24,-9 36,-9 13,0 27,8 39,9 12,0 25,-8 34,-8 12,0 19,10 31,7 v -25 c -12,3 -22,-7 -31,-7 -9,0 -22,8 -34,8 -12,0 -26,-9 -39,-9 -13,0 -24,9 -36,9 -12,0 -25,-8 -36,-8 -12,0 -24,7 -35,7 -11,0 -21,-8 -31,-8 -15,0 -24,9 -36,10 -11,0 -28,-7 -32,-7 z" />
  <path fill="#ffffff" d="m 142,222 c 0,-79 64,-143 143,-143 79,0 143,64 143,143 0,79 -64,143 -143,143 -79,0 -143,-64 -143,-143 z m 26,-45 22,-6 c 7,-14 13,-27 28,-36 l -4,-19 c -24,18 -38,29 -47,61 z m 8,103 c 31,40 63,62 119,61 -22,-46 -42,-89 -60,-138 -15,8 -18,12 -36,6 -9,25 -17,45 -23,71 z m 82,-147 c 3,10 6,19 5,30 51,1 92,10 139,27 -22,-38 -38,-82 -90,-89 -19,9 -35,15 -54,32 z" />
</svg>