<?xml version="1.0" encoding="UTF-8" standalone="no"?>
<svg xmlns="http://www.w3.org/2000/svg" xmlns:xlink="http://www.w3.org/1999/xlink" version="1.0" width="580" height="580">
  <defs>
    <g id="icon">
      <path d="m 39,58 v 50 c 77,0 114,12 116,77 v 85 c 0,77 58,116 97,116 0,0 -39,-39 -39,-116 v -85 c 0,-35 -12,-62 -30,-77 48,0 87,19 88,77 v 85 c 0,77 58,116 97,116 0,0 -39,-39 -39,-116 v -85 c 0,-39 -9,-62 -23,-77 42,0 81,19 81,77 v 85 c 0,77 58,116 96,116 0,0 -39,-39 -39,-116 V 186 C 444,70 348,58 309,58 Z M 155,425 c -21,0 -58,39 -77,39 v 58 c 21,0 59,-39 77,-39 19,0 57,39 77,39 18,0 58,-39 77,-39 19,0 59,39 77,39 19,0 59,-39 77,-39 18,0 58,39 77,39 v -58 c -16,0 -57,-39 -77,-39 -18,0 -57,39 -77,39 -17,0 -58,-39 -77,-39 -19,0 -60,39 -77,39 -18,0 -57,-39 -77,-39 z" />
    </g>
  </defs>
  <use xlink:href="#icon" style="stroke:#ffffff;stroke-width:50;stroke-linejoin:round" />
  <use xlink:href="#icon" style="fill:#0092da" />
</svg>