<?xml version="1.0" encoding="UTF-8" standalone="no"?>
<svg xmlns="http://www.w3.org/2000/svg" xmlns:xlink="http://www.w3.org/1999/xlink" version="1.0" width="580" height="580">
  <defs>
    <g id="icon">
      <path d="m 129,383 322,0 0,131 -322,0 z" />
      <path d="m 266,109 c 8,20 37,26 52,10 C 338,96 322,65 295,65 273,64 256,89 266,109 Z M 236,180 c 12,9 34,4 48,3 6,26 12,52 18,78 -16,16 -33,32 -49,49 -16,33 5,46 38,45 26,-0 53,-0 80,-1 17,-1 32,-19 16,-36 -17,-12 -38,-9 -56,-9 14,-12 30,-24 44,-36 8,-11 8,-26 4,-39 -6,-26 -12,-51 -18,-77 -7,-26 -42,-37 -63,-20 -11,13 -24,10 -41,11 -12,-16 -24,-32 -37,-48 -25,-12 -35,14 -26,25 C 209,144 222,162 236,180 Z" />
      <path opacity="0.8" fill="#ffffff" d="m 129,403 v 93 h 322 v -93 z m 26,35 h 39 v 19 h -39 z m 79,0 h 38 v 20 h -38 z m 77,1 h 39 v 19 h -39 z m 78,0 h 37 v 19 h -37 z" />
    </g>
  </defs>
  <use xlink:href="#icon" style="stroke:#ffffff;stroke-width:50;stroke-linejoin:round" />
  <use xlink:href="#icon" style="fill:#000000" />
</svg>