<?xml version="1.0" encoding="UTF-8" standalone="no"?>
<svg xmlns="http://www.w3.org/2000/svg" xmlns:xlink="http://www.w3.org/1999/xlink" version="1.0" width="580" height="580">
  <defs>
    <g id="icon">
      <path d="M 136 102 L 136 141 L 96 141 L 96 164 L 135 164 L 135 308 L 100 308 L 100 355 L 124 355 L 124 490 L 371 490 L 371 355 L 399 355 L 399 308 L 366 309 L 366 165 L 405 165 L 405 260 L 428 260 L 428 254 L 501 254 L 500 230 L 428 230 L 428 141 L 366 141 L 366 104 L 334 104 L 334 141 L 290 141 L 290 124 L 219 124 L 219 141 L 167 141 L 167 102 L 136 102 z M 219 164 L 219 174 L 226 174 L 226 309 L 166 309 L 167 165 L 219 164 z M 288 164 L 332 164 L 333 309 L 237 309 L 237 174 L 288 174 L 288 164 z " />
    </g>
  </defs>
  <use xlink:href="#icon" style="stroke:#ffffff;stroke-width:50;stroke-linejoin:round" />
  <use xlink:href="#icon" style="fill:#734A08" />
</svg>