<?xml version="1.0" encoding="UTF-8" standalone="no"?>
<svg xmlns="http://www.w3.org/2000/svg" xmlns:xlink="http://www.w3.org/1999/xlink" version="1.0" width="580" height="580">
  <defs>
    <g id="icon">
      <path d="m 141,229 c -21,0 -75,1 -101,1 -3,0 -5,3 -5,6 v 241 c 0,3 2,6 6,6 h 237 c 3,0 6,-3 5,-6 -8,-123 -9,-190 -27,-225 -15,-23 -33,-31 -56,-31 -33,1 -57,8 -59,8 z" />
      <path d="m 39,154 v 43 c 22,0 44,-15 67,-15 23,1 49,17 72,18 22,1 46,-13 63,-14 14,0 27,7 32,17 8,17 2,43 8,63 8,24 20,41 25,63 1,6 1,46 1,46 49,-22 92,3 135,6 39,-8 65,-19 101,-7 v -44 c -34,-20 -70,8 -100,7 -33,-2 -58,-24 -90,-14 -5,-25 -22,-49 -30,-70 -7,-20 2,-43 -3,-61 -9,-33 -51,-48 -78,-49 -16,0 -40,14 -63,14 -23,-1 -48,-18 -72,-18 -25,-1 -47,14 -68,15 z m 274,266 v 44 c 25,1 47,-12 67,-12 22,1 44,17 67,17 38,-6 62,-19 96,-9 v -44 c -33,-15 -67,9 -95,10 -23,-1 -45,-16 -68,-18 -25,-1 -46,12 -67,12 z" />
    </g>
  </defs>
  <use xlink:href="#icon" style="stroke:#ffffff;stroke-width:50;stroke-linejoin:round" />
  <use xlink:href="#icon" style="fill:#0092da" />
</svg>