<?xml version="1.0" encoding="UTF-8" standalone="no"?>
<svg xmlns="http://www.w3.org/2000/svg" xmlns:xlink="http://www.w3.org/1999/xlink" version="1.0" width="580" height="580">
  <defs>
    <g id="icon">
      <path d="m 161,114 c 6,30 37,55 69,50 20,-2 39,-14 49,-31 9,-4 21,3 30,-4 7,-4 12,-18 20,-15 5,3 8,12 15,10 7,-3 13,-18 19,-6 3,4 10,10 15,4 6,-9 14,-12 20,-2 4,6 10,4 16,-1 7,-7 15,-14 19,-23 C 432,86 426,82 418,76 406,64 396,67 384,67 349,66 311,68 279,66 264,45 247,34 222,34 c -39,-1 -71,41 -61,79 z m 46,1 c -11,7 -28,-2 -26,-16 2,-10 10,-15 21,-14 11,1 17,23 4,30 z" />
      <path d="m 281,394 c 15,2 27,-18 20,-29 -15,-20 -14,-29 -4,-38 -16,-3 -26,23 -19,34 13,14 8,27 3,33 z m -39,-14 c -5,9 -12,19 -6,28 6,11 17,10 26,10 -9,-7 -14,-19 -6,-29 5,-8 10,-18 5,-26 -9,-12 -15,-11 -27,-11 5,4 17,17 8,28 z m 82,0 c -5,9 -12,19 -6,28 7,9 13,7 26,10 -9,-7 -14,-19 -6,-29 5,-8 10,-18 5,-26 -9,-12 -15,-11 -27,-11 5,4 16,16 8,28 z m -114,71 c -33,5 -27,25 -2,28 5,-2 4,3 4,7 -2,34 24,56 55,58 20,0 39,1 60,0 35,-12 43,-35 43,-65 42,-9 21,-31 0,-32 0,-5 3,-14 -7,-13 H 213 c -8,0 -4,16 -3,17 z" />
      <path d="m 77,276 c -6,3 -7,11 -3,15 15,22 19,19 40,9 v 233 c 0,5 4,9 9,9 h 26 c 5,0 9,-4 9,-9 0,-89 0,-150 0,-251 41,-10 130,-17 130,-17 0,0 85,8 128,17 -1,84 0,168 0,252 0,5 4,9 9,9 h 26 c 5,0 9,-4 9,-9 V 302 c 27,12 23,11 43,-9 4,-4 3,-12 -3,-15 L 294,166 c -3,-2 -6,-2 -9,0 z" />
    </g>
  </defs>
  <use xlink:href="#icon" style="stroke:#ffffff;stroke-width:50;stroke-linejoin:round" />
  <use xlink:href="#icon" style="fill:#0092da" />
</svg>