<?xml version="1.0" encoding="UTF-8" standalone="no"?>
<svg xmlns="http://www.w3.org/2000/svg" xmlns:xlink="http://www.w3.org/1999/xlink" version="1.0" width="580" height="580">
  <defs>
    <g id="icon">
      <path fill="#8F6E39" d="m 240,220 51,-30 50,31 c 0,0 46,324 40,322 l -196,-0 z" />
      <path fill="#734a08" d="M 430,42 290,233 150,42 c -5,-6 -13,-6 -18,-2 L 72,96 c -5,5 -5,13 0,18 L 248,263 72,414 c -6,5 -6,13 -0,18 l 59,56 c 5,5 14,4 18,-2 l 140,-192 141,191 c 4,6 13,7 18,2 l 59,-56 c 5,-5 5,-13 -0,-18 L 332,263 507,114 c 6,-5 6,-13 0,-18 l -59,-56 c -6,-5 -14,-3 -18,2 z m -140,215 8,7 -8,7 -8,-7 z" />
    </g>
  </defs>
  <use xlink:href="#icon" style="stroke:#ffffff;stroke-width:50;stroke-linejoin:round" />
  <use xlink:href="#icon" />
</svg>