<?xml version="1.0" encoding="UTF-8" standalone="no"?>
<svg xmlns="http://www.w3.org/2000/svg" xmlns:xlink="http://www.w3.org/1999/xlink" version="1.0" width="580" height="580">
  <defs>
    <g id="icon">
      <path fill="#8F6E39" d="m 220,194 -58,338 h 147 l -58,-338 z" />
      <path fill="#734a08" d="M 196,22 223,173 H 247 L 274,22 Z m -65,26 -55,55 126,88 17,-17 z m 208,1 -88,126 17,17 126,-88 z m 163,107 -234,40 v 20 l 206,36 z M 50,167 v 78 L 201,218 V 194 Z m 219,52 -17,17 88,126 55,-55 z m -67,1 -126,88 55,55 88,-126 z m 22,17 -27,151 h 78 L 247,238 Z" />
    </g>
  </defs>
  <use xlink:href="#icon" style="stroke:#ffffff;stroke-width:50;stroke-linejoin:round" />
  <use xlink:href="#icon" />
</svg>