<?xml version="1.0" encoding="UTF-8" standalone="no"?>
<svg xmlns="http://www.w3.org/2000/svg" xmlns:xlink="http://www.w3.org/1999/xlink" version="1.0" width="580" height="580">
  <defs>
    <g id="icon">
      <path d="m 279,336 c 18,2 32,-21 24,-34 -17,-23 -16,-34 -5,-45 -19,-3 -30,27 -22,40 15,16 9,32 3,39 z m -46,-16 c -6,10 -14,22 -7,33 7,13 20,12 30,12 -11,-8 -16,-22 -7,-34 6,-9 12,-21 6,-31 -11,-14 -17,-13 -32,-13 10,7 18,21 10,33 z m 96,0 c -6,10 -14,22 -7,33 8,10 15,8 30,12 -11,-8 -16,-22 -7,-34 6,-9 12,-21 6,-31 -11,-14 -17,-13 -32,-13 10,7 18,21 10,33 z m -134,83 c -39,6 -32,29 -2,33 6,-2 5,3 5,8 -2,40 28,66 64,68 23,0 46,1 70,0 41,-14 50,-41 50,-76 49,-11 25,-36 0,-37 0,-6 3,-16 -8,-15 H 200 c -4,5 2,18 -5,19 z" />
      <path d="m 41,198 c -7,4 -8,13 -3,18 18,26 22,22 47,11 v 273 c 0,6 5,11 11,11 h 30 c 6,0 11,-5 11,-11 0,-104 -0,-176 -0,-294 48,-12 152,-20 152,-20 0,0 100,9 150,20 -1,98 -0,197 -0,295 0,6 5,11 11,11 h 30 c 6,0 11,-5 11,-11 v -273 c 32,14 27,13 50,-10 5,-5 4,-14 -3,-18 L 295,69 c -3,-2 -7,-2 -11,0 z" />
    </g>
  </defs>
  <use xlink:href="#icon" style="stroke:#ffffff;stroke-width:50;stroke-linejoin:round" />
  <use xlink:href="#icon" style="fill:#0092da" />
</svg>