<?xml version="1.0" encoding="UTF-8" standalone="no"?>
<svg xmlns="http://www.w3.org/2000/svg" xmlns:xlink="http://www.w3.org/1999/xlink" version="1.0" width="580" height="580">
  <defs>
    <g id="icon">
      <path d="m 112,362 c -3,-5 -15,-12 -21,-14 -8,-2 -22,8 -11,15 l -3,7 c -9,-5 -11,-18 -10,-27 0,-6 6,-13 8,-19 7,-17 12,-34 17,-51 2,-7 3,-20 9,-25 5,-4 14,-5 20,-8 5,-2 8,-7 13,-8 11,-4 21,-3 26,-14 11,16 20,31 22,51 1,15 -8,29 -12,43 0,24 -10,42 -16,63 -2,8 0,16 -2,22 -4,12 -27,20 -24,35 8,14 61,13 70,5 8,-8 -2,-24 1,-34 2,-7 9,-13 12,-19 8,-14 14,-29 18,-44 h 2 c -7,26 19,48 20,70 -1,15 -23,24 -12,42 10,17 36,-1 49,-4 8,-1 18,1 21,-8 5,-12 -5,-24 -7,-36 7,-26 -6,-52 -11,-71 0,-7 5,-15 6,-22 22,9 43,19 63,31 0,10 0,22 1,31 1,5 5,9 4,14 -2,9 -25,19 -20,29 17,15 65,16 75,4 8,-15 5,-60 2,-73 12,12 37,46 32,62 -3,9 -31,24 -18,36 21,11 68,12 75,-2 5,-16 4,-45 0,-62 -3,-10 -8,-18 -9,-29 -1,-9 6,-19 6,-28 -4,-23 -6,-43 -1,-64 13,34 0,70 9,104 1,5 2,33 12,30 3,-1 5,-7 4,-10 -10,-28 -8,-37 -5,-63 4,-42 11,-102 -25,-133 -29,-20 -66,-51 -97,-59 -13,-2 -26,1 -38,1 -41,-9 -80,-8 -118,-10 -27,-5 -46,-25 -73,-32 -23,-4 -33,1 -49,12 -18,13 -42,34 -52,54 -6,13 -7,29 -11,43 -5,19 -16,36 -20,56 -3,22 2,44 2,66 0,16 -9,36 -3,52 8,22 51,29 54,0 6,2 19,0 15,-9 z" />
    </g>
  </defs>
  <use xlink:href="#icon" style="stroke:#ffffff;stroke-width:50;stroke-linejoin:round" />
  <use xlink:href="#icon" style="fill:#734a08" />
</svg>