<?xml version="1.0" encoding="UTF-8" standalone="no"?>
<svg xmlns="http://www.w3.org/2000/svg" height="24" width="24" version="1.0">
  <path fill="#e9bf1e" d="M 11.7,2.3 6.9,6.6 8.3,4.4 6.8,3.6 4.5,7.1 3.1,7.1 3.1,9.4 C 2.6,10.1 2.2,11 1.9,11.8 v 0 c 0.1,0.9 0.6,1.6 1.1,2.4 l -0.1,2.4 h 1.4 l 2.1,3.6 1.4,-0.8 -1.4,-2.5 5.1,4.9 1.1,-1.2 -4.8,-4.8 8.8,4.9 0.9,-1.4 L 8.8,14.3 20.5,17.3 20.9,15.8 9.5,12.6 22.1,12.7 V 11.1 L 9.4,11 20.8,8 20.4,6.5 9,9.2 17.5,4.7 16.7,3.3 8.1,7.8 13,3.3 Z" />
</svg>